<?xml version="1.0" standalone="no"?>
<!DOCTYPE svg PUBLIC "-//W3C//DTD SVG 1.1//EN" "http://www.w3.org/Graphics/SVG/1.1/DTD/svg11.dtd" >
<svg xmlns="http://www.w3.org/2000/svg" xmlns:xlink="http://www.w3.org/1999/xlink" version="1.1">
<metadata>
Created by FontForge 20170731 at Sat Jun  7 16:27:17 2008
 By Aleksey,,,
Copyright   1996, H.A. Simon,  published by Fontshop International for the FontFont library.
</metadata>
<defs>
<font id="MarketWeb" horiz-adv-x="510" >
  <font-face 
    font-family="Market Web"
    font-weight="400"
    font-stretch="normal"
    units-per-em="1000"
    panose-1="2 0 5 6 4 0 0 2 0 4"
    ascent="800"
    descent="-200"
    x-height="448"
    cap-height="638"
    bbox="-170 -438 1053 918"
    underline-thickness="64"
    underline-position="-320"
    unicode-range="U+0020-FB02"
  />
<missing-glyph horiz-adv-x="500" 
 />
    <glyph glyph-name="fi" unicode="fi" horiz-adv-x="488" 
d="M632 691q8 -8 10 -16.5t2 -16.5q0 -5 -1 -9.5t-4 -8.5q-14 -17 -30.5 -33t-33.5 -16q-15 0 -25.5 6.5t-14.5 13.5q-4 8 -5.5 17t-1.5 17q0 11 3 22.5t10 19.5q8 9 20.5 13t28.5 4q12 0 24.5 -3.5t17.5 -9.5zM224 277q-5 -5 -7 -9.5t-4 -8.5q-17 -50 -34 -98.5t-32 -98.5
t-26 -102t-16 -108q-1 -9 -9 -17t-19 -12q-9 -3 -18.5 -7t-12.5 -4q-9 0 -13.5 3.5t-11.5 8.5q-2 2 -4.5 15t-2.5 24q0 29 9.5 55t17.5 52q2 5 5 17.5t5 21.5q2 13 9 36t15.5 50.5t18 56.5t18 54t13.5 43.5t5 24.5q0 4 -2 7q-9 16 -24.5 28t-21.5 30q-2 6 -4 12.5t-2 11.5
q0 8 4.5 14t9.5 6q11 0 27 -7t30 -7q3 0 11 2.5t12 11.5q22 53 41 98t38 85.5t38.5 78t42.5 74.5q6 10 23 16t28 6q21 0 34 -17q8 -11 8 -20q0 -8 -4.5 -15t-9.5 -14.5t-10 -14.5t-6 -14q-1 -9 -4 -16q-10 -20 -25.5 -40t-31.5 -41t-30 -43t-21 -47q-2 -8 -4 -14t-7 -16
l-6 -12t-7.5 -17t-6.5 -17t-3 -13t7 -5q11 0 34 5t63 21q45 18 67 30t31 31q11 23 22.5 29t31.5 6q7 0 15 -1.5t14 -6.5q4 -3 6 -6t2 -10q0 -20 -7 -35.5t-16.5 -29.5t-20.5 -29t-20 -33q-7 -14 -15 -33t-16 -38.5t-15.5 -38.5t-12.5 -32q-13 -34 -18.5 -60t-5.5 -38
q0 -8 3 -20t15 -12q8 0 15 1.5t15 5t18 10t25 17.5q18 13 26.5 17.5t20.5 4.5q6 0 13 -1.5t12 -5.5t5.5 -7.5t0.5 -6.5q0 -9 -4.5 -14.5t-11.5 -12.5l-41 -38q-17 -16 -43 -31.5t-60 -15.5q-11 0 -22.5 6.5t-22 18t-18.5 25.5t-12 28q-3 10 -4 20.5t-1 21.5q0 19 3.5 37
t12.5 44q7 20 18 51.5t33 79.5q7 15 7 20q0 3 -3 3q-2 0 -5.5 -1.5t-15.5 -6.5q-5 -2 -16 -6t-24 -8.5t-25.5 -8.5t-21.5 -7q-26 -8 -40.5 -14.5t-20.5 -12.5z" />
    <glyph glyph-name="fl" unicode="fl" horiz-adv-x="500" 
d="M410 -17q-3 0 -18 4.5t-32 13t-32 23t-19 35.5q-3 16 -3 34q0 35 13 70.5t30 78.5q6 16 14.5 36t12.5 28q8 19 10 23t2 6q0 3 -3 3q-2 0 -5 -1t-12 -5q-11 -5 -31 -11.5t-32 -10.5q-35 -11 -53 -18t-29 -15q-6 -4 -9 -13q-17 -50 -34.5 -99.5t-32.5 -100.5t-26 -103.5
t-16 -108.5q-1 -9 -9 -17.5t-19 -11.5q-8 -2 -18 -6.5t-13 -4.5q-9 0 -13.5 3.5t-11.5 8.5q-2 2 -4.5 15t-2.5 24q0 29 9.5 55t17.5 52q2 5 5 17.5t5 21.5q2 13 9 36t15.5 50.5t18 56.5t18 54t13.5 43.5t5 24.5q0 4 -2 7q-9 16 -24.5 28t-21.5 30q-2 6 -4 12.5t-2 11.5
q0 8 4.5 14t9.5 6q11 0 27 -7t30 -7q3 0 11 2.5t12 11.5q22 53 41 98t38 85.5t38.5 78t42.5 74.5q6 10 21.5 15t29.5 5q20 0 31 -12.5t11 -22.5q0 -20 -8.5 -40.5t-36.5 -54.5q-14 -17 -29 -37.5t-27.5 -40.5t-22.5 -37.5t-14 -29.5q-3 -8 -6.5 -16.5t-8.5 -18.5l-6 -12
t-7.5 -17t-6.5 -17t-3 -13t5 -5q12 0 36 5t66 22q25 10 43 21.5t38 36t47 67t69 115.5q6 10 12 26t13.5 32t18 27.5t24.5 11.5q11 0 18 1t15 1t14.5 -2.5t11.5 -8.5q8 -12 8 -28q0 -18 -10 -35q-34 -55 -70 -108.5t-69.5 -107t-63.5 -108.5t-52 -113q-12 -31 -25 -60.5
t-13 -62.5q0 -9 1 -18t4 -19q2 -7 7.5 -9.5t11.5 -2.5q11 0 19 5q18 12 35.5 31t34.5 36.5t34 30.5t34 13q6 0 20 -5.5t14 -17.5q0 -10 -6 -15t-14 -13q-19 -21 -37 -44t-37.5 -42.5t-42.5 -31.5t-51 -12z" />
    <glyph glyph-name=".notdef" horiz-adv-x="500" 
 />
    <glyph glyph-name=".null" horiz-adv-x="0" 
 />
    <glyph glyph-name="nonmarkingreturn" horiz-adv-x="500" 
 />
    <glyph glyph-name="space" unicode=" " horiz-adv-x="246" 
 />
    <glyph glyph-name="exclam" unicode="!" horiz-adv-x="320" 
d="M201 82q8 -1 11 -5.5t3 -9.5q0 -7 -1 -15.5t-6 -22.5t-12.5 -26.5t-19.5 -12.5q-5 0 -13 -0.5t-26 -0.5q-6 0 -11.5 7t-10 17t-7 20.5t-2.5 17.5q0 8 2 13.5t7 14.5q3 5 5 14.5t16 9.5q10 0 18 -3t15 -7t14.5 -7t17.5 -4zM344 626q11 -3 18.5 -10.5t7.5 -14.5
q0 -28 -12 -50t-19 -44q-13 -41 -24 -81t-22.5 -79t-24.5 -77.5t-30 -76.5q-5 -12 -13 -12q-11 0 -15.5 4t-5.5 8q-2 10 -6.5 16t-9.5 10t-8.5 8t-3.5 9t0.5 8.5t2.5 9.5q5 14 6.5 22t4.5 21q9 36 18 69.5t18 66t17 66t14 70.5q2 12 4.5 26t7.5 26t12.5 20t18.5 8
q6 0 10.5 -3.5t11.5 -5.5q10 -2 13 -7t9 -7z" />
    <glyph glyph-name="quotedbl" unicode="&#x22;" horiz-adv-x="350" 
d="M351 557q4 16 7.5 32t6 29.5t4 23t1.5 11.5q0 9 5 13.5t19 4.5q9 0 19 -1.5t17 -9.5q10 -12 16.5 -17t6.5 -16q0 -9 -3.5 -24.5t-8 -31.5t-9 -28.5t-5.5 -16.5l-36 -141q-2 -7 -10 -12t-11 -5q-14 0 -20 1.5t-14 4.5q-13 4 -21 20q-2 4 -2 8q0 1 2 8.5t4 17t4.5 19
t3.5 14.5l24 96v0zM203 576q6 26 9 45.5t5 37.5q1 10 6 15t19 5q8 0 13.5 -6t18.5 -8q19 -3 23.5 -11.5t4.5 -17.5q0 -11 -8.5 -38.5t-16.5 -62.5l-32 -137q-2 -8 -12.5 -14t-16.5 -6q-8 0 -16.5 3.5t-16.5 3.5q-5 0 -14 9t-9 15q0 9 3 13t5 13l35 141v0z" />
    <glyph glyph-name="numbersign" unicode="#" horiz-adv-x="650" 
d="M316 243q3 0 14.5 1t23.5 1.5t22.5 1.5t12.5 1q9 0 12.5 3.5t8.5 15.5l24 60q2 4 3.5 8.5t1.5 7.5q0 6 -9 6q-1 0 -11 -0.5t-22.5 -1t-24 -1t-15.5 -0.5q-10 0 -13 -2.5t-8 -14.5l-24 -63q-5 -12 -5 -16q0 -7 9 -7zM578 252q4 0 11 -0.5t14 -1.5t12 -2.5t5 -2.5
q3 -11 7 -11.5t4 -5.5q0 -11 -3.5 -16.5t-4.5 -14.5q-1 -8 -6.5 -13t-11.5 -5q-27 0 -50.5 1.5t-33.5 1.5q-11 0 -27 -0.5t-22 -0.5q-8 0 -12 -3t-9 -15q-13 -35 -26.5 -65t-31.5 -72q-14 -32 -22.5 -49t-16.5 -17t-18 1t-14 4q-8 7 -14 10.5t-6 10.5q0 8 2.5 16.5t5.5 16.5
q5 14 10.5 21.5t7.5 14.5l38 97q5 12 5 16q0 6 -9 6q-2 0 -13 -0.5t-23.5 -1.5t-23.5 -1.5t-13 -0.5q-7 0 -11 -2t-9 -13q-14 -33 -27 -65t-28 -64q-16 -34 -23.5 -50t-15.5 -16q-15 0 -18 2.5t-14 2.5q-12 0 -16 7t-4 14q0 13 8 33q4 10 12 26.5t22 50.5l21 53q5 12 5 16
q0 6 -9 6q-22 0 -37.5 -1t-27 -2t-20 -2t-16.5 -1q-15 0 -15 15v6t2 7q2 4 2 6q0 3 -1.5 5t-1.5 5t1 6.5t6 10.5q7 9 11.5 11t12.5 3q3 0 15 0.5t27 0.5h31h30q15 0 19.5 5.5t9.5 15.5l26 62q2 6 3.5 9.5t1.5 6.5q0 6 -9 6q-20 0 -32 -0.5t-20.5 -1t-15.5 -1t-17 -0.5
q-27 0 -34 3t-7 13q0 5 5 16t6 19q2 14 11 19.5t17 5.5q18 0 28 -0.5t19 -1t22 -1t38 -0.5q14 0 19 4.5t10 17.5l54 137q8 22 15.5 38.5t12.5 21.5q8 8 17 9.5t13 1.5q5 0 11 -3t14 -3q12 0 18 -9.5t6 -15.5q0 -11 -1 -14.5t-4 -7.5q-10 -14 -16 -22t-10 -16
q-12 -25 -24.5 -54t-26.5 -61q-5 -12 -5 -16q0 -3 3 -4.5t6 -1.5q2 0 12.5 0.5t22.5 1t23 1t14 0.5q11 0 15 3.5t9 17.5l53 133q8 21 17 34.5t11 27.5q1 9 23 9q10 0 21.5 -3.5t16.5 -7.5q6 -4 12.5 -9t6.5 -11q0 -11 -1 -14.5t-4 -7.5q-10 -14 -19.5 -29t-13.5 -23
q-5 -11 -12 -25t-13.5 -28.5t-11.5 -26t-6 -15.5q-5 -13 -5 -17q0 -5 9 -5q3 0 13 0.5t22.5 1.5t25.5 1.5t23 0.5q20 0 28.5 -0.5t9.5 -3.5q2 -5 4.5 -13t2.5 -13t-2 -8t-4.5 -5t-5.5 -4t-4 -6q-5 -13 -10.5 -16.5t-7.5 -3.5h-33q-9 0 -21.5 -0.5t-25.5 -0.5t-24.5 -0.5
t-18.5 -0.5q-6 0 -9.5 -2t-8.5 -13q-14 -32 -26 -64q-5 -12 -5 -16q0 -6 9 -6h82z" />
    <glyph glyph-name="dollar" unicode="$" horiz-adv-x="462" 
d="M296 214q-7 -20 -14 -41.5t-12.5 -40t-10 -33.5t-7.5 -22q-2 -5 -3 -11t-1 -8q0 -4 11 -9t36 -5q21 0 35 9t14 30q0 38 -9 71.5t-24 68.5q-2 5 -3.5 6.5t-3.5 1.5t-2.5 -2t-5.5 -15zM265 535q0 -11 5.5 -29t14.5 -42q5 -14 10 -14q2 0 6 14q8 29 17.5 55.5t19.5 53.5
q2 6 2.5 9t0.5 5q0 4 -10 8t-24 4q-23 0 -32.5 -17t-9.5 -47zM439 513q-7 7 -9 9.5t-2.5 5t-2 5.5t-7.5 12t-11 9q-3 0 -6 -8q-5 -13 -9 -25.5t-9 -29.5q-6 -20 -13.5 -40.5t-14 -39t-10.5 -32.5t-4 -20q0 -5 6 -17l26 -57q12 -27 23 -51t19 -47.5t12.5 -48.5t4.5 -53
q0 -31 -17 -54t-44 -39q-4 -2 -22.5 -6t-46.5 -4q-31 0 -48 4.5t-21 4.5q-2 0 -3.5 -1t-2.5 -6q0 -2 -0.5 -8.5l-1 -13t-1 -12.5t-0.5 -8q0 -9 -4 -15.5t-10 -10.5t-12.5 -6t-10.5 -2q-13 0 -18.5 2.5t-18.5 2.5q-8 0 -11.5 7t-3.5 17q0 13 5.5 29t13.5 40q2 6 2 8
q0 6 -8 10q-23 12 -40.5 27.5t-29.5 30.5q-8 10 -18 18.5t-19 20t-15 29t-6 44.5q0 6 7.5 18t15.5 13q6 1 12 1.5t10 0.5q11 0 16 -2.5t13 -4.5q11 -3 25 -11.5t14 -19.5q0 -6 -0.5 -9t-1.5 -5.5t-1.5 -6t-0.5 -11.5q0 -3 3 -12.5t10 -19.5q4 -5 11.5 -13t16.5 -15
q7 -5 12 -5q2 0 5 10q11 42 29 95t34 107q2 5 3 10t1 9q0 8 -8 26q-28 62 -44.5 103t-16.5 75q0 24 5 41t13 30t19 23t23 20q25 21 68 21q19 0 30.5 -3t15.5 -3q9 0 12 11q15 42 16 52q1 6 7 9t13.5 5t16 2.5t14.5 0.5t19.5 -4t13.5 -14t-5 -19t-5 -18q0 -6 -4 -13.5
t-9.5 -15t-9.5 -14t-4 -9.5q0 -5 7 -9q43 -25 64 -51.5t26 -33.5q3 -5 3 -11q0 -11 -10 -21q-7 -7 -14.5 -10.5t-12.5 -8.5q-2 -2 -6 -2q-5 0 -9 2.5t-9 2.5q-14 0 -20.5 9.5t-13.5 16.5z" />
    <glyph glyph-name="percent" unicode="%" horiz-adv-x="780" 
d="M652 247q-9 4 -12 13t-15 9q-9 0 -14.5 -3t-13.5 -15q-32 -48 -49 -89t-17 -77q0 -4 0.5 -12.5t4 -17.5t10.5 -15.5t19 -6.5q14 0 24.5 7.5t16.5 19.5q31 61 45 95.5t14 63.5q0 8 -4 17t-9 11zM356 578q-9 3 -11.5 7.5t-3 9t-3 8t-12.5 3.5q-9 0 -15 -3t-13 -12
q-31 -42 -49 -82.5t-18 -70.5q0 -11 1.5 -23t6 -21.5t13 -15.5t22.5 -6q11 0 18.5 6t18.5 25q18 30 28.5 51.5t16.5 38t8 30.5t2 29q0 8 -2.5 16t-7.5 10zM741 213q0 -51 -15 -92t-42 -83q-14 -21 -38 -36t-66 -15q-21 0 -47 5.5t-45 26.5q-17 19 -27 38.5t-10 37.5
q0 36 10 68t30 67q15 25 28 42.5t26.5 28t29 15.5t35.5 5q29 0 49.5 -9.5t37.5 -18.5q22 -11 33 -33.5t11 -46.5zM445 561q-3 0 -3 -2v-8q0 -47 -16.5 -94t-48.5 -86q-17 -21 -38.5 -36.5t-52.5 -15.5q-42 0 -66 18t-41 41q-13 17 -20 34.5t-7 38.5q0 22 9.5 50.5t29.5 68.5
q9 17 22 33.5t29.5 29.5t36 21t42.5 8q20 0 30 -4.5t12 -6.5t10.5 -7t16.5 -7q38 -11 59.5 -14.5t33.5 -3.5q46 0 80.5 5.5t49.5 24.5q3 4 7.5 8t9.5 4q12 0 20.5 -1.5t16.5 -7.5q9 -6 12.5 -10.5t3.5 -15.5q0 -24 -4 -31t-13 -14q-10 -8 -21 -21t-30 -42l-280 -443
q-14 -22 -31 -48t-27 -40q-7 -10 -17 -12t-15 -2q-6 0 -16.5 3.5t-16.5 8.5q-5 4 -7 9t-2 20q0 19 2 23.5t7 6.5q2 1 8 5t11 12q10 16 14.5 19.5t8 5.5t9.5 9.5t20 30.5q36 59 66.5 108.5t60 98t62 100t73.5 115.5q4 5 4 9t-3 4q-5 0 -21 -3q-7 -2 -15 -2h-21
q-11 0 -26.5 2.5t-17.5 2.5z" />
    <glyph glyph-name="ampersand" unicode="&#x26;" horiz-adv-x="528" 
d="M324 418q17 17 32 35t25 37q6 11 8.5 20.5t4.5 14.5q3 7 5.5 14t2.5 13q0 8 -4.5 14t-12.5 6q-2 0 -8 -1t-13.5 -4t-15 -8.5t-13.5 -14.5q-10 -17 -19.5 -33t-9.5 -46q0 -11 0.5 -20t2.5 -21q1 -13 5 -13q3 0 10 7zM235 234q-17 -17 -31.5 -36.5t-25.5 -33.5
q-4 -5 -9.5 -12.5t-10.5 -16.5t-8.5 -19.5t-3.5 -20.5q0 -13 9.5 -18.5t26.5 -5.5q12 0 46 8t81 29q9 4 11 5.5t2 5.5q0 2 -1.5 6t-3.5 12l-39 120q-2 7 -3 8t-3 1t-8 -4.5t-29 -27.5zM247 357q-10 46 -11.5 70.5t-1.5 28.5q0 11 1.5 23.5t3.5 22.5q14 65 49.5 95.5
t73.5 30.5q14 0 27.5 -1t24.5 -7q10 -5 14.5 -11t10.5 -11q14 -11 22.5 -24t8.5 -30q0 -16 -4.5 -33.5t-12.5 -40.5q-7 -20 -34.5 -50.5t-72.5 -75.5q-9 -9 -9 -16q0 -3 4 -16q11 -39 22.5 -73t23.5 -71q2 -7 3.5 -8t3.5 -1q3 0 11 7q11 9 17 15t13 11q10 8 17 13t16 10
q11 8 16.5 9.5t11.5 1.5q7 0 9.5 -1t4.5 -8t3 -12.5t1 -19.5q0 -23 -6 -34t-22 -19q-6 -3 -9.5 -6t-8 -6.5t-12.5 -9.5t-23 -15q-8 -5 -10.5 -7.5t-2.5 -6.5q0 -7 2 -12q5 -14 9.5 -26.5t10.5 -27.5q7 -17 7 -23q0 -8 -7 -8t-14 3t-14 3q-4 0 -5 -2t-9 -2q-12 0 -22.5 7.5
t-11.5 12.5q-2 8 -5.5 13.5t-5.5 13.5q-5 12 -9 12q-5 0 -14 -5q-16 -8 -33 -15.5t-28 -10.5q-8 -2 -20 -4.5t-24.5 -4.5t-24 -3.5t-18.5 -1.5q-19 0 -30.5 1.5t-22.5 5.5q-22 7 -32 24.5t-20 28.5q-6 7 -11.5 18t-5.5 27q0 8 2 20t7 23q20 42 45 71t57 60q7 8 18.5 18.5
t22.5 20t19 17t10 9.5q3 4 3.5 6.5t0.5 6.5z" />
    <glyph glyph-name="quotesingle" unicode="'" horiz-adv-x="232" 
d="M212 561q7 29 10.5 51.5t5.5 44.5q1 11 5 17t21 6q12 0 19 -7.5t15 -9.5q20 -4 24 -13.5t4 -19.5q0 -16 -11 -46t-19 -71l-24 -114q-2 -8 -13 -15.5t-18 -7.5q-5 0 -14.5 4t-19.5 4q-5 0 -14 10.5t-9 17.5q0 11 3.5 15t5.5 15l29 119v0z" />
    <glyph glyph-name="parenleft" unicode="(" horiz-adv-x="330" 
d="M353 694q5 6 8.5 8.5t7.5 4.5t8.5 5t12.5 11q7 7 13 8.5t14 1.5q9 0 15.5 -5t10.5 -12t6 -14.5t2 -11.5q0 -3 -1.5 -11t-3.5 -18t-4.5 -20t-4.5 -17q-5 -16 -26 -16q-14 0 -20.5 -3t-18.5 -18q-22 -28 -43 -61.5t-39 -66.5t-32 -62t-22 -48q-27 -66 -41.5 -136.5
t-14.5 -132.5v-13q0 -8 0.5 -17.5t1.5 -18.5t2 -14q2 -11 7 -19.5t10 -16t9 -15t4 -17.5q0 -5 -0.5 -12.5t-4 -14.5t-10.5 -12.5t-20 -5.5q-5 0 -13 5.5t-14 6.5q-11 1 -19.5 17t-13.5 37.5t-7.5 45.5t-2.5 41q0 60 5.5 108t18.5 100q9 34 26 83.5t44 107t64.5 118.5
t85.5 120z" />
    <glyph glyph-name="parenright" unicode=")" horiz-adv-x="330" 
d="M263 632q-3 11 -7 17.5t-8 12t-7 12t-3 17.5q0 12 2 16.5t8 6.5q5 1 8.5 4t7 6.5t9 6t14.5 2.5q14 0 25 -7.5t18 -15.5q5 -6 9.5 -19.5t8.5 -50.5q3 -27 4 -56.5t1 -43.5q0 -51 -6 -108t-20 -115t-36.5 -114t-55.5 -107q-32 -50 -71 -94.5t-90 -83.5q-10 -8 -16 -9.5
t-14 -1.5q-11 0 -21 7t-10 14q0 12 -7 20t-7 16q0 10 12 15t19 12q30 30 41 30q5 0 10 3t16 14q15 15 27 27.5t23 28.5t23.5 37t29.5 53q42 79 56.5 154.5t14.5 156.5q0 24 -1 47t-2 41.5t-2.5 31t-2.5 17.5z" />
    <glyph glyph-name="asterisk" unicode="*" horiz-adv-x="414" 
d="M274 540q-5 13 -9.5 26t-10.5 25q-14 27 -14 40q0 7 4 12q5 7 13.5 11t11.5 7q8 8 10.5 9t10.5 1t11.5 -8t5.5 -14q5 -11 8 -23t5 -22q2 -7 4 -13.5t4 -12.5q3 -11 4 -14t3 -3t4.5 2.5t7.5 10.5q3 5 9 12.5t12.5 15.5t12 15t7.5 10q11 17 18.5 24t16.5 7h20q4 0 9.5 -0.5
t9.5 -2.5q5 -2 11.5 -4.5t6.5 -8.5q0 -5 -3 -11.5t-8 -12.5q-11 -14 -16.5 -18.5t-10.5 -10.5q-11 -11 -20 -22.5t-19 -23.5q-7 -8 -8.5 -10.5t-1.5 -3.5q0 -2 2 -2h4q3 0 9 2q8 2 20.5 4t24.5 4t21.5 3t11.5 1q20 0 25.5 -4t5.5 -9q0 -10 1 -10q2 0 2 -8q0 -7 -3 -11.5
t-5 -10.5q-2 -3 -6 -8t-11 -5q-12 0 -18 -0.5t-9 -0.5q-23 0 -46.5 -4.5t-31.5 -5.5q-13 -1 -13 -4q0 -1 1 -3.5t5 -7.5q3 -4 8.5 -13.5t11 -20t11 -19t8.5 -10.5q10 -8 10 -23q0 -8 -8.5 -14.5t-12.5 -11.5q-8 -10 -18 -10q-8 0 -14 8q-4 5 -15 20t-33 56q-7 13 -8 15t-3 2
t-3.5 -2.5l-10.5 -17.5t-15 -23.5t-14 -27.5q-3 -7 -7.5 -12t-15.5 -11q-4 -2 -9.5 -3t-19.5 -1q-7 0 -18.5 7t-11.5 16q0 5 2.5 7.5t4.5 6.5q17 25 30.5 45.5t27.5 40.5q2 2 3.5 4.5t1.5 4.5t-5 2.5t-22 1.5q-22 1 -35 1t-35 3q-10 1 -14 4q-6 4 -7 8.5t-1 9.5q0 13 2 17
t2 11q0 4 2.5 6t4.5 5q3 5 7.5 6.5t8.5 1.5q7 0 7 -1t5 -2q13 -2 35 -3t32 -2q8 -1 14.5 -1.5t7.5 -0.5q2 0 2 3q0 2 -2 8z" />
    <glyph glyph-name="plus" unicode="+" horiz-adv-x="590" 
d="M381 304q6 1 11 1h11q7 0 23.5 1.5t34.5 4t33.5 4t21.5 1.5q23 0 37 -14q3 -3 3.5 -5t0.5 -7q0 -11 -4.5 -20.5t-8.5 -19.5t-10 -10q-4 0 -7.5 1t-7.5 1q-6 0 -14.5 -0.5t-14.5 -1.5q-18 -2 -38.5 -4t-38.5 -3.5t-32.5 -3t-21.5 -2.5q-9 -1 -11 -8q-8 -22 -17.5 -62.5
t-16.5 -84.5q-2 -15 -7 -23t-27 -8q-4 0 -9.5 -3t-8.5 -3q-17 0 -22.5 5.5t-5.5 8.5q0 20 2.5 35.5t7 30.5t9 30.5t9.5 36.5l7 31q0 6 -5 6h-38q-11 0 -25.5 1t-28.5 2.5t-25 3t-15 3.5q-8 3 -13 18t-5 39q0 6 9 13q8 7 18 7h6t8 -2q6 -2 19 -3t26.5 -2t25.5 -1h19h27
q22 0 24 7q3 8 7.5 22.5t9 30t8.5 28.5t5 18q7 29 12.5 41t10.5 14q18 5 26.5 9t15.5 4q6 0 15.5 -2t11.5 -4q5 -5 5 -10q0 -2 -1.5 -6t-2.5 -7l-11 -35q-5 -15 -8.5 -26.5l-7 -23t-7 -23.5t-8.5 -27q0 -4 4 -4z" />
    <glyph glyph-name="comma" unicode="," horiz-adv-x="260" 
d="M61 9q3 5 9.5 17t14 26t14.5 28l12 24q7 13 13 17t20 4q19 0 33 -20q9 -14 15 -19t6 -17q0 -5 -3 -9l-130 -198q-5 -8 -13.5 -14t-10.5 -6q-10 0 -19 3q-2 1 -9 2.5t-10 1.5q-6 0 -11.5 9t-5.5 14q0 2 1 6.5t6 13.5l68 117v0z" />
    <glyph glyph-name="hyphen" unicode="-" horiz-adv-x="456" 
d="M423 243q-5 -5 -21 -6t-34 -6q-4 -1 -12 -1.5t-18 -1t-21 -0.5h-19q-23 0 -46.5 1t-44.5 2.5t-37 3t-23 1.5t-12.5 7.5t-10.5 20.5q-2 6 -4 12.5t-2 13.5t3 13q4 7 16.5 9.5t19.5 2.5q45 0 84 -2t84 -2q16 0 38.5 2t36.5 2q37 0 37 -18q0 -23 -2 -33.5t-12 -20.5z" />
    <glyph glyph-name="hyphen" unicode="&#xad;" horiz-adv-x="456" 
d="M423 243q-5 -5 -21 -6t-34 -6q-4 -1 -12 -1.5t-18 -1t-21 -0.5h-19q-23 0 -46.5 1t-44.5 2.5t-37 3t-23 1.5t-12.5 7.5t-10.5 20.5q-2 6 -4 12.5t-2 13.5t3 13q4 7 16.5 9.5t19.5 2.5q45 0 84 -2t84 -2q16 0 38.5 2t36.5 2q37 0 37 -18q0 -23 -2 -33.5t-12 -20.5z" />
    <glyph glyph-name="period" unicode="." horiz-adv-x="284" 
d="M218 74q0 -6 -3 -19t-5 -20q-5 -13 -9.5 -20t-11.5 -12q-8 -7 -17 -8t-20 -1q-8 0 -22.5 7.5t-27.5 27.5q-5 7 -6.5 13t-1.5 10q0 5 2.5 11t5.5 9q11 11 13 27q1 15 10 25q5 5 12.5 6.5t20.5 1.5q17 0 31.5 -10t20.5 -21q5 -10 6.5 -16t1.5 -11z" />
    <glyph glyph-name="slash" unicode="/" horiz-adv-x="400" 
d="M523 653q0 -11 -2.5 -17t-10.5 -14q-17 -18 -25.5 -23.5t-15.5 -15.5q-38 -56 -81 -127.5t-87 -148.5t-86.5 -153.5t-79.5 -140.5q-25 -43 -44 -67t-24 -24q-12 0 -18 1t-14 6q-11 7 -16.5 13t-5.5 15q0 5 5 18.5t13 27.5q5 9 16 24t18 26l316 547q7 13 17 26.5
t19.5 25.5t16.5 20t9 10q8 6 17 9.5t14 3.5q6 0 14 -4.5t16 -10.5t13.5 -13.5t5.5 -13.5z" />
    <glyph glyph-name="zero" unicode="0" horiz-adv-x="440" 
d="M403 452q0 13 -4.5 26.5t-12.5 24t-18 17.5t-20 7q-11 0 -21 -11q-51 -58 -93.5 -125t-71.5 -144q-9 -23 -10 -33.5t-3 -17.5q-5 -20 -9.5 -39.5t-4.5 -40.5q0 -3 1 -10.5t2.5 -16.5t3 -16.5t3.5 -10.5q4 -5 11 -16t20 -11q9 0 21.5 5t28 18t34.5 36t41 60q5 9 13.5 21
t13.5 25q13 31 26.5 61t24 60.5t17.5 62.5t7 68zM386 577q3 0 13 -3.5t22 -9.5t23 -13.5t15 -15.5q13 -25 18.5 -53t5.5 -59q0 -51 -14 -99t-32 -94q-3 -7 -6.5 -17.5t-12 -29t-24 -46.5t-42.5 -70q-30 -47 -71 -73t-75 -26q-9 0 -27 6.5t-37.5 18.5t-38 28.5t-28.5 37.5
q-2 3 -8.5 27.5t-6.5 54.5q0 17 4 42t11 53.5t17 59t23 57.5q29 63 71 119t91 113q5 6 15.5 7t25.5 1q7 0 13 -2.5t18 -10.5q13 -8 20 -8q6 0 6.5 2.5t10.5 2.5z" />
    <glyph glyph-name="one" unicode="1" horiz-adv-x="440" 
d="M340 416q-50 -61 -86.5 -103t-62 -70.5t-42 -45.5t-26.5 -26t-14.5 -13.5t-6.5 -7.5q-3 -5 -11 -6.5t-16 -1.5q-11 0 -13.5 2.5l-4.5 4.5q-5 3 -11 6.5t-9 7.5q-10 11 -12.5 17t-2.5 8q0 4 21 24q24 22 38 33t24 17.5t18.5 14t22.5 22.5q46 51 97 109.5t100 118.5
q8 10 20 26t23.5 32.5t20.5 30t11 17.5q4 8 6.5 10t13.5 2q18 0 36.5 -6.5t26.5 -23.5q2 -4 2 -9q0 -6 -3 -13q-48 -121 -79 -249.5t-63 -257.5q-3 -12 -7 -27t-4 -35q0 -4 -1 -11t-3.5 -14.5t-7.5 -13t-13 -5.5q-10 0 -14.5 -1.5t-11.5 -1.5q-29 0 -45 14q-4 4 -4 16
q0 9 1.5 19.5t3.5 18.5q4 20 10 30.5t10 25.5q19 74 39 148.5t37 148.5q2 5 3 11.5t1 8.5q0 5 -3 5q-2 0 -3 -1z" />
    <glyph glyph-name="two" unicode="2" horiz-adv-x="440" 
d="M164 223q68 65 113.5 117.5t72.5 94.5t38.5 74t11.5 55q0 10 -7 12.5t-18 2.5q-18 0 -39 -10.5t-39 -25t-30 -28t-12 -19.5q0 -3 -11.5 -13.5t-16.5 -21.5t-12 -15.5t-18 -4.5q-8 0 -13.5 -2t-9.5 -2q-1 0 -6 2.5t-11 8t-10.5 13.5t-4.5 20q0 10 0.5 15.5t3 10.5t7.5 12
t14 19q19 25 40 40t50 32q17 10 31 16.5t28 9.5t29.5 4t35.5 1q12 0 29 -9t32.5 -22t26.5 -27.5t11 -25.5q0 -49 -18.5 -95.5t-48 -89.5t-67 -82.5t-74.5 -75.5t-70 -69t-55 -62q-7 -9 -8.5 -12t-1.5 -5q0 -5 13 -11q8 -4 27.5 -5t42.5 -1q46 0 70 4.5t41 21.5
q16 16 20.5 32t16.5 32q6 8 17.5 11t25.5 3q8 0 14 -4.5t16 -13.5q5 -5 5 -16q0 -6 -3.5 -21t-8.5 -32t-11.5 -33t-12.5 -23q-7 -9 -19 -14.5t-32 -9t-51 -5t-76 -1.5q-25 0 -51.5 0.5t-50.5 2t-42.5 5.5t-27.5 11q-20 17 -29 32.5t-9 31.5q0 4 4 12.5t19 26t43 46.5t76 75z
" />
    <glyph glyph-name="three" unicode="3" horiz-adv-x="440" 
d="M461 588q4 -8 5 -12t1 -6q0 -10 -3.5 -19.5t-7.5 -18.5q-3 -8 -4.5 -13.5t-4.5 -10.5q-30 -53 -61 -92t-53 -60q23 0 49.5 -11.5t41.5 -37.5q6 -11 10 -24t4 -41q0 -29 -11 -62.5t-26 -64.5q-14 -29 -30.5 -56t-38 -48t-49 -33.5t-62.5 -12.5q-25 0 -50 11.5t-48 28.5
t-43 37t-34 37q-8 10 -7.5 11.5t-2.5 7.5t-3.5 9t-0.5 5q0 6 4 13t20 7q7 0 13 -0.5t15 -0.5q2 0 5 1t6 1q6 0 9 -1.5t7 -5.5q10 -11 21.5 -20t11.5 -19q0 -5 6.5 -13.5t17.5 -17t24 -15t27 -6.5q13 0 21 5q30 19 52 46t40 69q4 10 9 23t9 25t6.5 21.5t2.5 13.5
q0 14 -3.5 23.5t-8.5 16.5q-7 10 -15.5 13t-15.5 3q-10 0 -18.5 -2.5t-12.5 -4.5q-5 -2 -11 -2q-5 0 -19 -8q-21 -11 -41.5 -22.5t-44.5 -11.5q-5 0 -13 1.5t-10 3.5q-8 8 -12.5 20t-4.5 18q0 4 16 15t30 19t18.5 13.5t7.5 7.5q41 27 71 58.5t50.5 61t32 54.5t16.5 38
q2 7 2.5 9t0.5 4q0 3 -3 3q-4 0 -10.5 -1t-15.5 -6q-12 -6 -29.5 -16t-33.5 -21t-27 -22t-11 -18q0 -14 -9.5 -18t-17.5 -12q-4 -4 -15.5 -5t-22.5 -1q-4 0 -9 5.5t-9 13t-7 14t-3 8.5q0 15 6.5 26.5t16 20.5t21 17t20.5 17q3 3 13 5q15 3 24 9.5t21 12.5q21 11 46.5 22
t51.5 11q14 0 25.5 -3t16.5 -7q8 -5 12.5 -7t7.5 -3q11 -3 18 -10t10 -13z" />
    <glyph glyph-name="four" unicode="4" horiz-adv-x="440" 
d="M339 496q-2 0 -4 -1.5t-7 -6.5q-20 -20 -45.5 -48t-52.5 -60t-54 -64.5t-49 -59.5q-4 -5 -4 -9q0 -9 5 -11q14 -8 35.5 -11t44.5 -3q5 0 22.5 1.5t31.5 3.5q5 1 6 1.5t2 1.5q2 2 3 9q7 40 16.5 79t19 71.5t17 55.5t10.5 31q5 15 5 17q0 3 -2 3zM420 184
q-14 -2 -35.5 -5.5t-38.5 -7.5q-6 -13 -11 -33.5t-8.5 -41.5t-5 -39.5t-1.5 -27.5q0 -5 -1.5 -9t-2.5 -9t-3.5 -11.5t-8.5 -6.5q-20 0 -33.5 9t-27.5 17q-9 5 -9 21q0 7 2.5 21.5t6.5 37.5q3 19 6.5 33.5t3.5 16.5q0 8 -8 8q-43 2 -80.5 2.5t-80.5 17.5q-4 2 -7 4.5t-5 4.5
q-15 15 -27.5 35t-12.5 30q0 2 1 5.5t1 9.5q0 4 1 6t8 10q30 33 63 72t70.5 80t78 82t85.5 79q5 4 12.5 11t9.5 11q8 12 14 16.5t15 4.5q11 0 23 -4q5 -2 17 -9t12 -15q0 -31 -8 -47t-8 -28q0 -17 -9.5 -50.5t-21.5 -73t-23.5 -80t-15.5 -70.5q-1 -5 -1 -9v-5q0 -3 5 -3
q9 0 16.5 1.5t17 3.5t24.5 3.5t39 1.5q15 0 23 -9t16 -29q2 -6 2 -9q0 -18 -23 -18q-11 0 -28 -1.5t-28 -3.5z" />
    <glyph glyph-name="five" unicode="5" horiz-adv-x="440" 
d="M456 540h-8t-17 -1q-54 -4 -96 -11t-76 -15q-7 -2 -9 -10q-6 -20 -14.5 -47t-14.5 -48q-2 -8 -2.5 -11t-0.5 -5q0 -3 6 -3q1 0 8 3.5t18 7.5t26 7.5t31 3.5q31 0 61 -9.5t52 -41.5q15 -22 18 -46.5t3 -38.5q0 -42 -17 -83.5t-38 -80.5q-21 -38 -43.5 -65.5t-44.5 -44.5
t-42.5 -25t-36.5 -8q-27 0 -51.5 8t-46.5 21t-41.5 30t-37.5 36q-9 10 -14 15.5t-7.5 9.5t-3 6.5t-0.5 6.5q0 5 7 9t17.5 15.5t24.5 11.5q8 0 18.5 -4t12.5 -6q10 -6 15.5 -12.5t10 -14t9 -15.5t12.5 -17q21 -22 35.5 -29.5t31.5 -7.5q4 0 12 5t15 11q32 29 52.5 64t35.5 74
q5 12 6.5 21.5t9.5 32.5q5 14 8.5 27.5t3.5 26.5q0 45 -19 55q-4 2 -6.5 2.5t-12.5 0.5q-19 0 -53.5 -17.5t-76.5 -59.5q-8 -8 -12 -9.5t-7 -1.5q-16 0 -27.5 5t-22.5 11q-5 2 -9 5t-4 8q0 2 2 8q23 75 43.5 144t38.5 120q2 7 9.5 12.5t16.5 9.5t18 6.5t14 2.5
q8 0 12.5 -3.5t8.5 -3.5q2 0 12.5 1.5t26 3.5t34 4.5t37.5 5.5q14 2 29 3.5t29 3t26 2.5t19 1q12 0 32 -10t31 -25q6 -8 6 -17q0 -11 -9.5 -19t-23.5 -8q-4 0 -23 3t-37 3z" />
    <glyph glyph-name="six" unicode="6" horiz-adv-x="440" 
d="M354 221q3 5 4.5 12.5t1.5 10.5q0 5 -8 5q-4 0 -15.5 -4t-27 -11t-33 -16t-33.5 -18q-10 -6 -22.5 -15t-24.5 -18t-21 -18t-13 -15q-11 -17 -22 -30t-11 -33q0 -10 12.5 -23t23.5 -13q12 0 41.5 15.5t56.5 43.5q25 26 45.5 55t45.5 72zM464 583q4 -15 4 -23q0 -5 -5 -10
t-16 -5q-8 0 -11 0.5t-5.5 1l-5 1t-8.5 0.5q-4 0 -9.5 -4t-9.5 -7q-36 -29 -68 -62t-57.5 -67t-44 -65t-28.5 -55q-5 -13 -7 -19t-2 -8q0 -4 3 -4q4 0 12 5q7 5 16.5 11t18.5 11t15.5 9t9.5 5q32 9 53 18t46 9q13 0 27 -3.5t22 -13.5q11 -14 19.5 -24t16.5 -25q2 -4 2 -7
q0 -2 -0.5 -4l-1.5 -6q-26 -87 -78.5 -148t-114.5 -103q-9 -6 -28 -11.5t-42 -5.5q-20 0 -34 4t-23.5 9t-16 10t-9.5 7q-10 7 -20.5 14.5t-19.5 17t-14.5 21.5t-5.5 27q0 21 2.5 34t6.5 24q34 103 70.5 173t67.5 114.5t53 65.5t28 26q11 9 26 24.5t32.5 30.5t36.5 25.5
t39 10.5q10 0 20 -3.5t18.5 -8.5t13.5 -9.5t6 -7.5z" />
    <glyph glyph-name="seven" unicode="7" horiz-adv-x="440" 
d="M202 246q5 7 6 9t1 3q0 5 -9 5q-5 0 -16 0.5t-22 2t-20.5 3.5t-12.5 5q-4 4 -7 12.5t-4 10.5t-1.5 5t-0.5 11q0 2 -1 5.5t-1 5.5q0 9 5.5 13t10.5 4q4 0 10.5 -1t11.5 -3q2 -1 9 -2t15 -2.5t15.5 -2.5t10.5 -1q56 0 61 8q26 38 46 63.5t35 47t27.5 42t23.5 48.5q3 7 3 13
q0 5 -11 7.5t-27 2.5q-87 0 -125 -17t-38 -56q0 -8 -9.5 -11.5t-14.5 -3.5q-12 0 -20.5 2t-16.5 13q-8 9 -8.5 25.5t-6.5 30.5q-3 6 -3.5 12.5t-0.5 14.5q0 10 15 17.5t38 13t49.5 8.5t49.5 6q20 2 45 3.5t51 1.5q27 0 50 -2t34 -7q2 -1 10.5 -6.5t17.5 -14t16.5 -17.5
t7.5 -18t-1 -15.5t-5 -14.5t-12.5 -21.5t-23.5 -35.5q-9 -14 -22.5 -32t-27 -35.5t-23.5 -30t-12 -15.5t-2 -6q0 -4 11 -4q6 0 12.5 1t11.5 1q19 0 33 -4t26 -17q4 -4 6.5 -7t2.5 -8q0 -29 -9 -29q-7 0 -10.5 1.5t-19.5 1.5q-26 0 -41 -2t-27 -5t-25 -6.5t-35 -6.5
q-75 -108 -107 -174t-32 -94q0 -4 -1.5 -8t-6.5 -4q-8 0 -12 -8.5t-16 -8.5q-5 0 -15.5 3.5t-20.5 15.5q-7 8 -14 15t-7 12q0 9 4 23t17.5 39.5t38.5 66t66 102.5z" />
    <glyph glyph-name="eight" unicode="8" horiz-adv-x="440" 
d="M393 543q-6 0 -10 9.5t-6 16.5q-2 8 -4 8q-4 0 -9 -2q-19 -8 -31.5 -19t-25.5 -32q-8 -12 -15.5 -47t-7.5 -77q0 -11 1.5 -14.5t4.5 -3.5q2 0 11 3t35 17q21 11 47.5 21t52.5 30q14 11 14 25q0 15 -3.5 28t-14.5 23q-12 11 -19.5 14.5t-10.5 3.5q-4 0 -4.5 -2t-4.5 -2z
M196 52q6 19 8.5 39t2.5 41q0 39 -2.5 68.5t-2.5 34.5q0 8 -5 8q-3 0 -10 -3q-33 -14 -55 -38t-22 -53q0 -16 5 -31t11 -23q41 -55 60 -55q7 0 10 12zM202 354q0 10 -0.5 16t-0.5 13q0 100 26.5 168t84.5 89q8 3 13.5 3.5t13.5 0.5q13 0 25.5 -3t27.5 -8q7 -2 10 -5.5
t5.5 -7t5.5 -6.5t9 -6q16 -7 31.5 -20.5t28 -31t23 -36.5t17.5 -37q2 -4 3.5 -13t1.5 -17q0 -17 -8.5 -32.5t-28.5 -26.5q-54 -28 -103 -52.5t-102 -47.5q-2 -5 -2 -23v-14q0 -7 1 -17q3 -41 4.5 -80t1.5 -57q0 -12 -1 -33t-5 -42t-12 -37t-22 -18q-5 -1 -11.5 -3.5
t-17.5 -2.5q-18 0 -29.5 1.5t-28.5 11.5q-21 13 -44.5 32t-43 42.5t-32.5 50.5t-13 56q0 34 16.5 58.5t41 42.5t52 31.5t50.5 27.5q4 3 6.5 4.5t4 4.5t1.5 8v16z" />
    <glyph glyph-name="nine" unicode="9" horiz-adv-x="440" 
d="M437 552q-3 0 -10 -3q-37 -18 -75.5 -35.5t-75.5 -39.5t-70 -50t-60 -66q-5 -8 -6.5 -10t-1.5 -4q0 -5 4.5 -9t12.5 -4q13 0 31 6q48 16 90.5 42t75.5 54.5t55.5 56.5t30.5 49q2 6 2 10q0 3 -3 3zM530 555q0 -17 -5.5 -28.5t-16.5 -27.5q-8 -11 -13 -24q-12 -33 -27 -62
t-30.5 -58.5t-30.5 -61t-27 -70.5q-18 -57 -38.5 -111t-28.5 -111q-1 -6 -3.5 -8.5t-10.5 -7.5t-11.5 -6t-8.5 -1q-3 0 -8.5 1t-10.5 4q-11 7 -24 16.5t-13 20.5q0 2 1 5.5t7 19.5q24 64 44 120.5t43 121.5q5 15 6 18.5t1 5.5q0 3 -3 3q-1 0 -5.5 -2t-19.5 -10
q-31 -17 -41 -20q-17 -5 -24 -5q-6 0 -16 -3q-24 -8 -43 -8q-13 0 -21 2t-17 9q-6 4 -11 6.5t-10 6t-10.5 9.5t-12.5 17q-6 10 -13 17.5t-7 22.5q0 17 6 29q23 42 55.5 72t69.5 54t76 44t76 41q4 3 14 6.5t21 7.5t22.5 6.5t20.5 2.5q7 0 15.5 -1t13.5 -5q8 -7 16.5 -11.5
t22.5 -15.5q12 -10 21 -18t9 -13z" />
    <glyph glyph-name="colon" unicode=":" horiz-adv-x="290" 
d="M258 105q7 -4 11.5 -20.5t4.5 -31.5q0 -2 -0.5 -7.5t-1.5 -12t-3 -12t-5 -6.5q-13 -6 -22 -10t-21 -4q-18 0 -24 6.5t-12 14.5q-9 12 -17 17.5t-8 16.5q0 4 2 10.5t5 23.5q3 15 13 30t25 15q17 0 28.5 -11t24.5 -19zM315 335q-8 -28 -20.5 -38t-15.5 -10q-6 0 -16 2.5
t-16 4.5q-17 5 -28.5 13.5t-11.5 25.5q0 30 7.5 41.5t12.5 21.5q8 18 12.5 21t20.5 3q7 0 14.5 -2.5t23.5 -15.5q7 -5 14.5 -14t7.5 -16q0 -4 -1.5 -17.5t-3.5 -19.5z" />
    <glyph glyph-name="semicolon" unicode=";" horiz-adv-x="280" 
d="M179 107q10 -3 13.5 -11.5t3.5 -16.5v-13q0 -17 -7.5 -22.5t-11.5 -11.5q-19 -30 -35 -57.5t-32.5 -55t-33.5 -56t-37 -58.5q-6 -9 -12 -10.5t-14 -1.5q-10 0 -17 2t-16 3q-12 1 -16 12.5t-4 20.5q0 5 3.5 8.5t8.5 11.5q27 41 45.5 74.5t34.5 63.5t30.5 58t32.5 59
q5 9 7 11.5t6 4.5t5 3.5t4 1.5q13 0 25 -9t17 -11zM290 354q0 -14 -0.5 -20t-2.5 -11q-4 -11 -10.5 -23t-15.5 -12q-8 0 -24 -0.5t-27 -0.5q-23 0 -32.5 10.5t-9.5 18.5q0 11 5 32.5t15 35.5q6 9 13.5 17.5t18.5 8.5q14 0 22 -4.5t16 -14.5q8 -9 14 -14t10 -8.5t6 -6.5t2 -8
z" />
    <glyph glyph-name="semicolon" unicode="&#x37e;" horiz-adv-x="280" 
d="M179 107q10 -3 13.5 -11.5t3.5 -16.5v-13q0 -17 -7.5 -22.5t-11.5 -11.5q-19 -30 -35 -57.5t-32.5 -55t-33.5 -56t-37 -58.5q-6 -9 -12 -10.5t-14 -1.5q-10 0 -17 2t-16 3q-12 1 -16 12.5t-4 20.5q0 5 3.5 8.5t8.5 11.5q27 41 45.5 74.5t34.5 63.5t30.5 58t32.5 59
q5 9 7 11.5t6 4.5t5 3.5t4 1.5q13 0 25 -9t17 -11zM290 354q0 -14 -0.5 -20t-2.5 -11q-4 -11 -10.5 -23t-15.5 -12q-8 0 -24 -0.5t-27 -0.5q-23 0 -32.5 10.5t-9.5 18.5q0 11 5 32.5t15 35.5q6 9 13.5 17.5t18.5 8.5q14 0 22 -4.5t16 -14.5q8 -9 14 -14t10 -8.5t6 -6.5t2 -8
z" />
    <glyph glyph-name="less" unicode="&#x3c;" horiz-adv-x="590" 
d="M451 115q10 0 19 -8t9 -17q0 -5 -1.5 -8t-4.5 -6t-7.5 -8t-11.5 -13t-17.5 -12t-16.5 -4q-13 0 -30.5 7.5t-51.5 26.5q-19 10 -36 20.5t-38 24t-48.5 31t-67.5 42.5q-12 8 -15 13t-3 15q0 5 2 11t5 14q2 4 3.5 5.5l3 3t3 4t4.5 9.5q1 4 4 7.5t9.5 8.5t18 11.5t29.5 17.5
q32 18 77.5 43.5t86.5 50.5q30 18 48.5 29t29 16.5t16 7.5t10.5 4q8 2 13.5 5.5t14.5 3.5q11 0 19.5 -9t8.5 -18q0 -5 4.5 -12.5t4.5 -12.5q0 -3 -3 -13t-7 -10q-5 0 -14.5 -4t-36.5 -21q-5 -3 -8.5 -4t-8.5 -2.5t-13 -5t-22 -10.5q-15 -8 -37.5 -20.5t-45 -25.5t-41.5 -24
t-29 -17q-23 -14 -33 -20t-10 -9q0 -2 2 -4.5t11 -7.5q5 -3 18.5 -11.5t30 -19t34 -21.5t31.5 -18q22 -12 36.5 -19t23.5 -11t15.5 -5t12.5 -1z" />
    <glyph glyph-name="equal" unicode="=" horiz-adv-x="590" 
d="M358 239q24 0 45 2t56 7q20 3 37 4t23 1q11 0 17 -1.5t12 -6.5q4 -3 7.5 -8t3.5 -8q-1 -11 -4.5 -22.5t-6.5 -22.5q-2 -7 -9 -7q-6 0 -12 1t-12 1h-10t-10 -1q-45 -8 -97 -11t-92 -3h-28q-20 0 -41.5 0.5t-39.5 1t-31 1.5t-15 3q-8 5 -18.5 20t-10.5 37q0 4 2.5 6t4.5 7
q3 8 18 8q11 0 45.5 -5.5t97.5 -5.5q11 0 30 1t38 1zM398 370q6 0 26 2.5t43 4.5t43 4t26 2q14 0 20.5 -1.5t13.5 -8.5q3 -3 3.5 -7.5t0.5 -9.5q0 -6 -2.5 -19t-6.5 -21q-2 -5 -8 -6.5t-8 -1.5q-11 0 -24.5 -0.5t-39.5 -2.5l-157 -14q-8 -1 -16 -1h-16q-18 0 -40.5 1.5
t-43 3t-36.5 3.5t-20 3q-17 5 -17 56q0 5 2.5 7.5t6.5 7.5t7 5.5t8 0.5h6q4 0 10 -2q26 -6 51 -8.5t54 -2.5h17t19 1l78 4v0z" />
    <glyph glyph-name="greater" unicode="&#x3e;" horiz-adv-x="590" 
d="M296 373q-17 9 -26 14.5t-14.5 9t-10.5 6.5t-14 7q-8 3 -13 10.5t-5 21.5q0 10 5 19q11 20 14 28t14 8q8 0 11 -5.5t20 -13.5q14 -7 18.5 -10t7 -6t6 -6t15.5 -10q23 -13 75 -44t133 -82q12 -8 15 -13t3 -15q0 -5 -2 -12.5t-5 -12.5q-8 -12 -11.5 -15t-5.5 -6
q-2 -5 -4.5 -8.5t-8.5 -8t-16 -11t-27 -16.5q-17 -9 -45.5 -25.5t-58 -33.5t-53.5 -31.5t-31 -18.5q-24 -15 -38 -23.5t-24 -12.5t-19 -5t-23 -1q-19 0 -26.5 3.5t-9.5 12.5q-2 10 -6 15.5t-4 10.5q0 3 1.5 8t9.5 11q6 4 10.5 6t13.5 5.5t23.5 10.5t40.5 21q16 9 39 21.5
t47.5 26.5t47 26.5t37.5 21.5q16 9 24.5 14t12.5 8t5 5t1 4q0 3 -18 14q-46 28 -80 48.5t-51 28.5z" />
    <glyph glyph-name="question" unicode="?" horiz-adv-x="360" 
d="M256 45q0 -14 -1.5 -22t-7.5 -14q-10 -10 -23 -18t-27 -8q-11 0 -22 5t-15 10q-5 7 -12.5 14.5t-7.5 14.5q0 8 1.5 15.5t3.5 12.5q8 30 18.5 36.5t21.5 6.5q5 0 16.5 -6t23.5 -14t21.5 -17.5t9.5 -15.5zM440 572q0 -19 -1.5 -33t-12 -30.5t-32.5 -40.5t-63 -64
q-22 -21 -40 -41t-31 -36.5t-20 -27.5t-7 -14q0 -8 12.5 -12.5t26.5 -4.5q9 0 17.5 1t17.5 1q15 0 24.5 -2.5t15.5 -5.5t9 -5.5t5 -2.5t7 -3.5t7 -9.5q2 -4 4 -11t2 -10q0 -6 -5.5 -10t-11.5 -5q-5 -1 -13.5 -3.5t-16.5 -2.5q-43 0 -78 4.5t-62 15.5q-14 6 -19.5 11
t-13.5 19q-9 16 -9 23q0 2 -1 5t-1 5q0 11 6 17q2 2 3 5.5t3 5.5q24 43 60 83t68 73q40 42 57 64t17 32q0 8 -5 14.5t-11.5 11t-14 7t-13.5 2.5q-13 0 -23.5 -7t-18.5 -15q-5 -5 -6.5 -11t-1.5 -13q0 -4 1 -11t1 -12q0 -8 -4.5 -14.5t-19.5 -6.5q-24 0 -40 22q-5 6 -6 17.5
t-1 19.5q0 20 6 36.5t16 25.5q34 31 84 31q27 0 45.5 -5t38.5 -16q16 -9 32.5 -26.5t16.5 -39.5z" />
    <glyph glyph-name="at" unicode="@" horiz-adv-x="700" 
d="M512 439q0 5 -8 11.5t-11 6.5q-18 0 -38 -16.5t-38 -38.5t-31.5 -45t-17.5 -35q-5 -16 -12.5 -28.5t-10.5 -27.5q-2 -7 -2.5 -15t-0.5 -20q0 -8 3.5 -11t7.5 -3q6 0 11.5 2t14.5 10q21 19 39.5 39.5t32 38.5t21.5 30.5t8 17.5q0 3 -3 5.5t-3 7.5q0 6 1.5 10.5t7.5 10.5
q14 15 21.5 28.5t7.5 21.5zM482 603q-17 0 -43 -5.5t-57 -22.5t-65 -48.5t-66 -84.5q-39 -64 -53.5 -126t-14.5 -102q0 -38 11 -69t32 -53t50.5 -34.5t66.5 -12.5q31 0 70.5 10t82.5 41q8 6 14 8t12 2q11 0 26 -6.5t22 -23.5q2 -4 4 -6t4 -4.5t3 -7t1 -13.5q0 -4 -4.5 -6.5
t-11 -4.5l-13 -4t-9.5 -4q-52 -35 -98.5 -46.5t-89.5 -11.5q-17 0 -37 4t-39.5 10.5t-37.5 15t-30 18.5q-58 46 -81 95.5t-23 116.5q0 36 4.5 69.5t14.5 67.5t27 69.5t41 73.5q30 48 65.5 79.5t71 50t68 26.5t58.5 8q64 0 109.5 -17t89.5 -61q16 -17 30 -34t24.5 -38.5
t16 -49t5.5 -65.5q0 -33 -6.5 -63t-17.5 -57t-24.5 -50.5t-28.5 -42.5q-25 -33 -49.5 -43t-45.5 -10q-14 0 -29 5t-35 17q-11 7 -16.5 15t-10.5 26q-1 3 -1.5 6.5t-3.5 3.5q-2 0 -4 -2t-7 -9q-6 -9 -16 -19.5t-21.5 -18.5t-24.5 -13.5t-25 -5.5q-9 0 -17.5 3.5t-16 8
t-13.5 9t-9 6.5q-17 11 -27.5 32.5t-10.5 45.5q0 22 6 47.5t16.5 51t23.5 49t28 40.5q32 36 62 56t57 20q11 0 24 -6t24.5 -14t20.5 -16.5t12 -13.5q5 -7 6.5 -13t1.5 -9q0 -5 4.5 -8.5t11.5 -7.5q9 -5 9 -13q0 -6 -0.5 -10t-3.5 -11q-17 -39 -27.5 -63t-15.5 -40.5
t-6.5 -28.5t-1.5 -26q0 -7 5 -15.5t13 -8.5q16 0 36 17.5t37.5 47.5t29.5 70t12 84q0 54 -16.5 88t-42.5 53t-57 25.5t-60 6.5z" />
    <glyph glyph-name="A" unicode="A" 
d="M460 -73q0 -9 -7 -14.5t-13 -10.5q-4 -3 -6 -3.5t-5 -0.5q-12 0 -26.5 4t-24.5 14q-5 5 -8.5 18.5t-6 31.5t-3.5 38.5t-1 38.5q0 34 2 66.5t2 67.5q0 4 -6 4q-21 -8 -50 -17.5t-58 -18.5t-54.5 -16t-40.5 -9q-5 -1 -8 -3.5t-7 -10.5q-9 -20 -12.5 -38t-3.5 -32
q0 -33 1.5 -41.5t1.5 -14.5q0 -3 -5 -6q-10 -7 -18.5 -14.5t-19.5 -7.5q-2 0 -8 3t-11 6q-8 5 -13.5 10.5t-8.5 13t-4.5 18t-1.5 26.5q0 15 2 30t4.5 27t4.5 20.5t2 9.5q0 4 -6 7q-17 9 -24.5 14.5t-7.5 16.5q0 17 6.5 35t8.5 20q5 4 11 4q12 0 22.5 -8.5t20.5 -8.5
q2 0 4.5 2t7.5 12q29 54 60 108t64 109.5t70 113.5t78 120q12 18 15.5 21.5t6.5 3.5q8 0 27.5 6t36.5 6q10 0 21 -2.5t13 -6.5q2 -8 5 -9t3 -7q0 -3 -2.5 -17.5t-5 -31t-5 -30.5t-2.5 -16q0 -14 -3 -33q-5 -29 -9 -70t-7 -79.5t-4.5 -66.5t-1.5 -29q0 -2 0.5 -4t5.5 -2
t17.5 2t34.5 2q20 0 36.5 -5t24.5 -14q6 -7 6 -11q0 -6 -4 -13q-9 -15 -26 -20.5t-46 -5.5q-12 0 -24 -2.5t-20 -7.5q-7 -5 -8.5 -7.5t-2.5 -12.5l-5 -100q0 -5 -0.5 -13.5t-0.5 -17.5v-18v-14q0 -30 3 -50.5t7 -32.5t7 -18t3 -8zM365 267q14 106 19 170t5 98
q0 11 -0.5 13.5t-2.5 2.5t-3.5 -1t-5.5 -7q-29 -46 -53.5 -86.5t-46.5 -78t-41.5 -73t-38.5 -71.5q-8 -14 -10 -19t-2 -7q0 -4 6 -4q4 0 15.5 2.5t26.5 7t30.5 9t27.5 9.5q28 11 46 16.5t21 7.5q4 2 5 3.5t2 7.5z" />
    <glyph glyph-name="B" unicode="B" horiz-adv-x="574" 
d="M440 330q-18 0 -37 -6.5t-36.5 -15.5t-32 -18t-23.5 -15q-19 -13 -41 -23t-41 -10q-6 0 -7.5 -2t-3.5 -8q-3 -11 -8 -30.5t-10 -40.5t-9 -40t-4 -29q0 -8 7 -15q23 -23 56 -43t76 -20q21 0 38.5 12t34 34t32.5 52.5t34 67.5q19 39 22 64.5t3 41.5q0 12 -2 18t-8 14
t-16 10t-24 2zM478 612q0 6 -5 6q-43 0 -77 -14.5t-66 -37.5q-5 -4 -7.5 -6.5t-4.5 -7.5l-10 -22t-9 -22q-5 -16 -15.5 -43t-20.5 -55t-17.5 -52t-7.5 -34q0 -4 4 -4q5 0 22.5 11.5t30.5 28.5q5 7 11.5 16t11.5 14q23 26 53.5 58.5t54.5 65.5q29 40 40.5 66.5t11.5 31.5z
M389 665q7 4 26.5 9.5t42.5 5.5q27 0 53 -8.5t44 -24.5q21 -18 21 -36q0 -5 -2 -15t-10.5 -28t-26 -43.5t-48.5 -61.5l-20 -24t-17.5 -22.5l-12.5 -17.5t-5 -8q0 -2 4 -4q14 -7 32 -6.5t32 -4.5q26 -10 45.5 -27.5t30.5 -39.5q5 -8 6 -15.5t1 -18.5q0 -33 -8 -61.5
t-22 -55.5t-32 -55t-38 -60q-25 -40 -68 -58t-93 -18q-12 0 -27 1t-29.5 3.5t-27.5 5.5t-21 8t-22 10t-28 19q-3 -2 -7 -2h-8q-17 0 -31.5 12.5t-27.5 23.5q-5 4 -5.5 6.5t-0.5 5.5q0 6 -6.5 14t-14 16.5t-14.5 16t-7 11.5q-1 7 -3.5 12.5t-5.5 10t-5.5 9.5t-2.5 13
q0 10 11.5 13.5t44.5 3.5q5 0 10.5 -2t8.5 -2t6 1.5t5 11.5q11 47 21 87t20.5 77.5t23 74t28.5 77.5q0 2 -3 7q-6 9 -7.5 16t-1.5 17q0 8 1 9.5t5 3.5q22 9 33 27.5t22 50.5q11 30 19.5 38.5t17.5 8.5t17.5 -4t17 -9t17.5 -9t18 -4q10 0 24 8z" />
    <glyph glyph-name="C" unicode="C" horiz-adv-x="472" 
d="M520 656q8 -11 25 -26t22 -36q1 -5 1 -11q0 -2 -1 -7.5t-7 -20.5q-11 -26 -19.5 -44.5t-15.5 -43.5q-2 -8 -11 -13.5t-20 -5.5q-7 0 -15 1.5t-14 2.5q-3 0 -8.5 3t-11 7.5t-9.5 9.5t-4 10q0 14 5 24.5t11 19.5t11.5 17.5t7.5 19.5q1 5 6.5 13t5.5 17q0 15 -9 15t-21 -4
t-24 -10t-22.5 -13t-17.5 -13q-15 -14 -25 -24.5t-21.5 -24t-26.5 -33.5t-39 -53q-42 -57 -73.5 -128t-53.5 -143q-2 -5 -2.5 -13.5t-1.5 -17.5t-1 -17v-10q0 -7 4 -19t9 -16q13 -11 22 -20t21 -9q21 0 45.5 10.5t50.5 28t52 40.5t50 47q12 12 18 16t20 4h16q10 0 18.5 -4
t15.5 -15q6 -10 6 -16q0 -4 -3.5 -6.5t-9.5 -8.5q-28 -27 -55.5 -55t-57.5 -51t-63.5 -38t-73.5 -15q-17 0 -41 4t-37 10q-11 5 -24.5 14t-25.5 19.5t-21 21.5t-10 22q-2 17 -3.5 32t-1.5 29q0 15 1.5 31.5t4 31t4.5 25t3 12.5q21 59 50 121t66.5 119t84.5 106t104 82
q4 3 14 6t22 5.5t24.5 4t22.5 1.5q11 0 21.5 -2t21.5 -7q5 -2 8.5 -4.5t5.5 -4.5z" />
    <glyph glyph-name="D" unicode="D" horiz-adv-x="554" 
d="M523 540q-14 20 -31 27.5t-36 7.5q-29 0 -56.5 -11.5t-49.5 -16.5q4 -4 4 -7q0 -7 -2 -10t-4.5 -6t-6 -6t-6.5 -10q-25 -56 -50.5 -112.5t-48 -113t-39.5 -114.5t-25 -117q0 -5 0.5 -6t5.5 -3t14 -2.5t17 -0.5q28 0 52 11t44 31q72 71 121 153t86 173q7 17 15 40t8 41
q0 2 -1 8.5t-2.5 15t-3.5 16t-5 12.5zM602 547q10 -13 15 -29t5 -53q0 -22 -7 -46.5t-20 -48.5q-6 -11 -8 -19t-10 -23q-27 -56 -57 -110.5t-65.5 -101.5t-79 -83t-97.5 -56q-8 -3 -16 -3.5t-16 -0.5q-20 0 -39 4t-36 9q-1 -7 -8.5 -8t-18.5 -1q-13 0 -30 11.5t-25 25.5
l-21 9t-28.5 15t-25 21t-10.5 26q0 10 6 13.5t14 3.5q7 0 16 -1.5t21 -1.5q9 0 15 -5.5t12 -5.5q5 0 6 3q23 92 54 183.5t68 181.5q0 5 -1 5.5t-3 0.5q-3 0 -8.5 -3.5t-12 -8t-14 -8t-13.5 -3.5q-7 0 -13.5 6t-6.5 16q0 18 1 29t8 20.5t21.5 21t40.5 29.5q21 14 46.5 27.5
t53 24t56 16.5t55.5 6q22 0 49 -4.5t47 -18.5t40.5 -27t39.5 -38z" />
    <glyph glyph-name="E" unicode="E" horiz-adv-x="508" 
d="M679 608q0 -11 -3.5 -15t-11.5 -4q-7 0 -12.5 -3t-12.5 -3q-6 0 -14 5t-22 5q-71 0 -134.5 -14.5t-117.5 -32.5q-5 -2 -7.5 -4t-4.5 -8q-14 -37 -27.5 -70.5t-27.5 -70.5q0 -4 4 -4q34 12 71.5 25.5t75.5 13.5t75 -20q8 -5 10.5 -14.5t2.5 -17.5q0 -5 -6.5 -8.5t-14.5 -6
t-16 -4t-11 -1.5q-9 0 -17.5 1.5t-15.5 1.5q-23 0 -45.5 -5t-44 -12.5t-42 -15t-39.5 -12.5l-16.5 -5.5t-13.5 -10.5q-12 -28 -25.5 -58t-25 -59.5t-18.5 -56.5t-7 -48q0 -12 8.5 -23t16.5 -11q14 0 37 5t44 14q23 10 39.5 16.5t28.5 11.5q20 9 39.5 21t39 23.5t40 19.5
t43.5 8q8 0 10 -3q1 -2 6.5 -5.5t10.5 -7.5t9.5 -9t4.5 -9q0 -12 -6 -13q-11 -3 -22 -13q-16 -14 -27 -20q-34 -18 -70 -36.5t-75.5 -32.5t-83.5 -23t-95 -9q-3 0 -12.5 2.5t-21.5 7.5t-24 12.5t-19 18.5q-5 8 -6.5 24.5t-1.5 26.5q0 31 6 60t15.5 56.5t20.5 55t21 54.5
q-2 2 -7.5 10t-5.5 21v6q0 4 2 6q2 4 7 5.5t22 6.5q6 2 8.5 4t6.5 10q21 47 32.5 75t17.5 51q0 5 -4 5q-5 0 -15.5 -4t-21.5 -4t-19 4q-5 3 -10 9.5t-8.5 14t-5.5 14.5t-2 12t6 7q48 12 92 28.5t89 33.5q15 6 45 14.5t68 16.5t79 14t79 6q8 0 18.5 -2t15.5 -4
q18 -9 33.5 -22.5t15.5 -27.5z" />
    <glyph glyph-name="F" unicode="F" horiz-adv-x="446" 
d="M639 615q2 -3 3 -9t1 -12q0 -10 -0.5 -12t-5.5 -4q-10 -5 -19.5 -8t-22.5 -3q-3 0 -6 3.5t-7.5 7.5t-12.5 7.5t-21 3.5q-17 0 -33 -5t-33 -7q-32 -4 -60.5 -13t-57.5 -15q-7 -2 -9 -6.5t-2 -9.5v-8t-2 -7q-23 -44 -44.5 -85.5t-33.5 -88.5q0 -5 7 -5q41 10 81.5 17.5
t87.5 16.5q8 2 11.5 2.5t7.5 0.5q3 0 8 -2l10 -4q27 -11 33.5 -18.5t6.5 -18.5q0 -8 -3.5 -10.5t-7.5 -3.5q-65 -13 -130.5 -25.5t-129.5 -28.5q-6 -2 -7.5 -3t-4.5 -7q-16 -32 -22.5 -66.5t-20.5 -65.5q-3 -7 -4.5 -11t-2.5 -9q-2 -8 -5.5 -27.5t-3.5 -41.5q0 -15 1 -17.5
t1 -9.5q0 -8 -5.5 -11t-8.5 -3q-20 0 -36 5t-30 13q-5 3 -6 5.5t-1 6.5q0 48 14 98t27 95q2 5 2 7v5q0 10 -15 10q-14 0 -23.5 9t-9.5 21q0 2 -3 7t-3 10q0 4 6 6q20 8 35 10t31 7q5 2 6.5 4t3.5 5q19 45 37.5 92.5t36.5 90.5q0 5 -4 5t-17 -6t-28.5 -13t-29.5 -13t-20 -6
q-7 0 -14 4t-12.5 10t-9 11.5t-3.5 8.5q0 10 5.5 17.5t8.5 15.5q2 6 7 7q45 11 80 24t75 29q10 4 16.5 6t12.5 4q28 7 58.5 15.5t61 15.5t60.5 12t58 5q20 0 45 -5t45 -32z" />
    <glyph glyph-name="G" unicode="G" horiz-adv-x="596" 
d="M616 627q12 -9 21 -24t9 -30q0 -21 -3.5 -39t-7.5 -32t-8.5 -24.5t-5.5 -14.5q-2 -5 -6.5 -11.5t-11 -12.5t-13 -10.5t-12.5 -4.5q-7 0 -12.5 4t-9.5 5q-23 5 -28 15q-2 5 -6 9.5t-4 7.5q0 6 3 11t7 9.5t8.5 9.5t6.5 12q3 11 7 16t7.5 10t5.5 14t2 29q0 25 -31 25
q-11 0 -30 -4q-23 -5 -43 -16.5t-37.5 -26t-33 -30.5t-29.5 -29l-27 -26q-34 -33 -62.5 -72t-52 -81.5t-40 -86.5t-26.5 -86q-4 -17 -5 -26.5t-1 -17.5q0 -21 1 -30.5t3.5 -13.5t5 -6.5t5.5 -10.5q2 -6 13 -10t22 -4q14 0 45 12t63 40q40 35 65.5 56t42 34t26 21.5
t18.5 17.5q23 25 32.5 38t9.5 19q0 5 -7 5q-6 0 -18.5 -3.5t-26 -8t-25 -8t-17.5 -3.5q-17 0 -26 1.5t-15 6.5q-14 11 -19 16t-5 15q0 15 3 20t16 7q15 3 24 3q10 0 21 3q21 6 33.5 9.5t28.5 8.5q20 7 32 9t32 2q4 0 13.5 -6t19 -15t16.5 -19t7 -18q0 -5 -2.5 -13.5
t-13.5 -31.5q-21 -44 -34.5 -85.5t-21 -76.5t-10 -62.5t-2.5 -42.5q0 -3 -4.5 -7t-10.5 -7.5t-12 -6t-10 -2.5q-8 0 -11.5 1t-5.5 2.5t-5 2.5t-10 1q-11 0 -13.5 4t-2.5 12q0 13 3.5 32t7 36.5t7 30t3.5 14.5q0 3 -3 3q-2 0 -8.5 -5.5t-25.5 -22.5q-28 -26 -48.5 -42
t-38.5 -26t-35.5 -16t-39.5 -12q-23 -6 -40 -6q-55 0 -91 38q-25 26 -35.5 44.5t-10.5 38.5q0 25 6 68.5t26 100t58 123t102 137.5q19 21 46.5 45.5t57 46t59.5 37.5t55 21q8 2 17.5 2.5t17.5 0.5q12 0 27.5 -3.5t31 -9t29 -12t21.5 -12.5z" />
    <glyph glyph-name="H" unicode="H" horiz-adv-x="562" 
d="M611 380q19 0 34 -7q6 -3 10 -3q9 0 17 -8t13 -16t7 -10t2 -15q0 -14 -8 -14q-50 0 -92.5 -9.5t-84.5 -17.5q-8 -2 -11 -4t-5 -6q-14 -23 -21 -51t-16 -55q-17 -51 -24.5 -102t-13.5 -102q-1 -6 -8 -9.5t-15 -3.5q-10 0 -20.5 2.5t-18.5 5.5q-9 4 -13.5 14.5t-6.5 21.5
q-2 10 -2 15q0 6 0.5 12t3.5 16q13 42 23 92.5t24 91.5q2 5 3 11.5t1 11.5q0 11 -11 11q-18 -4 -39 -8t-40.5 -8t-35.5 -7t-25 -5q-8 -2 -10.5 -3.5t-4.5 -5.5q-8 -14 -14 -33.5t-10.5 -39t-7.5 -35.5t-6 -22q-2 -3 -3 -8.5t-1 -16.5q0 -14 2.5 -25t2.5 -19q0 -14 -3 -21.5
t-17 -7.5q-7 0 -15.5 1.5t-12.5 4.5q-9 8 -14.5 8.5t-13.5 7.5q-5 5 -7.5 8t-6.5 3q-6 0 -6 10q0 4 1 16.5t3 20.5q2 7 3 16t4.5 24.5t6.5 31t5.5 28.5t2.5 18t-4 5q-5 0 -20.5 -3t-30.5 -3q-17 0 -33 4.5t-29 19.5q-2 3 -4 9.5t-3.5 13.5t-2.5 13t-1 8q0 5 4 9.5t12 4.5
q9 0 21 -4.5t23 -4.5q3 0 14 1.5t24 3.5t27 4.5t23 5.5q5 2 6.5 3.5t3.5 4.5q13 27 20 58t20 61q29 69 61 139.5t68 136.5q4 7 10 9.5t20 2.5q8 0 14.5 -5t25.5 -11q7 -2 11 -7t4 -10q0 -3 -0.5 -7t-2.5 -8q-25 -36 -42.5 -71.5t-32.5 -72.5t-31 -77t-38 -84q-5 -9 -5.5 -14
t-0.5 -9q0 -10 6 -10q39 6 78 14t75 19q5 2 8 4t6 9q26 56 45.5 114.5l39.5 118.5q2 7 7 10q5 4 10 8.5t16 4.5q8 0 15.5 -1.5t18.5 -1.5q10 0 19.5 -6t9.5 -17q0 -9 -2 -19.5t-8 -27.5q-15 -42 -33 -80t-33 -81q0 -8 7 -8q6 0 16.5 3t22.5 6.5t23 6.5t17 3z" />
    <glyph glyph-name="I" unicode="I" horiz-adv-x="254" 
d="M352 609q0 -13 -1.5 -22t-4.5 -16.5t-9 -14.5t-15 -16q-3 -3 -5.5 -6.5t-7.5 -17.5q-43 -110 -80 -222.5t-76 -230.5q-2 -6 -2 -10t1 -7t1 -8q0 -12 -4 -26t-15 -35q-2 -3 -6 -3.5t-7 -0.5q-4 0 -7 -3t-5 -7q-5 -8 -9 -8q-6 0 -8 5t-9 5q-9 0 -18 7.5t-13 7.5q-6 0 -6 6
q0 2 1.5 11.5t4.5 21.5t6.5 24t6.5 18q3 5 5 10t4 14q15 59 32 114t35 109t37 108.5t37 111.5q3 10 7 17.5t9 16.5t10.5 23.5t13.5 40.5q2 8 12.5 10t27.5 2q7 0 17 -2.5t19 -6t15 -9t6 -11.5z" />
    <glyph glyph-name="J" unicode="J" horiz-adv-x="400" 
d="M324 140q-6 -18 -13 -36.5t-15 -35.5t-15.5 -31.5t-13.5 -24.5q-25 -41 -59 -70t-66 -29q-20 0 -35.5 11t-32.5 16q-18 6 -31.5 20.5t-22.5 35.5t-13.5 46.5t-4.5 54.5q0 14 1 37t8 51q5 20 15.5 37.5t19.5 17.5q11 0 18.5 -2t12.5 -2q13 0 24 -11t11 -25q0 -13 -7 -21.5
t-12 -27.5q-3 -12 -5.5 -16t-4 -9t-2.5 -14.5t-1 -31.5q0 -26 4.5 -43t10.5 -28t12.5 -15.5t10.5 -4.5q8 0 16.5 2t17.5 8t18.5 17t21.5 30q9 15 16.5 28t14 28.5t14 34.5t16.5 46q19 54 33.5 95.5t27 74.5t24 61t23 55.5t25.5 57.5t31 68q0 4 -6 4q-28 -5 -54.5 -13
t-49.5 -13q-6 -2 -9 -3.5t-8 -4.5q-12 -8 -26.5 -10.5t-29.5 -2.5q-21 0 -36 3q-12 3 -15 14q-1 4 -3 6l-3.5 3.5t-3 3.5t-1.5 7q0 11 2.5 20.5t4.5 17.5q1 8 11 8q26 0 61.5 7t74 15.5t77.5 15.5t71 7q3 0 11 -3t26 -15q16 -11 19 -16.5t3 -9.5q0 -15 -4.5 -24.5t-11 -18
t-14 -17.5t-14.5 -23q-48 -100 -89.5 -202t-75.5 -211z" />
    <glyph glyph-name="K" unicode="K" horiz-adv-x="532" 
d="M382 627q5 -5 6 -10.5t1 -10.5q0 -4 -7 -15q-32 -48 -60 -99t-51 -104q0 -3 1 -4t6 -1q7 0 21 5l6 1.5t4.5 1t6 2t11.5 5.5q101 50 179.5 109t138.5 131q4 5 5.5 5.5t4.5 0.5q14 0 28 -5.5t24 -13.5q4 -3 8 -3.5t6 -2.5q6 -6 6 -11q0 -2 -1 -4.5t-8 -10.5
q-52 -63 -112 -112t-123 -87q-35 -21 -72 -40t-77 -39q-9 -5 -11.5 -8t-2.5 -10q0 -11 8 -27q8 -17 9.5 -25.5t7.5 -21.5q10 -21 28 -49.5t40 -59.5t47 -61t50 -55q11 -11 16 -15.5t13 -8.5q20 -10 31 -20t11 -22q0 -9 -4.5 -13.5t-10.5 -5.5q-7 -1 -9.5 -2t-4 -2t-4 -2
t-9.5 -1q-19 0 -36 6.5t-31.5 16.5t-26.5 21.5t-20 21.5q-17 20 -35 39t-32 37q-24 30 -43 61.5t-34 62t-26 58.5t-18 50q-1 5 -4 5t-5 -4q-32 -64 -57.5 -131.5t-37.5 -138.5q-1 -5 -3.5 -9t-15.5 -12q-10 -6 -18 -6t-10.5 6t-15.5 11q-11 5 -20 9.5t-9 14.5q0 5 0.5 11
t4.5 18q25 79 55 158t61.5 151.5t62 135t54.5 108.5q6 11 7.5 13.5t6.5 5.5q8 5 16.5 15t21.5 10q7 0 11 -2q6 -3 6.5 -5.5t9.5 -6.5q5 -2 12 -3.5t12 -6.5z" />
    <glyph glyph-name="L" unicode="L" horiz-adv-x="450" 
d="M405 628q0 -20 -7 -30t-7 -21q0 -4 -6 -9q-16 -13 -28 -34.5t-23 -50.5q-6 -15 -12 -25.5t-15 -30.5q-38 -82 -71.5 -167t-64.5 -175q-4 -10 -4 -21q0 -7 4 -13t11 -6q4 0 12.5 1.5t29.5 6.5q53 14 103.5 32t97.5 37q5 2 18 2q8 0 25 -7t29 -19q2 -2 4.5 -5t2.5 -7
q0 -3 3 -6t3 -11q0 -3 -0.5 -6.5t-2.5 -7.5q-3 -5 -11 -7.5t-31 -2.5h-10t-9 -2q-38 -9 -73.5 -22t-71 -25t-72 -20.5t-77.5 -8.5q-15 0 -27 6t-22.5 15t-18.5 19t-14 18q-4 5 -4 14q0 11 4.5 24t12.5 32q2 6 2.5 9.5t1.5 8.5t2.5 13t6.5 22q45 131 104.5 254.5t116.5 248.5
q4 8 15 9.5t16 1.5q7 0 10 -4.5t18 -8.5q9 -2 19 -8.5t10 -12.5z" />
    <glyph glyph-name="M" unicode="M" horiz-adv-x="654" 
d="M396 657q0 -6 -3 -18.5t-6.5 -27.5t-8 -30t-7.5 -27q-2 -8 -5.5 -36.5t-3.5 -68.5q0 -3 0.5 -10.5t0.5 -22.5t0.5 -39.5t0.5 -61.5q0 -12 6 -12q2 0 3 1.5t9 9.5q34 37 71.5 72t75 69.5t72.5 69t64 72.5q5 7 7.5 8.5t6.5 1.5q20 0 28 -4t16 -4q1 0 5 -3t8 -8.5t7.5 -13
t3.5 -16.5q0 -3 -5 -10q-40 -60 -70.5 -124t-53.5 -138t-39 -160.5t-26 -191.5q-2 -15 -2.5 -19t-4.5 -4q-5 0 -10.5 4t-12.5 4q-5 0 -5.5 -2t-5.5 -2q-10 0 -22 7t-18 12l-6.5 6.5t-1.5 5.5q0 2 2.5 18.5t6.5 41t9 53t9 55t7.5 46.5t5.5 28q2 12 7.5 32.5t13 44.5
t15.5 49.5t15 46.5q0 4 -4 4q-2 0 -5 -3q-18 -18 -40.5 -42t-43 -46t-36.5 -39.5t-21 -23.5q-7 -8 -9 -9t-4 -1t-10.5 3t-25.5 6q-13 2 -25.5 6t-20.5 17q-6 9 -12.5 34t-8.5 57v31v66q0 5 -3 5q-2 0 -4 -3t-8 -14q-27 -51 -46 -100.5t-30 -78.5q-32 -88 -36.5 -105.5
t-15 -58t-10.5 -72.5q0 -5 -7 -11t-12 -6q-11 0 -14 -5t-9 -5q-3 0 -8.5 2.5t-11 5.5t-10.5 5.5t-7 2.5q-5 0 -12.5 12t-7.5 25q0 14 4.5 27t10.5 24.5t11.5 21.5t7.5 19q19 74 48.5 146.5t62.5 142.5t65.5 137.5t58.5 131.5q5 11 7 15t4 4q8 0 11 -1.5t16 -3.5q12 -2 25 -5
t21 -11q6 -6 6 -11z" />
    <glyph glyph-name="N" unicode="N" horiz-adv-x="598" 
d="M426 -22q-7 0 -13.5 1.5t-22.5 9.5q-28 14 -37 26.5t-15 32.5q-14 44 -23.5 98.5t-17.5 108t-15 101t-14 77.5q-2 9 -3.5 11.5t-4.5 2.5q-4 0 -8 -14q-8 -28 -23 -75.5t-31.5 -104t-30.5 -116t-19 -110.5q-3 -32 -3 -36q0 -8 -10.5 -13t-26.5 -5q-12 0 -17.5 1t-9 2.5
t-6 4t-6.5 4.5q-6 3 -10.5 6.5t-4.5 8.5q0 11 7.5 42.5t19.5 73.5t25.5 88.5t26 87t21 69.5t10.5 36l9 34q13 49 22 85t19 77q1 6 4.5 8t7 3t6 2t2.5 5q0 8 -7.5 19.5t-7.5 37.5q0 3 1.5 5.5t8.5 5.5q8 3 24.5 6t35.5 3q9 0 14 -14q24 -73 36 -145t20 -144t17.5 -145
t29.5 -146q4 -15 8 -15q2 0 3 2.5t6 12.5q41 88 69.5 180.5t57.5 188.5q5 17 9 27t9 28q7 26 8 54t9 54q4 14 7 17.5t14 3.5t22 -3t19 -3q5 0 11.5 -4.5t12 -10t9 -11t3.5 -7.5q0 -10 -2 -18t-9 -20q-5 -8 -7 -16.5t-7 -23.5q-18 -51 -35.5 -106.5t-37.5 -117.5
t-43.5 -130.5t-54.5 -145.5q-6 -15 -8 -18.5t-6 -7.5q-15 -15 -25 -20.5t-22 -5.5z" />
    <glyph glyph-name="O" unicode="O" horiz-adv-x="490" 
d="M381 546q0 10 -7 10q-2 0 -11 -4t-30 -26q-49 -51 -87 -114t-60 -133l-7.5 -25t-4.5 -37q0 -3 -1 -11t-1.5 -18t-1.5 -21t-1 -19q0 -32 9 -56t25 -40q3 -3 13.5 -6t19.5 -3q19 0 38.5 10.5t30.5 26.5q39 60 63.5 119.5t38 109.5t18.5 85.5t5 46.5v21t-1 12
q-4 23 -13.5 40.5t-28.5 23.5q-6 2 -6 8zM448 601q29 -26 50 -68.5t21 -106.5v-15q0 -6 -1 -14t-3 -18t-6 -25q-22 -90 -52.5 -172t-80.5 -145q-24 -30 -60.5 -45.5t-78.5 -15.5q-16 0 -29.5 2t-30.5 7q-12 4 -29 17.5t-28 30.5q-17 26 -24.5 51t-7.5 63q0 103 32.5 186.5
t88.5 164.5q27 40 54.5 70.5t62.5 51.5q18 11 26 11t22 -6q4 -2 11 -4.5t15 -5t15 -4.5t11 -2q5 0 10.5 -1.5t11.5 -6.5z" />
    <glyph glyph-name="P" unicode="P" horiz-adv-x="490" 
d="M534 588q0 5 -3 7.5t-22 2.5q-3 0 -6.5 -0.5t-11.5 -2.5q-22 -6 -44 -11t-43 -12t-41 -17.5t-37 -27.5q-20 -54 -42 -109.5t-33 -109.5q20 -17 33.5 -27t24.5 -10q5 0 6.5 0.5t8.5 5.5q48 32 91 79.5t71 98.5q7 13 15.5 31t15.5 36.5t12 36t5 29.5zM573 442
q-32 -59 -78.5 -112t-96.5 -92q-4 -3 -14.5 -8t-24.5 -9.5t-30.5 -8t-31.5 -3.5q-14 0 -23 2.5t-15.5 6.5t-12 8.5t-12.5 9.5q-6 4 -8 4t-3.5 -2t-4.5 -11q-11 -34 -22 -73.5t-19.5 -74.5t-14 -60.5t-5.5 -31.5t-7 -11q-11 -8 -23 -8q-10 0 -13 3q-6 6 -10.5 8.5t-8.5 4
t-8 3.5t-10 8q-3 3 -3 6t4 19q3 12 7 29t8.5 35.5t9 36t9.5 29.5q2 4 4 9.5t2 9.5q0 9 5 25.5t12 35.5t12.5 36.5t7.5 28.5q0 5 -4 8q-7 5 -13 11t-6 14q0 6 1.5 8t4.5 3t11 6.5t21 5.5q3 0 4 4q7 21 11.5 34t8.5 23.5t7 20t6 23.5q0 3 -0.5 4t-5.5 1t-13 5q-14 8 -16 13.5
t-7 10.5q-7 7 -7 11q0 11 7.5 20t27.5 22q37 24 74.5 47t77.5 41t82 29.5t88 11.5q22 0 36.5 -2.5t33.5 -18.5q17 -14 25.5 -27.5t8.5 -43.5q0 -43 -15 -76t-31 -62z" />
    <glyph glyph-name="Q" unicode="Q" horiz-adv-x="554" 
d="M486 561q-15 0 -36 -5.5t-35 -12.5q-59 -29 -102.5 -73.5t-76.5 -94.5q-32 -48 -50 -98.5t-18 -106.5q0 -17 2 -38t7 -39.5t15 -31t27 -12.5q20 0 52 18.5t79 65.5q5 5 5 13q-19 37 -31.5 62.5t-20 42t-11.5 25t-5 13.5q-2 7 -3.5 13.5t-1.5 11.5q0 8 5 13t21 5
q17 0 26.5 -6t24.5 -6q13 0 18 -15q8 -26 12.5 -42.5t9.5 -24.5q9 -16 12 -16q2 0 4.5 2t7.5 9q18 23 35.5 53t32 62.5t23 65.5t8.5 62q0 45 -8 65t-28 20zM568 576q17 -14 26.5 -42.5t9.5 -85.5q0 -27 -10 -61.5t-28.5 -74t-45 -82.5t-59.5 -87q-2 -3 -2.5 -4t-0.5 -6
q15 -29 34.5 -60t41 -59.5t43 -51.5t39.5 -36q5 -4 9 -7.5t4 -5.5q0 -8 -6.5 -12.5t-23.5 -4.5q-25 0 -40 4.5t-29 15.5q-39 33 -71 72.5t-51 66.5q-4 5 -5.5 6t-2.5 1q-4 0 -7 -4q-17 -18 -37 -32.5t-40 -24t-37.5 -15t-29.5 -5.5q-29 0 -38 1.5t-19 5.5q-5 1 -12 6
t-15.5 10.5t-16 10.5t-12.5 8q-19 10 -28.5 27.5t-15.5 42.5q-5 22 -7.5 42.5t-2.5 40.5q0 32 5 62t14 60q4 12 6 19.5t5 13.5q29 59 66 115.5t90 101.5q11 9 20 14t21 13q20 13 41.5 22.5t41 15.5t35 9t23.5 3q18 0 40 -11q15 -8 35.5 -13.5t42.5 -24.5z" />
    <glyph glyph-name="R" unicode="R" horiz-adv-x="494" 
d="M456 566q-7 7 -19 10.5t-25 3.5q-17 0 -32.5 -3.5t-30.5 -8.5q-10 -3 -13 -9q-15 -26 -28 -51t-25 -51.5t-23 -56.5t-23 -66q0 -5 3 -7q5 -4 12.5 -5.5t13.5 -1.5q10 0 16.5 1.5t17.5 5.5q6 2 10.5 2.5t9 1.5t11 4t16.5 9q22 14 43 34t37.5 44.5t26 53.5t9.5 62
q0 12 -2 18.5t-5 9.5zM532 576q5 -10 10 -28t5 -43q0 -37 -18 -82t-60 -90q-16 -17 -35 -29t-39.5 -20.5t-42.5 -15t-45 -13.5q-5 -2 -7 -3t-2 -6q10 -25 30.5 -54.5t37.5 -58.5q4 -7 10 -14q18 -21 31.5 -34.5l24.5 -24.5q25 -23 41 -29.5t33 -10.5q5 -1 10 -7t9.5 -14
t7.5 -17.5t3 -16.5q0 -8 -10 -11.5t-21 -3.5q-18 0 -39.5 9t-45.5 24q-39 24 -67 53.5t-50.5 62t-42 68t-40.5 72.5q-3 5 -4.5 6t-3.5 1q-6 0 -9 -10q-10 -32 -18 -66t-13.5 -64.5t-8.5 -54.5t-3 -37q0 -8 -10.5 -13t-30.5 -5q-9 0 -11 2t-14 8q-5 2 -13.5 7t-8.5 15
q14 101 41 198.5t61 194.5q5 13 6.5 17t6.5 10q7 9 12.5 28t11.5 31q0 4 -4 4q-3 0 -9 5.5t-12 12.5t-10.5 14.5t-4.5 11.5q0 6 2.5 8.5l4.5 4.5q15 11 37 23.5t49 23t58.5 17.5t64.5 7q23 0 45 -3t36 -8q18 -6 21.5 -9t6.5 -5q20 -14 25.5 -20.5t10.5 -17.5z" />
    <glyph glyph-name="S" unicode="S" horiz-adv-x="432" 
d="M451 596q17 -18 25 -40.5t11 -41.5l4 -18t2 -14t-6.5 -9t-14.5 -4q-7 0 -17 3q-14 4 -26.5 16t-17.5 19q-4 6 -6.5 16t-5.5 21t-9 21.5t-17 16.5t-22 6q-5 0 -14.5 -21t-9.5 -58q0 -8 2 -33t12 -66q6 -24 16 -60t20.5 -75t20 -77.5t14.5 -68.5q5 -28 6 -40t1 -26
q0 -31 -17 -54.5t-45 -34.5q-6 -2 -14 -2.5t-25 -0.5q-67 0 -129.5 35.5t-110.5 95.5q-6 7 -14 15t-16 19.5t-15 27t-11 36.5q-2 8 -2 15v15q0 7 7 18t15 11q13 0 27 -4t24 -10q14 -9 24.5 -20t10.5 -15q0 -11 -3.5 -17.5t-3.5 -22.5q0 -3 2 -7t4 -9q10 -18 25 -35t34 -32.5
t40 -27.5t42 -19q12 -4 26 -4q12 0 23 10.5t11 26.5q0 20 -1.5 41t-3.5 36q-6 42 -16 80.5t-21 76t-21.5 76.5t-18.5 81q-1 4 -2.5 14t-3 21.5t-2.5 23t-1 18.5q0 17 1 22q3 12 5.5 28t9 30t17.5 23.5t31 9.5q40 0 78.5 -11t71.5 -47z" />
    <glyph glyph-name="T" unicode="T" horiz-adv-x="388" 
d="M618 581q0 -15 -4 -21.5t-9 -8.5t-11.5 -6.5t-18.5 -4.5q-6 0 -8 4t-13 9q-14 5 -19 8t-13 3q-42 0 -79.5 -4.5t-69.5 -10.5q7 -7 7 -12q0 -2 -2 -6q-64 -108 -107.5 -218.5t-67.5 -237.5q-2 -12 -3.5 -18.5t-1.5 -16.5q0 -6 0.5 -12t0.5 -12q0 -14 -5 -23t-22 -9
q-11 0 -25 6t-26 13q-4 2 -8.5 10.5t-4.5 13.5t1.5 19.5t3.5 22.5q29 121 67 234t92 224q0 4 -6 4q-11 -1 -32.5 -3t-40.5 -2q-16 0 -32 4t-24 12q-2 2 -2 6v23q0 18 8.5 26.5t13.5 8.5q3 0 6.5 -1t11 -2.5t21 -2.5t38.5 -1q36 0 71.5 5t71.5 11t73 11t76 5q13 0 29.5 -6
t30 -14.5t23 -17t9.5 -12.5z" />
    <glyph glyph-name="U" unicode="U" horiz-adv-x="600" 
d="M336 624q2 -5 3.5 -13t1.5 -13q0 -3 -3.5 -11.5t-5.5 -13.5q-23 -57 -47.5 -111t-47 -106.5t-40 -105t-25.5 -106.5q-2 -11 -3 -24.5t-1 -30.5q0 -9 1.5 -12t3.5 -3q6 0 16.5 4t22.5 16q69 69 124 131.5t97.5 116.5t72.5 97.5t49 74.5q4 7 6 11t3.5 8t4.5 10t10 17
q5 8 15 18.5t14 10.5q3 0 11 -2t22 -2q6 0 11 -9l14 -22q2 -4 4 -7.5t2 -6.5q0 -5 -7 -22q-12 -32 -31 -61.5t-31 -61.5q-37 -100 -54.5 -196.5t-17.5 -200.5q0 -17 0.5 -22.5t0.5 -7.5q0 -10 -14 -10q-11 0 -13 2.5t-10 4.5t-16 7t-19 12q-6 4 -12 6.5t-6 12.5q0 5 1 10.5
t4 10.5q4 6 5 16q6 52 9.5 101.5t14.5 94.5q3 12 3 16q0 5 -5 5q-3 0 -8 -5q-57 -66 -114 -130t-119 -118q-7 -6 -20 -11t-26 -5q-9 0 -21.5 4t-19.5 11t-14.5 9.5t-15 4.5t-14 5.5t-11.5 12.5q-2 5 -3.5 23.5t-1.5 39.5q0 47 9 88t18 70q28 88 63.5 173t67.5 173
q3 8 6 12.5t5 9.5q5 10 12 18.5t18 8.5q4 0 8.5 -3t19.5 -9q6 -2 13 -5.5t10 -9.5z" />
    <glyph glyph-name="V" unicode="V" horiz-adv-x="470" 
d="M273 625q2 -5 4 -11t3 -17v-10t-1 -11q-15 -109 -34.5 -218.5t-30.5 -220.5q-1 -7 -1 -13v-10q0 -17 5 -17q3 0 10.5 4t19.5 16t28 34.5t36 58.5q35 64 69 124.5t70 126.5q15 28 27 58t12 65q0 11 -1 15t-1 8q0 15 22 15q9 0 15.5 -0.5t12.5 -0.5q8 0 9.5 -4.5t9.5 -11.5
q8 -6 15 -13t7 -18q0 -9 -3.5 -26.5t-10 -38t-14.5 -40.5t-17 -34q-34 -54 -65.5 -114.5t-63.5 -119t-66 -111t-72 -90.5q-19 -19 -26 -19t-12 3t-16 3q-10 0 -12 -3t-8 -3q-9 0 -24.5 8.5t-29.5 22.5q-3 3 -4.5 5.5t-1.5 9.5q0 8 -6.5 17.5t-6.5 20.5q0 4 1.5 8t1.5 9
q0 4 0.5 11t1.5 12q6 58 15.5 118.5t18.5 119.5t16.5 114.5t9.5 104.5q0 9 1.5 13t2.5 7.5t2 10.5t1 23q0 11 4 18.5t18 7.5q5 0 13 -1t20 -1q6 0 13.5 -3t12.5 -12z" />
    <glyph glyph-name="W" unicode="W" horiz-adv-x="684" 
d="M713 639q7 -14 9.5 -27t3.5 -27q1 -11 1.5 -20.5t0.5 -19.5q0 -38 -5 -70.5t-15 -79.5q-23 -105 -64 -204.5t-105 -190.5q-9 -13 -20.5 -23t-30.5 -10q-4 0 -9.5 3t-19.5 4q-11 1 -17.5 4t-13.5 10q-5 5 -20 9t-20 15q-14 30 -18 62.5t-9 73.5q-2 13 -3.5 15.5t-3.5 2.5
q-4 0 -9 -8q-8 -12 -15.5 -21.5t-19.5 -20.5q-19 -17 -36 -39t-33.5 -41t-32.5 -32t-33 -13q-10 0 -36 23q-4 4 -9.5 5.5l-11 3t-9.5 3.5t-5 7q-2 6 -2 11v23q0 25 3.5 45.5t6.5 40.5q1 9 1.5 14l1 10t1.5 11.5t4 18.5q23 105 55 210t60 208q2 8 6.5 12.5t24.5 4.5
q8 0 15.5 -2t15.5 -4q2 0 6 -4l8.5 -8.5t7.5 -8.5t3 -5q0 -2 -1 -5t-2 -5q-46 -110 -77.5 -227.5t-56.5 -237.5q-3 -14 -4 -22t-1 -10q0 -5 3 -5q2 0 7 3t19 17q49 51 92.5 111.5t67.5 114.5q4 8 6 13.5t3.5 10t3 10t3.5 13.5q3 14 7 26.5t9 23.5q2 5 3.5 6.5t4.5 1.5
q6 0 13.5 -2t12.5 -3q12 -1 21 -12q17 -20 17 -37q0 -9 -0.5 -13.5t-2.5 -9.5q-14 -44 -21.5 -88t-7.5 -92q0 -61 13 -126q2 -9 7 -9q3 0 6.5 4t8.5 10q61 82 99.5 185t62.5 207q4 16 5 26t1 18q0 9 0.5 15t0.5 12t0.5 12.5t0.5 17.5q0 12 -3 19.5t-7 14.5t-7 14.5t-3 18.5
q0 17 2.5 26t10.5 9q6 0 12.5 -1t17.5 -1q14 0 25 -4t19 -21z" />
    <glyph glyph-name="X" unicode="X" horiz-adv-x="482" 
d="M660 646q8 -2 16 -12t8 -15q0 -2 -0.5 -6t-2.5 -7q-13 -17 -27 -28.5t-30.5 -23.5t-35.5 -25.5t-41 -34.5q-14 -14 -24 -22.5t-19 -16.5q-42 -36 -82.5 -70t-81.5 -71q-8 -8 -10 -11t-2 -9q11 -67 29 -130t32 -127q1 -7 6 -14t9.5 -14t8.5 -14.5t4 -14.5q0 -5 -1.5 -8.5
t-6.5 -8.5q-3 -3 -10 -4.5t-13 -1.5q-11 0 -25 4t-29 10q-6 2 -8 4t-6 10q-14 27 -22 56t-13 59t-9 60t-10 58q-2 13 -7 13q-2 0 -6 -3.5t-15 -14.5q-24 -26 -47.5 -51.5t-44 -53t-36.5 -57t-24 -61.5q-1 -4 -3 -7.5t-12 -6.5q-11 -4 -13 -8.5t-7 -4.5q-17 0 -32 7.5
t-27 19.5q-5 5 -5.5 7t-0.5 12q0 20 13.5 39.5t23.5 39.5q4 8 6.5 12l7.5 12q19 31 42.5 57t48 50.5t49.5 48t48 48.5q11 11 12.5 14t1.5 9q-9 48 -14.5 83t-8.5 63t-4 53t-1 53q0 7 1 10.5t2.5 6t2.5 4.5t1 7q0 4 -1.5 9.5t-1.5 10.5t1 8t8 8q5 4 11.5 4.5t15.5 0.5
q17 0 24 -1.5t11 -8.5q6 -11 14.5 -20t8.5 -17q0 -7 -4.5 -23.5t-4.5 -51.5q0 -29 3 -56.5t8 -57.5q2 -11 4 -14.5t6 -3.5q3 0 9 2.5t13 9.5q30 30 62.5 57.5t65 55.5t64 57.5t60.5 62.5q5 6 7.5 8t8.5 2q13 0 25 -5.5t26 -9.5z" />
    <glyph glyph-name="Y" unicode="Y" horiz-adv-x="502" 
d="M257 668q5 -1 9 -11t4 -18q0 -11 -2.5 -18t-6 -14.5t-7.5 -16.5t-7 -23q-8 -40 -16 -83t-14.5 -85t-10.5 -81t-4 -71q0 -3 4.5 -6.5t14.5 -3.5q6 0 14 1.5t16 6.5q36 23 63.5 44.5t49.5 43.5q16 16 44 54.5t65 110.5q23 46 41 74.5t23 35.5q7 10 11 10q10 0 28.5 -4.5
t31.5 -17.5q3 -3 7 -14t4 -15q0 -2 -1 -5.5t-5 -8.5q-106 -149 -174.5 -362.5t-107.5 -501.5q-2 -15 -4 -20t-2 -10q0 -8 -6 -8q-5 0 -10.5 1.5t-15.5 3.5q-20 3 -32.5 9.5t-14.5 16.5q-1 4 -1.5 13t-0.5 17q0 33 8 61.5t14 56.5q3 13 5.5 28t5.5 32q16 85 41 174.5
t51 177.5l-8 -9q-7 -8 -19.5 -19t-29.5 -21.5t-38.5 -17.5t-45.5 -7q-3 0 -10 3t-17 8.5t-20.5 12.5t-20.5 16q-19 17 -29.5 33t-10.5 25q0 1 0.5 12t1 27t1.5 34t2 34q1 10 3 16t2 20q0 16 3.5 23.5t5.5 21.5q9 56 20.5 108.5t26.5 105.5q3 9 8 9q19 0 34 -3.5t29 -5.5z
" />
    <glyph glyph-name="Z" unicode="Z" horiz-adv-x="560" 
d="M659 555q0 -14 -1.5 -23t-6.5 -18.5t-14.5 -20.5t-25.5 -28q-8 -9 -22 -22.5t-29 -27t-28.5 -25.5t-20.5 -17q-4 -3 -4.5 -4.5t-0.5 -3.5q0 -5 9 -5q32 0 58 -8t40 -26q5 -6 5 -17q0 -10 -5.5 -16t-10.5 -6q-2 0 -4.5 0.5t-7.5 0.5t-14.5 0.5t-25.5 0.5q-31 0 -59 -4
t-55.5 -10t-54.5 -12t-55 -10q-26 -22 -56 -42t-58.5 -41.5t-53 -45.5t-39.5 -54q-2 -5 -4 -9.5t-2 -8.5q0 -3 5.5 -7.5t13.5 -8t17.5 -6.5t18.5 -3q13 0 25.5 -4t30.5 -4q28 0 61.5 7t66.5 16.5t62.5 20t50.5 18.5q11 4 17 6t11 2q2 0 7 -0.5t11 -2t11 -3t7 -4.5
q8 -14 20 -27t12 -26q0 -8 -7 -8q-8 0 -8.5 2t-8.5 2q-6 0 -6.5 -3t-7.5 -6q-63 -28 -134 -45t-135 -17q-52 0 -102 12.5t-98 42.5q-3 2 -10 10.5t-14 19.5t-12.5 22t-5.5 18q0 10 0.5 15t2.5 10q4 10 13 22.5t25 28.5t39.5 36t56.5 47q6 5 6 7q0 4 -7 5q-14 2 -27 7t-18 10
q-3 4 -5.5 10t-2.5 10q0 7 1.5 8.5t1.5 17.5q0 11 9 17t16 6q5 0 11 -1.5t11 -3.5q24 -8 39 -11t21 -3q4 0 15.5 1.5t24 3.5t23 4.5t14.5 4.5q31 19 69 44t76 53.5t71.5 60t54.5 62.5q2 3 4.5 7t2.5 7q0 8 -13.5 13.5t-32.5 8.5t-40 4.5t-37 1.5q-41 0 -80 -12.5t-56 -44.5
q-2 -3 -9 -5t-14 -2q-8 0 -15 2.5t-12 4.5q-15 8 -21 21t-12 39q0 7 0.5 9t3.5 4q39 26 91.5 39t108.5 13q48 0 95.5 -11t88.5 -34q3 -2 11.5 -9t17.5 -16t16.5 -18t7.5 -15z" />
    <glyph glyph-name="bracketleft" unicode="[" horiz-adv-x="326" 
d="M478 810q42 0 61.5 -3t21.5 -12q1 -5 4 -7t3 -13q0 -5 -1.5 -8.5t-3.5 -8.5q-8 -17 -14 -22t-23 -5q-5 0 -14 1t-32 1h-11q-21 0 -33.5 -1t-20 -4.5t-12.5 -10.5t-10 -19q-29 -67 -60 -158.5t-63.5 -192t-64.5 -202t-63 -189.5q-11 -30 -12.5 -42t-1.5 -18q0 -4 1 -7
t5.5 -5.5t14.5 -3.5t27 -1q36 0 53 2t32 2q11 0 16.5 -11t5.5 -16q0 -14 -3 -23t-7.5 -14.5t-9 -8.5t-6.5 -5q-4 -4 -18.5 -4.5t-35.5 -0.5h-19q-11 0 -36.5 0.5t-57.5 2.5q-9 1 -19.5 8.5t-19.5 18t-15 23t-6 22.5q0 8 0.5 15.5t3 16.5t6.5 22.5t11 33.5l222 670
q19 58 33.5 90.5t25.5 49t18.5 21.5t12.5 7q17 6 36.5 7.5t41.5 1.5h37v0z" />
    <glyph glyph-name="backslash" unicode="\" horiz-adv-x="374" 
d="M266 645q0 -8 -4.5 -20.5t-4.5 -32.5q0 -19 1.5 -35t3.5 -34q6 -51 14 -101t17.5 -106t19.5 -121.5t21 -147.5q4 -29 5.5 -49t1.5 -35q0 -31 -5 -31q-7 0 -12 -5t-19 -5q-13 0 -20 2.5t-12 12.5t-9.5 21t-4.5 28q0 8 -1 27.5t-3 33.5l-77 517q-2 14 -2.5 29.5t-0.5 30.5
v25q0 12 2 17q5 20 16 27q4 3 17 3q5 0 8 -1t7 -1q19 0 30 -10t11 -39z" />
    <glyph glyph-name="bracketright" unicode="]" horiz-adv-x="326" 
d="M-30 -200q-42 0 -61.5 3t-21.5 12q-1 5 -4 7t-3 13q0 5 1.5 8.5t3.5 8.5q8 17 14 22t23 5q5 0 14 -1t32 -1h11q20 0 32.5 1t20.5 4.5t13 10.5t10 19q19 44 23.5 56t21 56.5t37.5 107t42.5 130.5t43 135.5t42.5 132.5t41 124q6 17 9.5 36t3.5 24q0 4 -1 7t-6 5t-17 3.5
t-33 1.5q-18 0 -29 -0.5t-19 -1.5t-14 -1.5t-13 -0.5q-11 0 -16.5 11t-5.5 16q0 28 11 38t18 13q8 4 19 4.5t41 0.5q28 0 50 -0.5t54 -2.5q8 0 18.5 -8t19.5 -19t15.5 -23.5t6.5 -21.5q0 -8 -1 -15.5t-3 -17t-6 -22.5t-11 -33l-222 -670q-19 -58 -33 -90.5t-24.5 -49
t-18 -21t-14.5 -7.5q-17 -6 -36.5 -7.5t-41.5 -1.5h-37v0z" />
    <glyph glyph-name="asciicircum" unicode="^" horiz-adv-x="550" 
d="M588 466q5 -12 6.5 -16.5t1.5 -9.5q0 -11 -2.5 -9.5t-7.5 -4.5q-9 -12 -13 -14.5t-13 -2.5q-3 0 -11.5 5.5t-13.5 15.5l-87 163q-4 7 -6 8.5t-7 1.5q-3 0 -5 -0.5t-7 -3.5q-52 -30 -83 -49t-48.5 -30t-24.5 -16.5t-11 -9.5t-10 -4q-13 0 -21 9.5t-11 12.5q-2 2 -3 11
t-1 21q0 6 3.5 12.5t4.5 9.5q2 5 18 13.5t33 16.5l173 85q10 5 17 5q14 0 19.5 -5t6.5 -7q3 -6 6.5 -7t8.5 -12z" />
    <glyph glyph-name="underscore" unicode="_" horiz-adv-x="626" 
d="M581 -96v-64h-700v64h700z" />
    <glyph glyph-name="grave" unicode="`" 
d="M363 743q-10 7 -29.5 16.5t-36.5 16.5q-8 3 -10 11t-2 22q0 9 2.5 14.5t8.5 11.5q12 12 24 12q5 0 8 -1.5t6 -1.5q2 0 4.5 -1.5t8 -5.5t15.5 -11.5t27 -19.5l102 -70q26 -18 26 -25q0 -5 -1.5 -8.5t-3.5 -8.5t-2 -9t-1 -7q-3 -10 -13 -10t-16 1.5t-15 7.5l-102 66v0z" />
    <glyph glyph-name="a" unicode="a" horiz-adv-x="468" 
d="M428 422q-2 0 -11.5 -2.5t-19.5 -7.5q-71 -38 -126.5 -80t-98.5 -94q-16 -19 -29.5 -39t-23.5 -38.5t-16 -34.5t-6 -27q0 -9 4 -18t18 -9q6 0 20.5 7.5t28.5 20.5q35 33 71 62.5t69 59t61.5 60.5t47.5 67q5 10 13 20t16 18q5 5 5 15q0 5 -5 12.5t-18 7.5zM492 435
q3 -8 9.5 -13.5t14.5 -5.5q4 0 13 -2t15 -11q2 -3 2 -6q0 -5 -4 -11q-17 -23 -34.5 -48t-33 -52t-28.5 -55t-20 -57q-5 -21 -9.5 -43.5t-4.5 -45.5q0 -20 5 -39t16 -36q2 -4 2 -6t-4 -7t-17 -7q-5 -1 -9.5 -2.5t-9.5 -1.5q-11 0 -24.5 5t-18.5 15q-10 22 -13.5 43.5
t-3.5 42.5q0 23 2 35.5t2 14.5q0 5 -4 5q-6 0 -24 -18l-54 -50q-20 -18 -36 -30.5t-30 -21t-27 -14t-26 -9.5q-5 -2 -9 -3t-7 -1q-4 0 -9 1.5t-12.5 6.5t-19 14t-29.5 23q-4 3 -13 16.5t-9 42.5q0 25 11.5 59t48.5 89q45 66 83 99.5t61 50.5q74 54 160 79q10 3 22 3
q17 0 32 -7.5t29 -21.5q4 -4 8.5 -9.5t6.5 -10.5z" />
    <glyph glyph-name="b" unicode="b" horiz-adv-x="386" 
d="M450 738q0 -10 -6.5 -18.5t-15 -16.5t-17.5 -16t-14 -17q-20 -32 -42.5 -66t-43.5 -66.5t-38.5 -63t-28.5 -55.5q-16 -38 -35 -75.5t-35 -76t-27 -78.5t-11 -83q0 -17 2.5 -26.5t14.5 -9.5q8 0 19 7t16 14q22 28 37 51.5t26 47t19.5 48t16.5 54.5q2 8 4 15t2 11
q0 2 -1 10.5t-3 18.5t-6 19.5t-10 14.5q-3 2 -4 7.5t-1 10.5q0 13 9.5 29t22.5 16q10 0 18.5 -8t16.5 -17q10 -12 16.5 -19t11.5 -10.5t10 -4.5t14 -1t46 4.5t109 24.5q8 2 14.5 4t8.5 2q3 0 5 -1t7 -1q12 0 20 -6q3 -2 7.5 -9t4.5 -13q0 -3 -2.5 -9.5t-6.5 -7.5
q-29 -4 -54 -12.5t-49 -17.5t-48.5 -15.5t-51.5 -6.5q-5 0 -14 3t-15 3q-2 0 -3 -3t-1 -6q0 -5 1 -10.5t1 -10.5q0 -9 -2 -14t-5 -24q-5 -32 -18.5 -56.5t-24.5 -50.5q-5 -12 -8.5 -19t-6.5 -12.5t-6 -9.5t-7 -10q-12 -17 -26 -34.5t-30.5 -32t-35 -24t-39.5 -9.5
q-7 0 -12.5 0.5t-14.5 3.5q-5 1 -14 5.5t-19 11.5t-18.5 15.5t-11.5 19.5q-3 13 -5 25.5t-2 24.5q0 29 6 57t15 54l5 15t9 26t9.5 27t7.5 19q25 58 52 111t56 105.5t59.5 105t62.5 108.5q11 20 25 31t35 11q12 0 29 -6q11 -5 15 -13t4 -19z" />
    <glyph glyph-name="c" unicode="c" horiz-adv-x="346" 
d="M272 123q16 12 33.5 24.5t33.5 22t30 15.5t25 6q5 0 11 -3.5t11 -8t8 -9t3 -5.5q0 -3 -2 -5t-2 -5q0 -5 -1.5 -7.5t-6.5 -4.5q-23 -10 -50.5 -30t-59.5 -46q-42 -34 -79 -54t-69 -20q-21 0 -38.5 6t-31 14.5t-21.5 16.5t-10 12q-12 24 -12 47q0 18 5.5 37t10.5 38
q2 5 4.5 16.5t7.5 22.5q19 39 42.5 80t49.5 77.5t55 65.5t61 45q5 2 7.5 2.5t8.5 0.5q26 0 55 -11t49 -31q3 -3 3.5 -5.5t0.5 -8.5q0 -8 1 -10.5t1 -4.5q0 -3 -1 -7q-1 -5 -6.5 -15t-11.5 -23.5t-11 -28t-5 -27.5q0 -6 -4.5 -10.5t-14.5 -4.5q-12 0 -20 7l-26 19
q-11 8 -11 22q0 7 3.5 15.5t7.5 16t7.5 15t3.5 13.5q0 3 -2 6.5t-6 3.5q-5 0 -7.5 -2t-8.5 -8q-32 -32 -64 -74t-58 -87q-26 -47 -42 -90.5t-16 -62.5q0 -10 5 -15.5t12 -5.5q35 0 70 17.5t72 45.5z" />
    <glyph glyph-name="d" unicode="d" horiz-adv-x="496" 
d="M378 369q0 10 -23 10q-15 0 -25 -5q-36 -18 -71.5 -46.5t-66 -63t-55.5 -74.5t-40 -81q-1 -2 -2 -6.5t-1 -6.5q0 -8 1.5 -15.5t5.5 -7.5q5 0 10 4t9.5 5.5t11.5 6.5q65 51 120.5 114.5t104.5 129.5q9 12 15 17.5t6 18.5zM724 747q0 -19 -6.5 -31.5t-14.5 -23.5
q-7 -10 -11 -20t-12 -23q-22 -35 -46 -71t-47 -72t-42.5 -72t-31.5 -70l-16 -44q-23 -63 -37.5 -109t-23 -79t-12 -54.5t-3.5 -34.5q0 -27 4 -38.5t4 -17.5q0 -3 -4 -7q-5 -5 -8 -9t-6 -6.5t-8 -4t-14 -1.5q-7 0 -21 7t-15 12q-6 34 -6 65q0 45 9 82t17 66q3 10 8 22.5
t10.5 23t9 18t3.5 8.5q0 2 -2 2t-10 -9l-60 -70t-61.5 -67.5t-64.5 -61.5t-70 -51q-8 -5 -16 -6t-14 -1q-8 0 -19 4t-22.5 9t-20 10t-9.5 8q-17 29 -17 57q0 40 35 107q36 69 92 126t119 99q11 8 31.5 13.5t40.5 5.5q16 0 28 -5q10 -5 24 -9t23 -10q7 0 8 1q39 42 68 86.5
t55 89.5l52 90t58 87q5 6 9 9t14 3q5 0 13 -3t16 -7.5t14 -10.5t6 -12z" />
    <glyph glyph-name="e" unicode="e" horiz-adv-x="366" 
d="M328 398q7 11 12.5 21.5t5.5 24.5q0 6 -0.5 9t-5.5 3q-6 0 -11 -3l-10 -6q-8 -5 -10.5 -5.5t-9.5 -7.5q-24 -22 -48.5 -48t-46 -55t-38 -61t-24.5 -65q0 -5 2 -5t7 3q45 34 82 73.5t71 80.5q6 7 8.5 11.5t4.5 8.5t4 8.5t7 12.5zM253 -3q-14 -8 -20 -9t-16 -1
q-9 0 -17.5 1t-20.5 6q-8 3 -18 7t-19.5 8.5t-16.5 7.5t-10 5q-15 8 -28.5 26t-21.5 43q-5 15 -8.5 39t-3.5 38q0 7 1 14.5t4 18.5q21 77 68 143.5t104 127.5q13 14 41.5 29.5t65.5 15.5q20 0 33 -3t28 -8q8 -3 20 -17.5t12 -44.5q0 -20 -7 -37t-16 -35q-8 -15 -14.5 -25
t-17.5 -22q-26 -29 -53.5 -59.5t-56.5 -58.5t-59.5 -52t-62.5 -42q-6 -4 -6 -8q0 -12 8.5 -25t15.5 -17q15 -8 31 -8q13 0 28 5t49 23q26 14 47.5 30.5t41.5 33.5t39.5 34t42.5 31q8 5 12.5 6t7.5 1q5 0 12.5 -6t7.5 -14q0 -7 -0.5 -9t-0.5 -4q0 -3 -0.5 -7t-4.5 -7
q-18 -15 -33.5 -32.5t-38 -38.5t-57.5 -47t-92 -57z" />
    <glyph glyph-name="f" unicode="f" horiz-adv-x="268" 
d="M415 724q8 -11 8 -20q0 -8 -4.5 -15t-9.5 -14.5t-10 -14.5t-6 -14q-1 -9 -4 -16q-10 -20 -25.5 -40t-31.5 -41t-30 -43t-21 -47q-2 -8 -4 -14t-7 -16l-6 -12t-7.5 -17t-6.5 -17t-3 -13t5 -5q22 0 45.5 7.5t47.5 16.5t49.5 16.5t51.5 7.5q17 0 25 -7t8 -12q0 -11 -9 -15.5
l-17 -8.5q-3 -2 -5.5 -3t-5.5 -3q-32 -12 -64 -28t-66 -22q-8 -2 -9.5 -3.5t-14.5 -6.5q-17 -7 -34 -11.5t-31 -15.5q-5 -4 -6 -6.5t-3 -6.5q-17 -50 -34.5 -99.5t-32.5 -100.5t-26 -104t-16 -109q-1 -9 -9 -17t-19 -12q-8 -3 -18 -7t-13 -4q-9 0 -13.5 3.5t-11.5 8.5
q-2 2 -4.5 15t-2.5 24q0 29 9.5 55t17.5 52q2 5 5 17.5t5 22.5q2 13 9 36t15.5 50.5t18 56.5t18 54t13.5 43.5t5 24.5q0 4 -2 7q-9 16 -24.5 28t-21.5 30q-2 6 -4 12.5t-2 11.5q0 8 4.5 14t9.5 6q11 0 27 -7t30 -7q3 0 11 2.5t12 11.5q22 53 41 98t38 85.5t38.5 78
t42.5 74.5q6 10 23 16t28 6q21 0 34 -17z" />
    <glyph glyph-name="g" unicode="g" horiz-adv-x="422" 
d="M374 391q3 4 3 7q0 2 -1 3t-1 3t-1 4.5t-9 5.5t-17 3q-14 0 -24.5 -6.5t-21.5 -14.5q-15 -12 -23 -16t-19 -14q-20 -19 -43.5 -44.5t-45.5 -52.5t-39 -52.5t-25 -43.5q-5 -11 -8.5 -22t-3.5 -16q0 -3 4.5 -5.5t7.5 -2.5q4 0 9 0.5t11 4.5q34 21 68 51.5t66.5 65t61 71
t51.5 71.5zM438 361q-39 -70 -63.5 -116.5t-38 -76t-18.5 -43.5t-5 -18t4 -4q38 32 80.5 62t86.5 56q13 8 16.5 9t7.5 1q16 0 26 -10q6 -6 6 -15q0 -2 -1 -7t-7 -10q-69 -52 -123 -96.5t-94.5 -85.5t-69 -82t-47.5 -86q-13 -31 -26 -61.5t-24 -56t-20 -45t-13 -27.5
q-8 -15 -15 -23t-15 -12.5t-18 -5.5t-24 -1t-31 7.5t-21 21.5q-3 10 -3 22q0 9 3.5 20.5t11.5 27.5t21 37t32 50t33.5 48.5t27.5 36.5t25.5 35.5t28.5 47t36 70t47 104.5q-1 3 -5 3q-17 -16 -33.5 -32.5t-33.5 -29.5t-34.5 -21t-36.5 -8q-17 0 -30 6q-16 7 -31 19.5
t-29 26.5q-4 4 -5.5 8.5t-1.5 20.5q0 32 10.5 54t18.5 39q4 10 15 26t25 34t29.5 36.5t28.5 33.5q39 44 73.5 69.5t60 38t40.5 16t17 3.5q32 0 59.5 -11t43.5 -32q7 -9 9 -17.5t2 -17.5q0 -11 -1.5 -20t-6.5 -19z" />
    <glyph glyph-name="h" unicode="h" horiz-adv-x="418" 
d="M395 -26q-9 -2 -17 -5t-18 -3q-5 0 -11 1t-18 6q-29 11 -41.5 34.5t-12.5 60.5q0 48 19 112q10 33 19 57t18 46q4 9 4 12q0 2 -2 2q-3 0 -13 -11q-26 -29 -51.5 -64t-50 -70.5t-48.5 -69t-46 -59.5q-5 -5 -6 -6.5t-5 -3.5q-8 -5 -17.5 -9t-20.5 -4q-4 0 -22 8t-30 20
q-4 4 -4 11q0 8 3 11t6 16q14 59 35 114.5t46 109.5t51.5 106.5t50.5 104.5q6 13 9 19t7 13q34 62 67 120.5t70 132.5q5 9 11.5 11.5t14.5 2.5t12.5 -1t8.5 -1q7 0 14.5 -4.5t13.5 -10.5q5 -5 7 -10t2 -15q0 -20 -13.5 -35t-33.5 -39q-7 -8 -10 -13.5t-9 -13.5
q-34 -47 -65.5 -106.5t-62 -124t-59.5 -130.5t-57 -126q-6 -13 -7.5 -16t-1.5 -4q0 -2 2 -2q1 0 2 1.5t5 6.5q61 85 116.5 151.5t110.5 126.5q10 11 15 15.5t13 7.5q15 5 23 5t19.5 -2.5t17.5 -4.5q5 -2 10 -8t5 -11q0 -24 -9.5 -43t-20.5 -37t-15.5 -32.5t-10.5 -28.5
q-20 -48 -36 -105.5t-16 -108.5q0 -36 7 -48t18 -18q5 -2 12 -3t13 -3q7 -2 7 -8q0 -3 -1.5 -6l-3.5 -7q-2 -5 -8 -8.5t-11 -5.5z" />
    <glyph glyph-name="i" unicode="i" horiz-adv-x="220" 
d="M364 691q8 -8 10 -16.5t2 -16.5q0 -5 -1 -9.5t-4 -8.5q-14 -17 -30.5 -33t-33.5 -16q-15 0 -25.5 6.5t-14.5 13.5q-4 8 -5.5 17t-1.5 17q0 11 3 22.5t10 19.5q8 9 20.5 13t28.5 4q12 0 24.5 -3.5t17.5 -9.5zM237 34q-16 -14 -42.5 -31t-60.5 -17q-11 0 -22.5 7t-22 18.5
t-18.5 25.5t-12 28q-3 11 -4 21t-1 21q0 19 3.5 37t12.5 44q5 14 8.5 26.5t8.5 23.5q23 55 46 109.5t51 112.5q8 16 22 21.5t28 5.5q8 0 16.5 -1.5t13.5 -6.5q4 -3 6 -6t2 -10q0 -20 -7 -35.5t-16.5 -29.5t-20.5 -29t-20 -33q-6 -14 -14 -32.5t-16.5 -38.5t-16 -38.5
t-12.5 -32.5q-13 -34 -18.5 -60.5t-5.5 -37.5q0 -7 2.5 -19.5t15.5 -12.5q8 0 15 1.5t15 5t18 10t25 17.5q18 13 26.5 17.5t20.5 4.5q6 0 13 -1.5t12 -5.5t5.5 -7.5t0.5 -6.5q0 -9 -5 -15t-11 -12z" />
    <glyph glyph-name="j" unicode="j" horiz-adv-x="238" 
d="M369 646q0 -11 -4.5 -18t-10 -13t-11 -11.5t-6.5 -12.5q-2 -11 -10.5 -14t-16.5 -3q-3 0 -9.5 1t-14.5 4t-16.5 9.5t-15.5 17.5q-5 7 -5 24q0 6 -1 11.5t-1 9.5t6 11q10 12 23 19.5t29 7.5q13 0 23 -3.5t24 -15.5q13 -11 15 -14t2 -10zM249 448q3 -5 5.5 -10t2.5 -10
q0 -3 -3 -9.5t-5 -9.5q-13 -26 -23.5 -49.5t-20.5 -48t-20 -50.5t-22 -57q-4 -9 -4 -15q0 -3 2 -3q5 0 16 10q12 10 25.5 21t27 21.5t26 19.5t21.5 14q13 8 18.5 10t11.5 2q8 0 13 -2t5 -11q0 -12 -3 -19t-9 -13t-14.5 -12.5t-19.5 -16.5q-54 -48 -98 -102.5t-85 -112.5
q-11 -15 -20 -31.5t-14 -27.5q-15 -38 -28.5 -74.5t-26.5 -72.5l-26 -72t-27 -75q-2 -4 -5.5 -10.5t-9 -12.5t-13 -10t-17.5 -4q-3 0 -7.5 2.5t-16.5 6.5q-9 3 -14.5 9.5t-8.5 13.5t-3.5 13t-0.5 8q0 7 1.5 13.5t3.5 11.5q18 48 40.5 93.5t46 90.5t44.5 91t35 94l4 12
t4.5 13t6 17t8.5 24q28 76 58.5 152.5t54.5 155.5q3 10 7.5 14.5t9.5 8.5q9 7 16 7q8 0 12.5 0.5t10.5 0.5q8 0 16.5 -2t11.5 -7z" />
    <glyph glyph-name="k" unicode="k" horiz-adv-x="376" 
d="M381 698q0 -23 -9 -38t-21 -32q-14 -20 -17.5 -26.5t-7.5 -12.5q-35 -58 -58.5 -119.5t-49.5 -122.5q-3 -6 -3 -9t3 -3q4 0 12 5q48 29 93.5 65t76.5 85q5 8 10 12.5t10 8.5q14 10 30 10q7 0 12 -1.5t15 -7.5q18 -11 18 -18q0 -6 -4 -14.5t-11 -18t-15 -19t-15 -15.5
q-12 -11 -15.5 -16.5t-12.5 -13.5q-38 -32 -79 -60.5t-81 -54.5q-7 -5 -7 -13q0 -5 4.5 -17.5t16.5 -51.5q2 -7 9.5 -24t16.5 -35.5t17.5 -34.5t11.5 -20q11 -15 18.5 -25t16 -17.5t19.5 -13.5t28 -13q4 -2 8 -2t7 -0.5t4.5 -3t1.5 -9.5q0 -10 -9 -15t-12 -10
q-7 -11 -24 -11q-29 0 -47 8.5t-30 20.5q-14 14 -18 17q-5 4 -9.5 8t-9.5 12q-43 78 -61 131.5t-28 76.5q-2 5 -4 6.5t-4 1.5q-3 0 -4 -4q-17 -40 -32.5 -84t-23.5 -91q-2 -8 -4.5 -19.5t-6.5 -22.5t-9.5 -19t-13.5 -8q-6 0 -11.5 -1.5t-13.5 -1.5q-2 0 -7.5 1t-11.5 4
t-11 9.5t-5 17.5q0 5 2 13.5t5 16.5q2 4 2.5 8t1.5 6q51 156 117.5 307t131.5 305l7.5 17.5t3.5 8.5q7 19 16 19q6 0 10.5 -1t22.5 -3q37 -5 37 -28z" />
    <glyph glyph-name="l" unicode="l" horiz-adv-x="232" 
d="M141 -18q-3 0 -17.5 4.5t-31.5 13.5t-32 23.5t-19 35.5q-3 16 -3 34q0 35 13 70.5t30 78.5q16 42 40 92t51.5 102.5t57.5 105.5t59 102q6 11 11 25.5t11.5 28t15.5 22.5t24 9q11 0 18 1t15 1t15 -3t11 -8q8 -12 8 -28q0 -18 -10 -35q-34 -55 -70 -108.5t-69.5 -107
t-63.5 -108.5t-52 -113q-12 -31 -25 -60.5t-13 -62.5q0 -9 1 -18t4 -19q4 -12 20 -12q10 0 17 4q16 10 33.5 29t35 37.5t35.5 32t35 13.5q6 0 20 -5.5t14 -17.5q0 -10 -6 -15t-14 -13q-19 -21 -37 -44t-37.5 -42.5t-42.5 -32t-52 -12.5z" />
    <glyph glyph-name="m" unicode="m" horiz-adv-x="684" 
d="M276 462q4 -2 4.5 -6.5t0.5 -12.5q0 -4 -2 -14t-10 -21q-55 -77 -100.5 -160t-68.5 -172q0 -4 3 -7.5t6 -3.5t11 4q40 20 77 50.5t68.5 67t56 77.5t41.5 82q6 15 21 26q18 14 39 14q26 0 46 -20q3 -3 3.5 -4t0.5 -3q0 -6 -3 -15q-7 -18 -17.5 -35t-22.5 -33.5
t-24.5 -33.5t-21.5 -35q-25 -48 -34 -78t-9 -47q0 -4 2.5 -10t6.5 -6q11 0 27.5 8.5t30.5 24.5q26 30 55.5 56.5t58 54t52 58.5t37.5 69q1 4 4.5 10.5t9.5 12.5t14 10t20 4q7 0 11 -1t6 -2.5t4.5 -2.5t8.5 -2q17 -2 22 -5.5t11 -14.5q4 -7 4 -14t-4 -11.5t-9.5 -9
t-11.5 -9.5t-11 -13q-37 -62 -53.5 -103.5t-16.5 -79.5q0 -24 7.5 -49t24.5 -51q3 -5 5 -6.5t4 -2.5q5 -2 9.5 -8t4.5 -12t-6.5 -11t-17.5 -5t-19 3t-19 5q-8 2 -19.5 13.5t-27.5 43.5q-8 17 -16.5 42t-8.5 47q0 6 -4 6q-3 0 -8 -4q-19 -14 -37.5 -34t-38.5 -38t-43.5 -30.5
t-53.5 -12.5q-27 0 -51 11q-32 15 -39.5 26.5t-7.5 22.5q0 10 -0.5 12.5t-2.5 2.5t-7 -5q-22 -22 -50 -39.5t-54 -30.5q-5 -2 -9 -4t-7 -2q-22 0 -44 7.5t-40 21.5q-3 2 -4.5 4.5t-3.5 8.5q-6 25 -6 48q0 35 11 66.5t26.5 61.5t33 59.5t31.5 59.5q10 22 17.5 35.5t13 23.5
t10.5 20t11 25q3 8 18.5 20.5t42.5 12.5q18 0 31 -8z" />
    <glyph glyph-name="n" unicode="n" horiz-adv-x="420" 
d="M91 266q11 26 21.5 48.5t21.5 44t24 44t30 47.5q6 9 7.5 12.5t8.5 9.5q11 10 35 10q33 0 40 -15q2 -4 3.5 -8.5t1.5 -9.5q0 -8 -4 -19t-18 -28q-5 -6 -24.5 -29t-39.5 -61q-11 -20 -28.5 -57t-42.5 -99q-3 -7 -6.5 -18t-6.5 -22.5t-5 -20t-2 -9.5q0 -3 0.5 -6.5t2.5 -3.5
q8 0 17 13q51 72 90 118t67.5 76t47 48.5t26.5 36.5q7 14 11.5 22.5t8 12.5t7 5t8.5 1q11 0 17.5 -4.5t18.5 -5.5q8 -1 14 -9.5t6 -17.5q0 -3 -3 -11.5t-7 -14.5q-27 -44 -43 -77t-27 -71q-2 -8 -4.5 -20t-4 -25t-2.5 -25.5t-1 -19.5q0 -14 3 -24.5t5 -18.5q2 -14 16 -23
t19 -13q6 -5 10.5 -10t4.5 -13q0 -5 -6 -14.5t-20 -9.5q-6 0 -24.5 3t-27.5 11q-11 10 -20 15.5t-19 19.5q-17 23 -17 62q0 44 4.5 60.5t4.5 18.5q0 4 -3 4t-6 -4q-31 -41 -52.5 -68.5t-39.5 -53.5q-8 -11 -13.5 -17.5t-10.5 -10.5t-9.5 -7t-9.5 -9q-6 -7 -18 -9t-19 -2
q-5 0 -14.5 5t-21 12t-21.5 15t-15 14q-3 4 -5 12.5t-2 16.5q0 12 1.5 19.5t3.5 14t4 12.5t3 14q1 11 6.5 28t13 36t15.5 38t14 34z" />
    <glyph glyph-name="o" unicode="o" horiz-adv-x="368" 
d="M293 394q-4 4 -5.5 8t-2.5 7q-2 5 -4 11t-6 6q-7 0 -15 -10q-3 -4 -9 -8t-10 -9q-1 -1 -10.5 -13t-23.5 -32t-30 -47t-29.5 -57.5t-22.5 -64t-9 -66.5q0 -2 0.5 -5.5t2.5 -8.5q2 -6 9.5 -17t14.5 -16q3 -2 9 -2q8 0 12 3t7 5q6 3 8.5 6t8.5 12q20 30 40 61t36 63.5
t26 67.5t10 74v10t-1 11q-1 5 -2.5 7t-3.5 4zM344 460q7 -19 18 -37t33 -18q30 0 49.5 1.5t36.5 1.5q24 0 43 -7t19 -19q0 -5 -4 -8t-9 -5.5t-9.5 -4t-5.5 -3.5l-3.5 -3.5t-7.5 -2.5q-15 -2 -35 -8t-40 -9q-15 -2 -24.5 -2.5t-14.5 -0.5q-10 0 -12 -8q-20 -81 -49 -149
t-77 -119q-21 -23 -42.5 -41t-47.5 -18q-14 0 -24 5q-29 14 -48.5 30t-26.5 33q-8 21 -11.5 42.5t-3.5 40.5q0 62 26 116.5t61 106.5q5 8 8 11.5t5.5 6t4.5 5l6 7.5q12 17 25.5 33.5t28.5 29.5t31 21t33 8q12 0 26 -4t27 -15q6 -5 9 -8t5 -9z" />
    <glyph glyph-name="p" unicode="p" horiz-adv-x="440" 
d="M375 387q-53 -34 -91.5 -78t-68.5 -92q-5 -8 -6 -13.5t-1 -15.5q0 -8 5.5 -26t13.5 -36t18.5 -31.5t19.5 -13.5q4 0 8 4q12 12 25 34t23.5 44.5t17.5 40.5t8 23q14 42 22 72t11.5 49t4.5 28t1 10q0 3 -4 3q-3 0 -7 -2zM240 472q0 -32 -12 -68t-21 -72q0 -2 2 -2
q33 38 68.5 72.5t70.5 52.5q8 4 11 5t5 1q22 0 43.5 -11t40.5 -23q7 -5 13.5 -13t6.5 -27q0 -25 -2 -40.5t-5 -29.5q-2 -6 -1 -12.5t-4 -19.5q-12 -32 -24.5 -67.5t-29 -70.5t-38.5 -68t-51 -59q-5 -5 -13 -6t-15 -1q-9 0 -19 3t-20 7.5t-17.5 9.5t-11.5 9q-19 17 -31 35.5
t-21 37.5q-2 5 -6 5t-6 -5q-23 -44 -41.5 -83.5t-34 -80.5t-29 -86.5t-26.5 -100.5q-4 -16 -2.5 -27t-9.5 -15q-10 -4 -18.5 -5t-16.5 -1q-9 0 -16 3t-15 11q-5 5 -9 8.5t-5 14.5q0 3 1 7.5t4 14.5q22 72 54.5 158.5t65.5 177t61 180.5t41 170q2 14 4.5 16t7.5 4q9 3 18 7
t20 4q12 0 22.5 -6t10.5 -14z" />
    <glyph glyph-name="q" unicode="q" horiz-adv-x="386" 
d="M366 392q0 5 -5 6t-9 1q-6 0 -11.5 -2.5t-9.5 -4.5q-8 -5 -12 -4.5t-16 -7.5q-27 -17 -55 -39.5t-53 -48t-45.5 -52.5t-33.5 -52q-14 -29 -18.5 -46.5t-4.5 -33.5q0 -5 5.5 -8.5t10.5 -3.5q3 0 8 1.5t8 2.5q10 2 20 10q45 34 82.5 70.5t69.5 84.5q8 12 8 15q0 5 -3 7
t-3 7t22 30q17 18 31 34.5t14 33.5zM449 410q0 -10 -5 -20.5t-11 -19.5l-11 -16.5t-5 -12.5q0 -9 5.5 -13t5.5 -10q0 -2 -1 -4t-6 -8q-100 -133 -167 -285.5t-112 -312.5q-4 -14 -4 -33t-6 -36q-3 -8 -10 -20t-17 -12q-17 0 -31.5 7t-22.5 14q-4 3 -4.5 4.5t-0.5 3.5
q0 5 1 10q11 57 28.5 112t36.5 110q6 17 8.5 24.5t5.5 18.5q6 23 12 37t12 26.5t12 26.5t12 37q0 6 -7 6q-11 -2 -23.5 -4.5t-24.5 -2.5q-11 0 -23.5 3t-23.5 9l-14 9q-17 11 -25.5 31.5t-8.5 43.5q0 12 3.5 22t5.5 16q19 49 49.5 94.5t69 84t82 67t89.5 42.5q12 4 22.5 6
t22.5 2q14 0 28.5 -3.5t26 -10.5t19 -17.5t7.5 -25.5z" />
    <glyph glyph-name="r" unicode="r" horiz-adv-x="300" 
d="M200 438q8 -13 11 -24.5t4 -24.5q1 -20 -6 -41q-2 -9 -3 -11.5t-1 -4.5q0 -3 3 -3q3 -2 13 7q83 63 139 82q6 2 12 2q21 0 40.5 -6.5t32.5 -21.5q4 -3 5.5 -8.5t0.5 -8.5q1 -11 -3 -19t-10 -13.5t-12 -8.5t-9 -3q-11 0 -22.5 5t-22.5 5q-5 1 -16 -4q-41 -19 -81 -46
t-74.5 -63.5t-60.5 -82.5t-38 -103q-4 -14 -11 -25t-12 -15q-4 -5 -9.5 -7t-8.5 -2q-12 1 -18.5 8t-11.5 13q-8 8 -13 18.5t-6 19.5q0 13 6.5 25.5t15.5 25.5t18 26.5t14 27.5l38 114t31 117l1.5 10.5t0.5 5.5q0 5 -4 10.5t-5 12.5q0 6 11 14t28 8q11 0 21 -3.5t12 -7.5z
" />
    <glyph glyph-name="s" unicode="s" horiz-adv-x="296" 
d="M347 464q11 -11 15 -30.5t4 -34.5q0 -29 -9 -49t-20 -34q-6 -8 -8 -9.5t-6 -1.5q-8 0 -19 4t-16 9q-15 12 -15 32q0 3 3 8q7 11 12 22t5 24q0 6 -2 14t-5 13t-9.5 9.5t-12.5 4.5q-3 0 -11.5 -9.5t-18.5 -24.5t-19 -33.5t-12 -35.5q-1 -5 -1.5 -11t-0.5 -15q0 -2 1 -10.5
t2 -19t2 -20t2 -14.5q3 -28 8.5 -61.5t11 -65.5t9 -59t3.5 -42q0 -10 -8 -18q-14 -14 -28.5 -25t-34.5 -11q-15 0 -25 4q-50 20 -85.5 56t-60.5 78q-2 4 -4 8.5t-2 6.5q0 11 10 24t26 13q15 0 23 -2.5t15 -11.5q9 -12 16 -24.5l14 -25t15.5 -24.5t19.5 -22q8 -7 12 -9t8 -2
q10 0 10 8q0 3 -0.5 7.5t-4.5 23.5q-5 25 -11 62t-10.5 73t-7.5 64.5t-3 36.5q0 10 2 25t6.5 32t11.5 34t16 31q22 35 48.5 49.5t40.5 14.5q41 0 61.5 -10t36.5 -26z" />
    <glyph glyph-name="t" unicode="t" horiz-adv-x="262" 
d="M360 637q-5 -29 -15.5 -56.5t-24 -54t-27.5 -52.5t-26 -51q-4 -8 -8 -18t-7.5 -19.5t-5.5 -16.5t-2 -8q0 -3 4 -3q2 0 9.5 1t15.5 3q33 7 71 21t63 29q8 5 11 5q6 0 14.5 -2.5t16 -6t13 -8.5t5.5 -9q0 -10 -8 -20.5t-25 -17.5q-20 -8 -26 -12t-19 -9q-18 -7 -42 -14
t-46.5 -13t-40.5 -10.5t-26 -7.5q-13 -4 -19 -15t-10 -24t-7 -24q-2 -8 -5.5 -16t-5.5 -16q-2 -12 -9 -33t-14.5 -44.5t-14 -47.5t-8.5 -43q-1 -7 -7.5 -22t-17.5 -20q-3 -2 -7.5 -2.5t-7.5 -0.5q-9 0 -19.5 3t-16.5 8q-11 8 -11 24q0 6 1 14.5t3 15.5q19 56 35 118t40 120
q2 6 2 7q0 3 -5 6q-14 7 -22.5 15t-15 16t-12.5 16.5t-15 15.5q-4 3 -4.5 6.5t-0.5 5.5q0 5 3 7.5t9 5.5q5 2 9 3.5t11 1.5q17 0 34 -8t31 -8t17 14q5 18 16 47q18 46 38.5 101.5t46.5 110.5q5 10 6.5 11.5t4.5 1.5q12 0 16 2.5t12 2.5q7 0 18 -2t20 -6t9 -7v-4t-1 -7z" />
    <glyph glyph-name="u" unicode="u" horiz-adv-x="420" 
d="M237 451q2 -5 6.5 -11t4.5 -14q0 -6 -4.5 -13.5t-15.5 -15.5q-6 -4 -14.5 -14t-14.5 -33q-9 -33 -20 -67.5t-22 -68.5t-20 -65.5t-13 -58.5q-2 -10 -2 -15v-8t4.5 -9t9.5 -5q2 0 9.5 2.5t12.5 7.5q13 12 21 20t13 14t9 11.5t10 12.5q47 51 86 106t63 118q4 10 6.5 13.5
t11.5 8.5q7 4 12 5t11 1t12.5 -4t11.5 -6q12 -4 16 -8.5t4 -9.5q0 -12 -1.5 -17t-4.5 -12q-26 -55 -45 -110.5t-28 -115.5q-2 -16 -4 -34.5t-2 -39.5q0 -19 9 -34.5t9 -32.5q0 -5 -1.5 -10.5t-4.5 -7.5q-5 -3 -14 -3q-11 0 -20.5 5t-17.5 10q-7 4 -11 5.5t-6.5 2.5t-4 3
t-3.5 8q-6 15 -8 30t-2 30q0 19 1.5 39.5t1.5 28.5q0 6 -4 6q-3 0 -7 -4t-7 -8q-26 -30 -53 -55.5t-59 -41.5q-6 -3 -8 -3.5t-5 -0.5t-22 4t-38 15q-27 17 -30 31q-2 11 -3.5 23t-1.5 20q0 28 7.5 58t15.5 56q3 10 5 17.5t3.5 14.5t3.5 14t5 17q8 22 14.5 45.5t14 47
t17.5 47.5t24 48q8 14 19.5 20t23.5 6q8 0 19 -4t15 -12z" />
    <glyph glyph-name="v" unicode="v" horiz-adv-x="378" 
d="M198 329q-13 -60 -26.5 -120.5t-26.5 -120.5q-2 -11 -2.5 -13.5t-0.5 -5.5q0 -6 8 -6q5 0 11.5 2t14.5 11q26 31 55 80.5t50 101.5q6 15 7.5 23.5t6.5 19.5q3 8 5.5 22.5t2.5 30.5q0 17 -11 28q-5 5 -9.5 12.5t-4.5 15.5q0 10 8 17t23 7q20 0 31.5 -5t21.5 -22
q12 -20 24 -26t24 -6q16 0 32 5t31.5 11.5t31 11.5t32.5 5q9 0 22 -3t25 -11q9 -5 11 -9.5t2 -12.5q0 -3 -1 -4t-6 -4q-21 -11 -40.5 -18t-37 -12t-31.5 -8.5t-23 -7.5l-12 -4t-11 -2q-11 0 -22 3t-21 3q-5 0 -7.5 -0.5t-6.5 -3.5t-5.5 -9t-6.5 -23q-18 -69 -52.5 -128.5
t-79.5 -115.5q-14 -18 -22 -24.5t-17 -16.5q-6 -7 -16 -11.5t-20 -4.5q-15 0 -23.5 7.5t-22.5 17.5q-21 14 -28.5 21t-11.5 21q-2 5 -2.5 12t-0.5 12q0 16 2 28.5t7 32.5q1 6 2 10.5t2.5 12.5t4.5 20t8 33q15 60 29.5 120t22.5 121q2 12 11.5 17t12.5 5q5 0 11 -1t12 -1
q8 0 15 -1t14 -7q5 -4 5 -15q0 -23 -3.5 -37.5t-8 -26t-10 -23.5t-9.5 -31z" />
    <glyph glyph-name="w" unicode="w" horiz-adv-x="540" 
d="M257 462q0 -5 -2.5 -10t-5.5 -10q-5 -7 -8 -16t-5 -14q-30 -72 -53 -144.5t-48 -147.5q-4 -12 -4 -16q0 -3 3 -3q1 0 3 1t6 4.5t11 10.5t18 20q46 54 85 112.5t65 120.5q4 9 11 11.5t15 2.5t13 -1t10 -1q11 0 21 -9.5t10 -20.5t-6.5 -25.5t-26.5 -47.5q-11 -18 -14 -30
t-7 -20q-17 -37 -27 -78.5t-10 -83.5q0 -10 6 -14.5t9 -4.5q5 0 17 5.5t26 23.5q22 28 35.5 61.5t21 63.5t10 51t2.5 25q0 11 2.5 19.5t2.5 17.5q0 21 -10 43t-10 39q0 5 2 12t9 12q4 3 19.5 4.5t22.5 1.5q6 0 8.5 -1t5.5 -4l8 -8t16 -12q14 -9 29 -12t47 -3t63.5 6t70.5 6
q7 0 15 -3.5t8 -24.5q0 -20 -48 -31q-24 -6 -40 -10.5t-28.5 -8t-22.5 -5.5t-21 -2q-32 0 -45 4t-19 4q-9 0 -9 -13v-20t-1 -21q-4 -75 -34 -145.5t-83 -123.5q-8 -8 -17.5 -12.5t-26.5 -4.5q-20 0 -42.5 8.5t-42.5 19.5q-9 5 -18.5 17t-9.5 29q0 14 1.5 22t1.5 17q0 8 -3 8
t-16 -13q-11 -11 -21 -24t-20.5 -24t-23 -18t-28.5 -7q-12 0 -18 4.5t-24 11.5q-12 5 -20.5 11t-10.5 9t-4.5 12t-2.5 17t1 15t3 12q11 45 27 90t32 89t29.5 88t19.5 88q1 5 7.5 11t11.5 8q7 2 13 2.5t11 0.5q8 0 14 -0.5t14 -0.5q5 0 14.5 -6.5t9.5 -16.5z" />
    <glyph glyph-name="x" unicode="x" horiz-adv-x="334" 
d="M190 432q7 -8 12.5 -15.5t9.5 -20t7.5 -31t7.5 -47.5q2 -13 3.5 -16t3.5 -3q3 0 7 3.5t8 6.5q39 32 78 60.5t77 57.5q6 5 9.5 6t13.5 1q8 0 15.5 -2.5t12.5 -8.5q7 -9 13 -16t6 -20q0 -4 -5.5 -6.5t-9.5 -4.5q-56 -32 -106 -71t-97 -81q-8 -7 -12 -11t-5.5 -7.5t-2 -8
t-0.5 -11.5q0 -58 6 -108t6 -101q0 -19 -1 -32t-5 -40q-1 -5 -7.5 -8t-14.5 -3q-6 0 -10.5 1t-9.5 1t-8 3t-11 8q-7 4 -12.5 8.5t-7.5 12.5q-2 10 -2 18q0 11 2.5 21.5t6.5 18.5t4 10q0 4 -0.5 8t-1.5 11q-3 25 -4.5 48t-4.5 47q-2 11 -2.5 13.5t-2.5 2.5t-3.5 -2t-6.5 -9
q-4 -6 -13 -16t-19 -21t-18.5 -23.5t-11.5 -22.5q-2 -6 -6.5 -11t-11.5 -10q-14 -11 -32 -11q-2 0 -9 5t-15 13t-11.5 13.5t-3.5 13.5q0 4 1 6t9 11q35 41 71 80t69 77q6 7 7 10.5t1 13.5q0 7 -0.5 25t-2.5 39.5t-6.5 43.5t-12.5 39q-7 13 -9 13t-6 5q-3 4 -3.5 9.5
t-0.5 8.5q0 12 14 17t25 5q14 0 22.5 -4t16.5 -12z" />
    <glyph glyph-name="y" unicode="y" horiz-adv-x="436" 
d="M252 460q0 -13 -2 -22t-8 -20t-10 -16.5t-6.5 -8.5t-4.5 -5t-5 -8q-13 -28 -22 -52.5t-16.5 -48t-14.5 -48.5t-17 -55q-3 -9 -4.5 -16.5t-3.5 -15.5t-3.5 -16t-1.5 -16q0 -16 5 -16q10 0 22 6q14 7 32.5 20.5t46.5 45.5q6 7 15.5 16t21.5 24q12 14 26.5 28.5t31 36
t34.5 53t36 79.5q2 6 10.5 18t15.5 12q8 0 13.5 -3.5t17.5 -3.5t19 -3.5t10.5 -9t4.5 -12t1 -11.5q0 -14 -7.5 -26.5t-15.5 -24.5q-4 -5 -7.5 -11t-11.5 -19q-19 -29 -34 -61.5t-27 -67.5q-3 -9 -11 -30.5t-17 -45t-16.5 -44.5t-10.5 -30q-7 -21 -9.5 -29t-2.5 -11
q0 -2 4 -2q2 0 4.5 0.5t4.5 0.5q5 0 11.5 -3t6.5 -8q0 -11 -2 -16.5t-4 -8.5q-51 -68 -78.5 -139t-42.5 -143q-3 -15 -5.5 -32.5t-8.5 -33t-17 -27t-31 -14.5q-6 -1 -12 -2.5t-15 -1.5q-6 0 -12.5 1t-12 4.5t-9.5 11t-4 21.5q0 29 21 79q17 39 38.5 83.5t47.5 87.5
q1 7 6.5 27.5t14 49t19 61t20.5 63.5q6 20 10 32t5.5 18.5t2 9t0.5 3.5q0 4 -3 4t-14 -11q-13 -13 -30.5 -26.5t-34 -25t-29 -18.5t-16.5 -7q-62 0 -95 40q-4 5 -5 8.5t-1 15.5q0 52 10.5 97t26.5 88t33.5 86.5t32.5 92.5q5 15 17.5 22t17.5 7q4 0 12 -2.5t16 -2.5t17 -6
t9 -16z" />
    <glyph glyph-name="z" unicode="z" horiz-adv-x="384" 
d="M428 410q4 -11 4 -21q0 -12 -4.5 -20.5t-13.5 -17t-22.5 -18.5t-30.5 -24q-6 -5 -6 -8t11 -3q20 0 42.5 -5.5t36.5 -21.5q5 -6 6.5 -8.5t1.5 -6.5q-3 -8 -7.5 -11.5t-15.5 -3.5q-13 0 -32.5 -2t-42.5 -5.5t-47.5 -8.5t-46.5 -12q-20 -6 -26.5 -9.5t-16.5 -12.5
q-12 -11 -25 -25t-25.5 -28.5t-24.5 -27t-21 -20.5q-6 -5 -9 -14.5t-3 -12.5q0 -5 3 -8t11 -7q17 -8 29 -8q15 0 32 6t34 6q16 0 30.5 6t28.5 13.5t28.5 13.5t29.5 6q11 0 22 -3.5t23 -14.5q7 -6 7 -19q0 -2 -1 -4.5t-9 -5.5q-24 -10 -50 -20.5t-52.5 -19.5t-54.5 -15
t-56 -6q-26 0 -55.5 7t-49.5 19q-18 11 -24 28t-6 34q0 5 0.5 13t2.5 12q10 21 25.5 38.5t31.5 34.5q8 8 12.5 14t4.5 9t-1.5 4.5t-11.5 4.5q-9 3 -17.5 7t-13.5 14q-7 12 -9.5 18.5t-2.5 14.5q0 7 8 13t18 6q17 0 33 -7t41 -7t43.5 10.5t34 25t30 30t31.5 24.5
q20 11 33.5 26t13.5 24q0 4 -5.5 5.5t-10.5 1.5q-12 0 -20 -4t-30 -6q-29 -3 -52.5 -16.5t-40.5 -33.5q-1 -1 -2.5 -1.5t-6.5 -0.5t-15 9t-14 20q-5 15 -5 24q0 25 20 30q37 9 78.5 21t81.5 12q29 0 55 -8t32 -16q5 -5 13.5 -11t12.5 -16z" />
    <glyph glyph-name="braceleft" unicode="{" horiz-adv-x="346" 
d="M519 733q-29 0 -48 -5t-32 -15t-21 -24.5t-15 -33.5q-19 -51 -36.5 -105.5t-39.5 -127.5q-16 -51 -36.5 -81t-58.5 -36q-3 0 -3 -2t3 -2q28 -16 28 -52t-10 -66l-68 -218q-5 -14 -6.5 -23.5t-1.5 -20.5q0 -15 10 -28.5t42 -13.5h40q11 0 16.5 -9t5.5 -14q0 -15 -2.5 -22
t-6 -11t-7 -6t-5.5 -8q-2 -7 -13.5 -8t-19.5 -1q-73 0 -113.5 26.5t-40.5 74.5q0 17 2.5 31t7.5 31l65 206q6 18 12 38t6 31q0 27 -40 27q-28 0 -33 3t-5 13q0 2 -4.5 2.5t-4.5 8.5q0 6 1.5 12t4.5 14q6 17 14 21.5t25 4.5h12q22 0 37 5t26.5 17.5t21.5 34.5t21 55l59 177
q17 52 36 86t41 54t48 28t59 8h20q23 0 38.5 -2.5t15.5 -11.5q0 -5 3.5 -7t3.5 -13q0 -8 -5 -17q-8 -17 -14 -21t-23 -4h-12v0z" />
    <glyph glyph-name="bar" unicode="|" horiz-adv-x="270" 
d="M417 768q0 -16 -1 -21t-4 -10q-12 -18 -19.5 -23.5t-12.5 -15.5q-19 -44 -41.5 -105t-45.5 -131t-47.5 -146t-48 -150.5t-46.5 -144.5t-43 -128q-15 -43 -25.5 -67t-20.5 -24q-12 0 -19.5 2t-15.5 8q-11 8 -19 10t-8 11q0 14 2 25t5 21q3 9 10.5 22.5t12.5 27.5l261 782
q17 53 31.5 74t37.5 21q6 0 16.5 -2t17.5 -10t15 -13t8 -13z" />
    <glyph glyph-name="braceright" unicode="}" horiz-adv-x="346" 
d="M-57 -122q31 0 48.5 3t28 10.5t16.5 20.5t12 32l80 242q17 50 38 81t59 39q3 0 3 2t-3 2q-29 13 -29 50q0 9 2 27t9 38l70 221q7 20 9.5 33t2.5 26q0 16 -15 21.5t-42 5.5h-41q-11 0 -17 6.5t-6 14.5q0 18 5.5 25.5t11.5 21.5q2 6 19 7.5t43 1.5h24q13 0 32 -5
t35.5 -16.5t28.5 -30.5t12 -46q0 -17 -2.5 -34t-7.5 -31l-69 -206q-7 -21 -12 -38t-5 -31q0 -27 40 -27h19q17 0 23.5 -3t6.5 -11q0 -25 -6.5 -35t-10.5 -18t-13 -10t-29 -2q-14 0 -27.5 -3.5t-27 -15t-26.5 -34t-25 -59.5l-59 -177q-17 -52 -33 -86t-36 -54t-48.5 -28
t-71.5 -8h-15q-37 0 -50.5 3.5t-13.5 14.5q0 20 6.5 27.5t10.5 18.5q2 8 12 11t19 3h15v0z" />
    <glyph glyph-name="asciitilde" unicode="~" horiz-adv-x="550" 
d="M115 270q-2 11 -4.5 14.5t-5 5t-4 3t-1.5 7.5q0 8 1.5 13t8.5 10q27 17 48 29t38 19.5t32.5 10.5t32.5 3q28 0 47.5 -15t36.5 -33t34 -33t39 -15q21 0 38.5 9t31 19.5t23 19.5t14.5 9q12 0 22 -7.5t11 -16.5q0 -4 1.5 -4.5t3 -1.5t3 -3t1.5 -8q0 -5 -2 -8.5t-9 -9.5
q-14 -13 -31.5 -26.5t-35.5 -25t-35.5 -18.5t-32.5 -7q-18 0 -31.5 2.5t-26 8.5t-25 16.5t-27.5 25.5q-14 13 -22 21t-15 12.5t-14.5 5.5t-19.5 1q-9 0 -21 -7t-42 -30q-6 -5 -13 -8t-25 -3q-23 0 -24 15z" />
    <glyph glyph-name="nonbreakingspace" unicode="&#xa0;" horiz-adv-x="246" 
 />
    <glyph glyph-name="exclamdown" unicode="&#xa1;" horiz-adv-x="320" 
d="M322 637q8 -1 14.5 -7.5t6.5 -16.5q0 -6 -3 -14t-8 -23q-5 -12 -12.5 -22t-18.5 -10q-5 0 -11.5 -1t-17.5 -1q-18 0 -25.5 17.5t-7.5 40.5q0 8 1.5 12.5t6.5 13.5q3 6 6 14t14 8q10 0 16 -1.5t11.5 -3t12 -3.5t15.5 -3zM91 89q4 11 7 14t5 4.5t4.5 4.5t4.5 12
q10 42 19.5 74t20 65.5t23.5 74.5t30 101q3 11 7.5 15t9.5 4q20 0 28 -8q14 -14 21 -23t7 -20q0 -5 -2.5 -14.5t-4.5 -15.5q-3 -7 -3.5 -11.5t-1 -8t-1 -8t-2.5 -11.5q-20 -58 -32 -98t-19.5 -67t-11 -43t-5 -27.5t-3.5 -20t-6 -19.5t-8.5 -24t-9 -25t-7.5 -22t-4 -16
q-2 -7 -7.5 -8t-16.5 -1q-7 0 -10 1.5t-6 4.5t-8 7t-15 9q-11 5 -13 14t-2 19q0 20 3.5 37t8.5 30z" />
    <glyph glyph-name="cent" unicode="&#xa2;" horiz-adv-x="434" 
d="M168 242q-6 -18 -11 -30t-8.5 -23t-5.5 -23t-2 -31q0 -6 0.5 -18.5t5.5 -23.5q8 -20 14.5 -24.5t8.5 -4.5q5 0 6 1.5t3 6.5q3 11 5.5 18t5.5 17q15 46 29.5 89.5t27 81.5t23 69t16.5 51q0 5 -5 5t-20 -16t-33 -40t-34.5 -52t-25.5 -53zM351 389q-2 -5 -10.5 -30.5
t-20 -61t-24.5 -76t-24 -75.5t-18.5 -60t-7.5 -29q0 -3 5 -3q8 0 24 5.5t33 16.5q7 5 13.5 13t13.5 13q23 15 40 21.5t28 6.5q12 0 24 -9q5 -4 9 -8.5t4 -9.5q0 -2 -2.5 -8t-16.5 -16q-42 -29 -72 -45.5t-50 -25t-32 -11t-18 -3.5q-11 -2 -16 -3t-7 -6q-1 -3 -3.5 -10
t-5.5 -15.5t-6 -16.5t-5 -12q-5 -13 -11.5 -22t-17.5 -9q-8 0 -13.5 5.5t-21.5 14.5q-7 4 -10 9t-3 10q0 6 2 10.5t6 10.5t8 15.5t9 24.5q0 4 -10 8q-39 17 -63.5 54t-24.5 72q0 13 2.5 42.5t15.5 59.5q18 43 36 74t34.5 53t32 36.5t29.5 24.5q16 12 28 19.5t22.5 12t21 6
t24.5 1.5q5 0 8 8q13 40 22.5 55t24.5 15q5 0 10.5 -1t13.5 -1q6 0 17 -5t11 -10q0 -4 -6 -10.5t-15 -25.5q-14 -30 -14 -35q0 -4 6 -6q10 -5 18.5 -9.5t16.5 -11.5q12 -11 26 -26.5t14 -40.5q0 -8 -3.5 -23.5t-13.5 -53.5q-3 -10 -3.5 -18t-3 -13.5t-7.5 -8.5t-16 -3
q-9 0 -19 4t-17.5 10t-12.5 11.5t-5 8.5q0 16 5.5 31t10.5 34q4 14 5 23t1 11q0 18 -8 21t-11 3q-4 0 -6 -7z" />
    <glyph glyph-name="sterling" unicode="&#xa3;" horiz-adv-x="490" 
d="M229 233q-14 -34 -26 -64.5t-21.5 -55t-15 -40t-6.5 -19.5q0 -4 1.5 -4.5t9.5 -0.5q3 0 20 3t41.5 7.5t52.5 10.5t52.5 12t42 11t20.5 8q2 2 10.5 3.5t18 2t17.5 0.5h11q13 0 19 -2.5t17 -14.5q5 -6 6.5 -9t6.5 -8q10 -10 12 -13.5t2 -13.5q0 -6 -4.5 -13.5t-22.5 -7.5
q-10 0 -13.5 0.5t-19.5 0.5q-8 0 -38 -6t-70.5 -14.5t-85 -17.5t-80.5 -14q-31 -5 -61.5 -6.5t-50.5 -1.5h-13q-7 0 -12 1q-13 2 -18 7t-7 12t-3.5 15.5t-6.5 16.5q-4 5 -4 13q0 2 2.5 7.5t4.5 7.5q3 3 10.5 4t15.5 1t13 -1.5t16 -1.5q8 0 8 4q-2 3 -3 7t-1 11q0 5 5 20.5
t13.5 37t19 47t21.5 52.5q2 5 2 7q0 4 -14 5q-17 2 -25 7t-8 28q0 8 -4 14t-4 21q0 5 6 6t26 1q4 0 19 1.5t32 3.5q10 2 12.5 4.5t4.5 6.5l12 27q44 99 82.5 157.5t73 89t65.5 39.5t60 9q12 0 29 -3.5t28 -17.5q18 -22 31.5 -36t13.5 -36q0 -7 -5 -22.5t-10.5 -32t-10.5 -31
t-5 -20.5q0 -8 -8 -17.5t-21 -9.5q-7 0 -13.5 3t-17.5 5q-14 3 -20.5 8t-6.5 28q0 6 3.5 13.5t7.5 15.5t8 16.5t4 16.5q1 11 5.5 19t4.5 23q0 3 -2 10.5t-9 7.5q-17 0 -38.5 -12t-45 -36t-47 -59t-44.5 -80l-25 -54q-4 -8 -4 -11q0 -5 6 -5l38 8q22 5 33.5 6.5t16.5 1.5
q13 0 19 -3t17 -14q10 -10 13 -15.5t3 -15.5q0 -6 -1.5 -14.5t-7.5 -8.5q-10 0 -17.5 -3t-25.5 -4q-17 -1 -43.5 -6.5t-65.5 -13.5q-19 -3 -23.5 -6t-9.5 -16z" />
    <glyph glyph-name="currency" unicode="&#xa4;" horiz-adv-x="646" 
d="M198 360q13 25 25 48t26.5 45t31.5 44t40 45q11 11 16.5 19t14.5 16t55 23t136 36q61 14 112.5 21t72.5 7q14 0 26 -6t20.5 -14t13 -17t4.5 -15q0 -7 -6.5 -17t-19.5 -10q-9 0 -24 -2.5t-24 -2.5q-8 0 -13.5 1.5t-14.5 1.5q-11 0 -41 -5.5t-68.5 -14t-80.5 -19.5t-76 -21
q-8 -2 -11.5 -4t-8.5 -8q-5 -5 -9.5 -10.5t-17.5 -18.5q-38 -38 -54 -64.5t-16 -29.5q0 -4 4 -4q2 0 19 5.5t43 13.5t57 18t61.5 18t57 13.5t42.5 5.5q8 0 15 -3t18 -16q14 -17 14 -30q0 -6 -4.5 -11.5t-15.5 -13.5q-6 -4 -19.5 -8.5t-22.5 -4.5q-2 0 -6.5 0.5t-13.5 0.5
q-18 0 -35 -2.5t-45.5 -10t-74.5 -23t-122 -40.5q-11 -4 -14.5 -6.5t-5.5 -9.5q-5 -16 -7.5 -28.5t-2.5 -14.5q0 -7 5 -7q1 0 5 1t16 5t36.5 12t68.5 22q62 20 90.5 27.5t34.5 7.5q17 0 26 -1.5t17 -8.5q15 -14 19.5 -21.5t4.5 -19.5q0 -5 -2.5 -10t-17.5 -10
q-22 -8 -30 -9.5t-18 -1.5q-5 0 -19 -1.5t-41.5 -8.5t-71 -20t-107.5 -36q-11 -4 -14 -6t-3 -7q0 -2 1 -9.5t5 -16.5q12 -28 40 -48t79 -20q35 0 66.5 13t49.5 25q10 7 13.5 10.5l7 7t10.5 9.5t25 18q5 3 13.5 4t11.5 1q9 0 24.5 -5t27.5 -12q7 -4 9 -11.5t2 -13.5
q0 -5 -1 -8.5t-6 -8.5t-17 -13.5t-33 -23.5q-48 -33 -98.5 -47.5t-99.5 -14.5q-85 0 -137 34t-69 94q-2 8 -3.5 10t-4.5 2t-11 -2.5t-18 -6t-20.5 -6t-19.5 -2.5q-8 0 -17 2t-20 14q-4 4 -4 21q0 32 12 36q23 8 33 10t15 2q8 0 14 1t18 5q11 4 13.5 8t3.5 11q2 14 3 23t1 12
q0 5 -5 5q-2 0 -9.5 -2.5t-17 -6t-19 -6t-14.5 -2.5q-14 0 -19.5 0.5t-9.5 3.5q-10 8 -14 14.5t-4 11.5q0 14 5 28t16 20t25.5 10.5t18.5 4.5q17 0 26.5 2t26.5 8q11 4 15.5 8t9.5 13z" />
    <glyph glyph-name="yen" unicode="&#xa5;" horiz-adv-x="474" 
d="M179 144q2 5 5.5 16t3.5 14q0 5 -7 5q-8 0 -17.5 -0.5t-17.5 -0.5q-21 0 -37 0.5t-21 2.5q-7 3 -11.5 17.5t-4.5 34.5q0 5 2.5 5.5t5.5 5.5t6.5 6.5t11.5 1.5q4 0 12.5 -1.5t19.5 -3t23 -2.5t23 -1q23 0 27 3.5t4 11.5v31q0 19 -0.5 37t-0.5 33v23q0 45 1.5 74.5
t1.5 49.5q0 19 -2 31t-2 21v27q0 4 -0.5 9t-0.5 11q0 11 6 18.5t14 7.5q6 0 15 2t17 2q20 0 26 -7q2 -2 5 -6t3 -12q0 -5 2.5 -11t2.5 -11q-2 -63 -5 -119t-3 -101q0 -18 5 -18q6 0 18 12l33 33l33 33t36 37t43 46t38 46t22 49q2 9 3 15.5t1 9.5q0 6 7 8t17 2q5 0 14 -2
t14 -2q7 0 9.5 -4t11.5 -4q7 0 9.5 -7t2.5 -18q0 -9 -5.5 -24t-15.5 -32.5t-23 -35.5t-29 -34q-38 -38 -73.5 -74t-64 -64.5t-47 -46.5t-22.5 -21q-11 -7 -11 -14q0 -4 7 -4q2 0 14 1.5t26 3.5t27 3.5t16 1.5q12 0 17.5 -1t12.5 -6q3 -2 4 -6.5t1 -7.5q-1 -12 -2.5 -19
t-6.5 -15q-3 -5 -4.5 -11t-6.5 -6q-6 0 -12.5 1t-17.5 1q-2 0 -17 -1t-33 -2.5t-33 -2.5t-18 -1q-11 0 -12 -6q-3 -8 -7.5 -20.5t-4.5 -14.5q0 -5 6 -5q3 0 18 1.5t32.5 3t33 3t18.5 1.5q11 0 16.5 -0.5t10.5 -4.5q2 -2 5 -6.5t3 -6.5q0 -10 -2.5 -20t-5.5 -20
q-1 -2 -4.5 -6.5t-5.5 -4.5q-9 0 -17 2t-22 2q-14 -2 -30.5 -3.5t-31.5 -3t-26 -2t-13 -0.5q-5 0 -7 -2t-6 -12q-3 -9 -7 -22.5t-7 -26.5t-5.5 -23t-2.5 -12q0 -5 1 -7t1 -4q0 -8 -8 -20.5t-10 -33.5q-1 -8 -11.5 -13.5t-26.5 -5.5q-5 0 -8 3.5t-8 3.5q-11 0 -22 7.5
t-11 9.5t2.5 10.5t5.5 19t6.5 21t5.5 15.5q2 4 4 11.5t4.5 16.5l5 18t5.5 16q4 10 5 14t1 6q0 4 -5 4q-2 0 -8.5 -0.5t-15.5 -0.5q-8 0 -16 -0.5t-14 -0.5q-26 0 -32 3q-8 4 -17.5 17.5t-9.5 31.5q0 4 2.5 5.5t4.5 7.5q1 4 5.5 5.5t10.5 1.5q4 0 26.5 -3t49.5 -3t34 1.5
t9 7.5z" />
    <glyph glyph-name="brokenbar" unicode="&#xa6;" horiz-adv-x="292" 
d="M121 -75l-43 -112q-5 -13 -13 -13q-9 0 -13 1.5t-5.5 4t-3 5.5t-6.5 6q-12 7 -17.5 13t-5.5 15q0 8 2.5 15.5t7.5 20.5q8 21 8.5 30t4.5 20l71 213q3 9 7 18.5t8.5 18t10.5 14t14 5.5q9 0 13.5 -1t8.5 -2.5t7.5 -3t10.5 -2.5q14 -2 20.5 -9.5t6.5 -16.5q0 -12 -4 -31
t-12 -29q-6 -7 -14.5 -21.5t-13.5 -28.5zM271 634q8 21 15.5 42t22.5 47q5 8 23 8q7 0 12.5 -3.5t20.5 -7.5q9 -2 18 -8.5t9 -12.5q0 -10 -1 -15.5t-2 -10t-2 -8t-1 -8.5q0 -2 -2 -6t-8 -12q-25 -31 -45 -85q-6 -16 -15.5 -42l-19 -52t-17 -47t-8.5 -26q-6 -18 -9 -27.5
t-5.5 -14t-4.5 -5t-6 -0.5q-22 0 -27 11q-6 11 -11.5 17t-10 9t-7 5t-2.5 5q0 8 9.5 35t22.5 63z" />
    <glyph glyph-name="section" unicode="&#xa7;" horiz-adv-x="406" 
d="M204 108q1 -3 2.5 -4.5t8.5 -1.5q3 0 10.5 2t17 6.5t20 11.5t18.5 16q13 16 20 33.5t7 41.5q0 6 -0.5 14.5t-4.5 24.5t-12 41.5t-23 65.5q-2 6 -4 7t-5 1q-8 0 -19 -5t-22 -13t-21 -19t-16 -24q-7 -15 -9.5 -26t-2.5 -24q0 -6 0.5 -12t3.5 -26q5 -28 12.5 -52.5
t18.5 -57.5zM234 29q-8 -2 -9.5 -4t-1.5 -6q0 -2 1.5 -12t1.5 -30q0 -16 -3.5 -39t-11.5 -37q-13 -21 -27.5 -37.5t-40.5 -36.5q-19 -14 -38 -16.5t-33 -2.5q-24 0 -45 8t-36.5 23.5t-25 38t-9.5 52.5q0 17 3.5 25t9.5 11q11 5 21.5 14t18.5 9q10 0 16.5 -4.5t6.5 -12.5
q0 -9 3.5 -15.5t3.5 -20.5q0 -6 2.5 -17t8.5 -21.5t16 -18t26 -7.5q8 0 18.5 6.5t16.5 13.5q14 17 17.5 34.5t3.5 21.5q0 17 -2 32.5t-6 32t-10 35.5t-15 43q-10 28 -19 60.5t-9 83.5q0 10 1 23.5t3.5 27t6 26t8.5 20.5q26 44 58.5 68.5t55.5 31.5q13 4 16 5.5t3 4.5
q0 2 -0.5 5.5t-1.5 8.5q-2 8 -3 21.5t-1 24.5q0 38 14.5 69.5t50.5 64.5q15 14 39.5 25t73.5 11q11 0 23.5 -3.5t20.5 -11.5q10 -8 21 -31.5t11 -49.5q0 -11 -3.5 -18.5t-7.5 -8.5q-12 -2 -20 -9.5t-27 -7.5q-6 0 -9 7q-6 16 -6 25q0 10 -2 15q-5 18 -11.5 25.5t-20.5 7.5
q-9 0 -20.5 -4.5t-21.5 -14t-17 -25.5t-7 -38q0 -20 4.5 -40t11 -39t14 -36.5l13.5 -31.5q13 -28 23.5 -65.5t10.5 -82.5q0 -18 -4 -45t-13 -45q-8 -17 -16.5 -28t-18 -21t-21.5 -20.5l-28 -24.5q-8 -7 -25 -13t-31 -9z" />
    <glyph glyph-name="dieresis" unicode="&#xa8;" 
d="M543 764q2 -7 6.5 -15.5t4.5 -16.5q0 -12 -2 -16q-8 -17 -13.5 -25t-11.5 -11q-5 -2 -14.5 -3t-14.5 -1q-17 0 -24 15q-5 11 -13 19.5t-8 23.5q0 3 2 11t6 16.5t9.5 15t13.5 6.5q2 0 8.5 -0.5t11.5 -0.5q13 0 25 -4.5t14 -13.5zM358 822q5 -8 8 -17.5t3 -14.5
q0 -9 -3.5 -17t-7.5 -14t-8 -10.5t-4 -7.5q0 -4 -5 -7t-11 -5.5t-12.5 -3.5t-10.5 -1h-8q-5 0 -7 2q-9 6 -12 12t-8 11q-2 2 -2 29q0 5 4.5 19t8.5 22q5 10 14 13t21 3q8 0 21.5 -2t18.5 -11z" />
    <glyph glyph-name="copyright" unicode="&#xa9;" horiz-adv-x="796" 
d="M587 258q26 0 26 -17q0 -2 2.5 -4t2.5 -6q0 -9 -6 -12q-9 -5 -23 -22q-37 -45 -71 -74t-77 -29q-8 0 -20.5 1t-24.5 3q-35 7 -61.5 22.5t-43.5 41.5q-11 17 -16 39.5t-5 37.5q0 63 22 112.5t57 96.5q11 15 27 31.5t37 31t46.5 24t54.5 9.5q22 0 41 -4q20 -5 38.5 -18
t32.5 -27q2 -2 5.5 -11t3.5 -14q0 -20 -7.5 -36.5t-7.5 -34.5q0 -4 -8 -8t-22 -4q-10 0 -20 1.5t-15 3.5q-10 3 -15 7.5t-5 7.5q0 21 8.5 34.5t8.5 29.5q0 11 -9.5 13t-20.5 2q-20 0 -40 -14t-37.5 -34t-31 -41.5t-20.5 -35.5q-13 -25 -28 -67t-15 -89q0 -20 12.5 -38.5
t46.5 -18.5q18 0 38.5 10.5t49.5 47.5q25 31 39 41.5t28 10.5h23zM498 603q-74 0 -131 -31.5t-96 -82.5t-59.5 -115t-20.5 -128q0 -58 20 -97t52.5 -63t72 -34.5t78.5 -10.5q79 0 138.5 31t99.5 79.5t59.5 109t19.5 120.5q0 58 -17.5 100t-48.5 69t-73.5 40t-93.5 13z
M422 -20q-18 0 -42 3.5t-48.5 9.5t-46.5 15t-37 20q-18 13 -40.5 32t-42.5 47.5t-33.5 69t-13.5 97.5q0 70 25 141t71.5 127.5t112 92t145.5 35.5q34 0 64 -2.5t56 -9.5t49 -20t45 -35q10 -10 21 -19.5t22 -20.5t23 -25.5t23 -33.5q13 -23 24.5 -56t11.5 -78q0 -34 -8 -79
t-28.5 -92t-56 -92t-90.5 -79q-50 -31 -99 -39.5t-107 -8.5z" />
    <glyph glyph-name="ordfeminine" unicode="&#xaa;" horiz-adv-x="442" 
d="M430 572q0 11 -15 11q-12 0 -27.5 -4.5t-21.5 -6.5q-23 -6 -54.5 -31t-61 -58t-50 -69.5t-20.5 -64.5q0 -6 8 -6q7 0 24 10t39.5 25.5t46.5 35t45 38.5t35.5 36t18.5 28q2 7 7.5 14.5t11 14.5t10 14t4.5 13zM104 157h-24q-10 0 -19 2q-8 2 -13.5 6.5t-8.5 18.5
q-2 7 -3.5 9.5t-2.5 4.5t-2 6t-1 16q0 10 6 13.5t35 3.5q10 0 14 -2.5t13 -2.5q17 0 23.5 -1t9.5 -1.5t6 -1.5t13 -1q45 0 90 2t91 2q16 0 30.5 1t28.5 1t26 -0.5t20 -2.5t7 -7t7 -12q7 -6 7 -16q0 -8 -1.5 -15t-6.5 -15q-3 -5 -10 -6t-30 -1q-15 0 -43.5 0.5t-66.5 0.5
q-18 0 -37 -0.5t-42 -0.5q-22 0 -50.5 -0.5t-65.5 -0.5zM481 602q6 -6 17.5 -7t16.5 -6q11 -9 11 -17t-3.5 -14.5t-8.5 -9.5t-8 -8.5t-7 -10.5q-11 -15 -22.5 -36t-21.5 -44t-16 -47t-6 -46q0 -14 4.5 -32.5t17.5 -33.5q0 -10 -3.5 -14t-8.5 -4q-8 -3 -18 -5.5t-19 -2.5
q-7 0 -14.5 3.5t-12.5 11.5q-14 25 -15 47.5t-3 45.5q0 6 -7 6q-10 -8 -30 -25t-42.5 -34.5t-43.5 -31t-33 -13.5q-6 0 -19 3.5t-27 11t-26.5 18.5t-18.5 26q-5 13 -5 25q0 22 7.5 43.5t19 42t24.5 39t25 34.5q18 25 46 48t58.5 41t59.5 28.5t48 10.5q31 0 49 -13t35 -30z
" />
    <glyph glyph-name="guillemotleft" unicode="&#xab;" horiz-adv-x="410" 
d="M267 276q-9 14 -9 28q0 8 1.5 10.5t2.5 5.5q2 6 4.5 12.5t6.5 11.5l79 89q13 16 21 24.5t13 12.5t9 4.5t10 0.5t14 -3.5t17 -23.5q5 -11 9.5 -14t4.5 -10q0 -8 -7 -15q-12 -13 -19.5 -17t-18.5 -15l-54 -51q-7 -7 -7 -13t3 -12q1 -3 8 -15.5t15 -27t14.5 -26.5t7.5 -14
q3 -5 3.5 -11t0.5 -16q0 -9 -7 -14q-2 -2 -4 -4.5t-10 -8.5q-2 -2 -6.5 -4.5t-7.5 -2.5q-9 0 -12 4q-3 5 -5.5 9t-7.5 11l-69 95v0zM106 276q-2 3 -3 9.5t-1 13.5q0 6 -1 11t-1 7q0 7 3.5 14.5t7.5 12.5l77 84q15 17 24 26.5t14.5 14t8 5.5t5.5 1q15 0 19 -3t6 -8q2 -7 5 -9
t7 -9q3 -5 6 -11.5t3 -13.5q0 -3 -1 -6t-5 -8t-12.5 -12t-23.5 -19q-20 -15 -31 -27t-24 -22q-6 -5 -6 -13q0 -5 3 -12q12 -26 22.5 -47.5t14.5 -26.5q5 -6 6.5 -12t1.5 -17q0 -6 -0.5 -13t-2.5 -9q-7 -10 -14 -15t-23 -5q-4 0 -9.5 6.5t-9.5 15.5q-1 3 -8.5 14t-17.5 25.5
t-21 30t-19 27.5z" />
    <glyph glyph-name="logicalnot" unicode="&#xac;" horiz-adv-x="590" 
d="M519 357q4 0 9.5 -3.5t10.5 -8.5t9 -9.5t4 -7.5q0 -1 -2 -11q-1 -4 -2 -7.5t-2 -5.5q-14 -57 -21.5 -86t-11.5 -40q-2 -6 -2.5 -13t-4.5 -21q-5 -17 -9 -21.5t-12 -4.5h-20q-4 0 -9 -1t-10 -1q-8 0 -14 2.5t-6 9.5t2.5 15.5t7 21.5t10.5 31t13 44q4 15 4 25q0 9 -6 11
t-26 2q-41 0 -84.5 2t-107.5 2q-15 0 -20.5 -1.5t-10.5 -2.5q-13 -2 -30 -2h-31q-3 0 -8.5 0.5t-5.5 5.5q0 6 -1.5 9t-1.5 8q0 4 2.5 11.5t5.5 15.5t6 14l4 8q2 3 5.5 4.5t14 2.5t32 1.5t59.5 0.5h89q34 0 67.5 -1.5t66.5 -1.5q12 0 20.5 1.5t16.5 1.5z" />
    <glyph glyph-name="registered" unicode="&#xae;" horiz-adv-x="658" 
d="M487 548q-2 3 -6 4.5t-8 1.5q-8 0 -12 -1.5t-13 -3.5q-5 -1 -7 -2.5t-5 -6.5q-9 -16 -15 -28t-10.5 -23.5t-9 -24.5t-10.5 -31q10 0 21.5 2.5t24.5 10.5q22 14 37 36.5t15 49.5q0 4 -0.5 9t-1.5 7zM427 273q-21 25 -33.5 49.5t-21.5 50.5q-7 -10 -8.5 -19.5t-4.5 -18.5
t-5.5 -21.5t-4 -23.5t-2 -19t-0.5 -9q0 -5 -4 -7q-8 -4 -18 -4q-5 0 -9.5 0.5t-9.5 3.5q-7 5 -14 6.5t-7 7.5q0 2 0.5 4.5t2.5 19.5q6 42 18 82.5t28 88.5q5 16 10 28.5l7 17.5q4 9 4 10t-3 4q-6 6 -10.5 13t-4.5 14q0 2 0.5 2.5t5.5 3.5q26 18 57.5 29.5t61.5 11.5
q31 0 60 -12q8 -3 17 -12t11 -13q5 -17 5 -38q0 -28 -13.5 -52.5t-32.5 -43.5q-10 -10 -27.5 -20t-54.5 -18q13 -27 23 -43t18 -25t16.5 -13.5t18.5 -7.5q5 -2 6 -4q6 -11 6 -24q0 -14 -5 -17.5t-10 -5.5q-3 -1 -8 -1.5t-14 -0.5q-14 0 -28 7.5t-23 18.5zM635 493
q-4 37 -20 64.5t-41.5 45.5t-57.5 26.5t-67 8.5q-57 0 -101 -26t-73 -66.5t-44 -90t-15 -95.5q0 -36 12.5 -66t34.5 -52t53 -34t67 -12q54 0 92.5 14.5t67.5 40.5q50 45 71.5 102.5t21.5 113.5v13t-1 13zM387 138q-30 0 -67 10.5t-63 27.5q-23 15 -40 28t-29.5 28t-21.5 33
t-15 44q-4 15 -6.5 30t-2.5 25q0 51 18.5 109.5t54.5 108.5t88 83t120 33q65 0 104 -10t68 -42q14 -15 37 -32.5t43 -49.5q17 -29 25 -54t8 -60q0 -24 -6.5 -56.5t-21.5 -67t-39 -68t-60 -60.5t-84 -43.5t-110 -16.5z" />
    <glyph glyph-name="macron" unicode="&#xaf;" 
d="M424 783q16 0 34.5 0.5t36.5 1t33.5 1t25.5 0.5q8 0 8.5 -4.5t5.5 -9.5q4 -4 4 -7q0 -2 -1 -5t-1 -6q0 -12 -0.5 -17.5t-5.5 -13.5t-16 -8q-7 0 -18 0.5t-19 0.5q-7 0 -25.5 -0.5t-41.5 -0.5q-22 0 -46.5 -0.5t-43.5 -0.5q-30 0 -51.5 1t-26.5 3q-22 8 -22 55q0 14 34 14
q12 0 22 -0.5t24 -1.5t35 -1.5t55 -0.5z" />
    <glyph glyph-name="macron" unicode="&#x2c9;" 
d="M424 783q16 0 34.5 0.5t36.5 1t33.5 1t25.5 0.5q8 0 8.5 -4.5t5.5 -9.5q4 -4 4 -7q0 -2 -1 -5t-1 -6q0 -12 -0.5 -17.5t-5.5 -13.5t-16 -8q-7 0 -18 0.5t-19 0.5q-7 0 -25.5 -0.5t-41.5 -0.5q-22 0 -46.5 -0.5t-43.5 -0.5q-30 0 -51.5 1t-26.5 3q-22 8 -22 55q0 14 34 14
q12 0 22 -0.5t24 -1.5t35 -1.5t55 -0.5z" />
    <glyph glyph-name="degree" unicode="&#xb0;" horiz-adv-x="384" 
d="M400 600q-5 13 -12 21t-15 8q-10 0 -16 -2t-16 -11q-48 -45 -71.5 -85.5t-23.5 -74.5q0 -17 5 -28t11.5 -17t13.5 -8.5t12 -2.5q6 0 13.5 2.5t15.5 12.5q24 31 41 54.5t28 41.5t16 32t5 27q0 8 -2 15t-5 15zM382 376q-10 -8 -28.5 -15.5t-41.5 -7.5q-24 0 -47 10
q-22 10 -41 25.5t-27 29.5q-23 41 -23 73t17.5 62.5t44.5 67.5q7 10 19.5 20t26 18t27 13t24.5 5t21.5 -0.5t21 -3t23 -8.5t27.5 -17q10 -7 19.5 -18t16.5 -24t11 -27t4 -27q0 -12 -5 -32.5t-16.5 -45t-29.5 -50.5t-44 -48z" />
    <glyph glyph-name="plusminus" unicode="&#xb1;" horiz-adv-x="590" 
d="M511 86q0 -12 -2 -22t-6 -20q-3 -8 -8 -8q-6 0 -13.5 1t-13.5 1q-14 0 -42 -1.5t-62 -3t-70 -2.5t-66 -1q-20 0 -40 1t-38 2.5t-31.5 2.5t-19.5 1q-5 0 -9 7.5t-6.5 17.5t-4 20.5t-1.5 16.5q0 16 34 16q12 0 51 -4t107 -4q14 0 40.5 1t57 2.5t60.5 3t52 1.5q8 0 13 -2
t15 -12q2 -5 2.5 -7.5t0.5 -7.5zM407 398q6 1 11 1h11q7 0 23 1.5t33.5 4t32.5 4t21 1.5q23 0 37 -14q3 -3 3.5 -5t0.5 -7q0 -11 -4.5 -20.5t-8.5 -19.5t-10 -10q-4 0 -7.5 1t-7.5 1q-6 0 -13 -0.5t-13 -1.5q-18 -2 -33.5 -3.5t-30.5 -2.5t-31.5 -2.5t-37.5 -4.5q-6 0 -7 -3
q-7 -24 -11 -40.5t-7 -31.5t-6 -30.5t-6 -37.5q-2 -15 -7 -24.5t-27 -9.5q-4 0 -8.5 -1.5t-7.5 -1.5q-17 0 -23.5 5.5t-6.5 8.5q0 24 7 49.5t15 66.5l7 36q0 6 -5 6h-38q-11 0 -25 1t-27.5 2.5t-24 3t-14.5 3.5q-8 3 -13 18t-5 39q0 6 9 13q8 7 18 7h6t8 -2q6 -2 18.5 -3
t25.5 -2t25 -1h18h27q22 0 24 7q3 8 7 22t8.5 28t8.5 26.5t5 17.5q7 29 12.5 41t10.5 14q18 5 26.5 9t15.5 4q6 0 15.5 -2t11.5 -4q5 -5 5 -10q0 -2 -1.5 -6t-2.5 -7l-11 -35q-9 -29 -15 -49t-15 -45q0 -5 4 -5z" />
    <glyph glyph-name="twosuperior" unicode="&#xb2;" horiz-adv-x="364" 
d="M354 596q-14 0 -26.5 -7t-22.5 -17t-17.5 -19.5t-10.5 -13.5q-5 -6 -10.5 -11t-8.5 -12q-4 -9 -8.5 -11.5t-11.5 -3.5t-11 -2t-6 -1q-11 0 -17.5 2.5t-11.5 7.5q-13 13 -13 32q0 11 7 20.5t12 15.5q11 16 27.5 28t36.5 24q25 15 43.5 18.5t47.5 3.5q13 0 27.5 -7
t26.5 -17.5t20 -21.5t8 -19q0 -53 -29 -102.5t-66 -88.5l-41.5 -41.5t-47.5 -48t-39.5 -41.5t-16.5 -22q0 -2 5 -3q7 -2 21 -2h20q23 0 38 2t24 6.5t14 11.5t10 18q4 9 7 15.5t5 8.5q4 4 12.5 7.5t19.5 3.5q6 0 15 -2.5t20 -14.5q5 -5 5 -15t-3 -22.5t-7.5 -24t-8.5 -20
t-6 -10.5q-11 -14 -39.5 -18.5t-91.5 -4.5q-40 0 -77.5 2.5t-52.5 14.5q-16 13 -22.5 25t-6.5 23q0 4 6 14t18 23q11 12 29 30l47 47l15 15t31.5 33t39.5 44t39 49t29.5 47.5t11.5 39.5q0 4 -1 8t-7 4z" />
    <glyph glyph-name="threesuperior" unicode="&#xb3;" horiz-adv-x="364" 
d="M332 581q-9 -5 -19.5 -11.5t-19.5 -13t-14.5 -12t-5.5 -9.5q0 -11 -6.5 -13t-12.5 -10q-2 -3 -11.5 -4.5t-14.5 -1.5q-16 0 -22 6q-5 5 -11 15.5t-6 14.5q0 21 15 32.5t31 26.5q4 4 13 5.5t14 4.5q6 3 15.5 9t21.5 11t25.5 9t27.5 4q10 0 19.5 -2t17.5 -8q3 -2 9 -4
q12 -4 18.5 -10.5t8.5 -11.5q4 -8 4 -16q0 -7 -2 -12.5t-5 -12.5q-2 -5 -3.5 -9t-3.5 -8q-19 -33 -38.5 -58.5t-34.5 -41.5q24 -5 37 -15.5t20 -23.5t8.5 -25.5t1.5 -20.5q0 -20 -7.5 -44t-18.5 -46q-9 -20 -21 -39t-27.5 -34t-36 -24.5t-47.5 -9.5q-22 0 -43 9.5t-38.5 23
t-31 28t-21.5 23.5q-5 5 -8 12t-3 13q0 8 4.5 12.5t18.5 4.5q13 0 18 1t11 1q13 0 21 -9q7 -8 15.5 -15.5t8.5 -15.5q0 -3 4 -7.5t10 -9.5t13 -8.5t14 -3.5q3 0 5 0.5t7 3.5q20 14 33.5 31t26.5 46q7 15 13 34t6 24q0 9 -2.5 15t-5.5 11q-4 6 -12 6q-5 0 -15 -4
q-5 -2 -10.5 -3t-10.5 -4q-10 -5 -27.5 -15t-37.5 -10q-10 0 -19 3t-14.5 13t-5.5 18q0 6 3 9q7 6 14.5 10.5t15.5 9.5q9 5 12.5 9t5.5 6q49 33 74.5 70.5t37.5 61.5q3 6 3 9q0 2 -2 2q-3 0 -7 -2z" />
    <glyph glyph-name="acute" unicode="&#xb4;" 
d="M402 794q6 2 16 6t21.5 9t22 10t17.5 10q2 2 6.5 2.5t7.5 0.5q11 0 19 -8q7 -7 9 -12.5t2 -15.5q0 -12 -1 -17t-4 -9q-7 -8 -21.5 -14.5t-50.5 -17.5l-118 -37q-11 -3 -20 -3q-7 0 -11 2q-10 7 -15 14q-3 5 -5 7l-4 4q-3 3 -3 8q0 8 5 14q2 3 6.5 4t6.5 1q4 0 25 8l89 34
v0z" />
    <glyph glyph-name="mu" unicode="&#xb5;" 
d="M139 122q-1 0 -3 -3t-7.5 -14t-15.5 -32t-26 -56q-16 -34 -30 -64t-29 -60.5t-31 -63t-35 -71.5q-2 -5 -6 -12t-8.5 -13.5t-9 -11.5t-8.5 -5q-8 0 -17 1t-14 1q-7 0 -12.5 7.5t-13.5 8.5q-6 1 -7.5 8.5t-1.5 17.5q0 8 1.5 14.5t6.5 14.5t14.5 19.5t26.5 29.5q7 8 15 22.5
l24 43.5q58 106 120.5 231t135.5 285q5 11 10.5 20.5t10.5 9.5q12 0 15.5 4.5t10.5 4.5q8 0 21 -1.5t18 -9.5q3 -5 4 -14t1 -17t-8.5 -18t-12.5 -21q-6 -17 -20 -41t-20 -51q-7 -30 -12.5 -50t-9 -38.5t-5.5 -42t-2 -61.5q0 -18 2.5 -29.5t9.5 -11.5q2 0 8.5 2.5t11.5 7.5
q6 5 17 17.5t22.5 27.5t22.5 29t18 23q21 26 34 44.5t24 38t21 44.5t25 65q5 14 11.5 21t27.5 7q7 0 14 -5t13 -5q10 0 14 -4t4 -9q0 -12 -2 -19.5t-5 -14.5q-26 -55 -45 -110.5t-28 -115.5q-2 -16 -4 -34.5t-2 -39.5q0 -9 2.5 -13.5t5.5 -10.5t5.5 -16t2.5 -31
q0 -15 -31 -15q-11 0 -17.5 5t-17.5 5q-8 0 -11 11t-5 22q-2 16 -2.5 26.5t-0.5 25.5q0 19 1 28t1 17q0 2 -1.5 5.5t-3.5 3.5t-6 -5.5t-9 -12t-9.5 -13.5t-6.5 -10q-26 -35 -53 -52.5t-36 -17.5q-14 0 -28 3t-28 11t-20 14t-9 14q-2 5 -3.5 17t-1.5 38v19t1 22q0 9 -3 9z
" />
    <glyph glyph-name="mu" unicode="&#x3bc;" 
d="M139 122q-1 0 -3 -3t-7.5 -14t-15.5 -32t-26 -56q-16 -34 -30 -64t-29 -60.5t-31 -63t-35 -71.5q-2 -5 -6 -12t-8.5 -13.5t-9 -11.5t-8.5 -5q-8 0 -17 1t-14 1q-7 0 -12.5 7.5t-13.5 8.5q-6 1 -7.5 8.5t-1.5 17.5q0 8 1.5 14.5t6.5 14.5t14.5 19.5t26.5 29.5q7 8 15 22.5
l24 43.5q58 106 120.5 231t135.5 285q5 11 10.5 20.5t10.5 9.5q12 0 15.5 4.5t10.5 4.5q8 0 21 -1.5t18 -9.5q3 -5 4 -14t1 -17t-8.5 -18t-12.5 -21q-6 -17 -20 -41t-20 -51q-7 -30 -12.5 -50t-9 -38.5t-5.5 -42t-2 -61.5q0 -18 2.5 -29.5t9.5 -11.5q2 0 8.5 2.5t11.5 7.5
q6 5 17 17.5t22.5 27.5t22.5 29t18 23q21 26 34 44.5t24 38t21 44.5t25 65q5 14 11.5 21t27.5 7q7 0 14 -5t13 -5q10 0 14 -4t4 -9q0 -12 -2 -19.5t-5 -14.5q-26 -55 -45 -110.5t-28 -115.5q-2 -16 -4 -34.5t-2 -39.5q0 -9 2.5 -13.5t5.5 -10.5t5.5 -16t2.5 -31
q0 -15 -31 -15q-11 0 -17.5 5t-17.5 5q-8 0 -11 11t-5 22q-2 16 -2.5 26.5t-0.5 25.5q0 19 1 28t1 17q0 2 -1.5 5.5t-3.5 3.5t-6 -5.5t-9 -12t-9.5 -13.5t-6.5 -10q-26 -35 -53 -52.5t-36 -17.5q-14 0 -28 3t-28 11t-20 14t-9 14q-2 5 -3.5 17t-1.5 38v19t1 22q0 9 -3 9z
" />
    <glyph glyph-name="paragraph" unicode="&#xb6;" horiz-adv-x="544" 
d="M472 0h-50v589h-52v-589h-50v353q-69 0 -111.5 37.5t-42.5 103.5t42.5 103.5t111.5 37.5h210v-46h-58v-589z" />
    <glyph glyph-name="periodcentered" unicode="&#xb7;" horiz-adv-x="344" 
d="M272 340q17 -22 17 -44q0 -12 -3 -24q-9 -30 -23.5 -50.5t-41.5 -20.5q-8 0 -19.5 2t-22 5.5t-19 8.5t-10.5 12q-3 9 -4.5 21t-1.5 23q0 19 3.5 36t8.5 22q10 10 33 16.5t45 6.5q27 0 38 -14z" />
    <glyph glyph-name="periodcentered" unicode="&#x2219;" horiz-adv-x="344" 
d="M272 340q17 -22 17 -44q0 -12 -3 -24q-9 -30 -23.5 -50.5t-41.5 -20.5q-8 0 -19.5 2t-22 5.5t-19 8.5t-10.5 12q-3 9 -4.5 21t-1.5 23q0 19 3.5 36t8.5 22q10 10 33 16.5t45 6.5q27 0 38 -14z" />
    <glyph glyph-name="cedilla" unicode="&#xb8;" horiz-adv-x="338" 
d="M180 28l33 -52q4 -5 7 -14t3 -24q0 -8 -4.5 -22t-12.5 -25q-24 -35 -46.5 -47.5t-44.5 -12.5q-15 0 -30 4t-29 9q-25 9 -34.5 18t-14.5 17q-7 10 -7 16q0 8 15 23q4 4 8 4q3 0 5.5 -1.5t5.5 -1.5q5 0 11.5 -4.5t7.5 -9.5q1 -7 11.5 -13.5t24.5 -6.5q23 0 36.5 17t27.5 46
q4 8 4.5 12t0.5 7q0 11 -5 19l-27 42h54z" />
    <glyph glyph-name="onesuperior" unicode="&#xb9;" horiz-adv-x="364" 
d="M277 269q14 51 26 96t24 98q0 2 -2 2q-1 0 -7 -7q-45 -56 -73 -87t-43.5 -46.5t-22 -20.5t-8.5 -9q-2 -3 -8 -5t-14 -2q-6 0 -12 1.5t-10 5.5t-8.5 6t-7.5 6q-11 12 -11 18q0 5 13 18q16 16 25.5 23t17.5 12q5 4 13 10.5t18 17.5q32 35 67.5 76t70.5 83q16 19 29 39
t25 40q4 6 18 6q8 0 18 -2.5t18.5 -7t14 -11t5.5 -14.5q0 -3 -2 -9q-34 -85 -55 -174.5t-44 -180.5q-2 -8 -4.5 -18.5t-2.5 -24.5q0 -3 -0.5 -8.5t-3 -11.5t-7 -10t-12.5 -4q-5 0 -9.5 -1t-9.5 -1q-24 0 -40 14q-4 4 -4 15q0 8 1.5 15.5t2.5 10.5q2 14 6.5 22.5t7.5 19.5z
" />
    <glyph glyph-name="ordmasculine" unicode="&#xba;" horiz-adv-x="408" 
d="M372 572q-2 3 -4.5 7.5t-2.5 8.5q0 8 -3 10t-15 2q-9 0 -22.5 -7t-24.5 -23q-45 -62 -68.5 -108t-23.5 -81q0 -28 13.5 -45.5t36.5 -17.5q11 0 24.5 11t24.5 29q24 38 39.5 66t24 48.5t12 33.5t3.5 22q0 17 -3 26t-11 18zM133 154q-6 0 -16 0.5l-20 1t-18.5 1t-12.5 1.5
q-17 4 -22 8t-7 12q-2 7 -3 10t-2 5t-1.5 6.5t-0.5 16.5q0 10 6 13.5t35 3.5q10 0 29 -3.5t28 -3.5h45q30 0 58.5 1t51.5 1.5t38.5 1.5t18.5 1q14 0 29 -1t27 -3q7 -1 7 -4t-2 -4t-2 -3q0 -5 9.5 -10.5t9.5 -12.5q0 -8 -3 -14t-9 -14q-4 -5 -12.5 -6t-31.5 -1q-15 0 -39.5 1
t-62.5 1q-18 0 -26.5 -1t-18.5 -2t-27.5 -2t-54.5 -1zM465 526q0 -25 -7.5 -52t-20 -54t-29 -53t-35.5 -48q-29 -35 -55.5 -42.5t-58.5 -7.5q-27 0 -51 8.5t-43 34.5q-33 45 -33 86q0 35 15.5 72t41.5 82q24 42 64 73t91 31q15 0 22.5 -3t12.5 -7t8.5 -7t11.5 -3
q10 0 21.5 -9t21.5 -24t16.5 -35t6.5 -42z" />
    <glyph glyph-name="guillemotright" unicode="&#xbb;" horiz-adv-x="410" 
d="M135 168q-8 -8 -12.5 -10t-7.5 -2t-14 8l-5 5t-3 8q0 14 1 22.5t8 16.5l85 88q8 9 8 18q0 4 -4 12l-26 48q-5 10 -10 19t-7 14q-5 7 -5 12q0 2 3.5 7.5t8 12t10 12.5t8.5 8q11 7 19 7t10 2.5t9 2.5q8 0 13 -11l48 -115q4 -10 5 -17t1 -19q0 -11 -7.5 -23t-14.5 -18z
M317 176q-12 -12 -20 -15t-23 -3q-5 0 -11.5 8t-6.5 16q0 2 -3 3.5t-3 6.5q0 1 0.5 4t3.5 6l94 102q5 5 6 7.5t1 6.5q0 7 -4 12q-5 8 -8 14t-5 12l-3.5 7t-3.5 6t-4.5 7.5t-6.5 12.5q-5 9 -13 19t-8 15q0 11 9.5 17t23.5 24q5 7 12.5 8.5t12.5 1.5q9 0 13 -2t8.5 -8.5
t18.5 -35.5l38 -78q4 -8 4 -33q0 -5 -5.5 -17.5t-16.5 -23.5z" />
    <glyph glyph-name="onequarter" unicode="&#xbc;" horiz-adv-x="950" 
d="M277 269q14 51 26 96t24 98q0 2 -2 2q-1 0 -7 -7q-45 -56 -73 -87t-43.5 -46.5t-22 -20.5t-8.5 -9q-2 -3 -8 -5t-14 -2q-6 0 -12 1.5t-10 5.5t-8.5 6t-7.5 6q-11 12 -11 18q0 5 13 18q16 16 25.5 23t17.5 12q5 4 13 10.5t18 17.5q32 35 67.5 76t70.5 83q16 19 29 39
t25 40q4 6 18 6q8 0 18 -2.5t18.5 -7t14 -11t5.5 -14.5q0 -3 -2 -9q-34 -85 -55 -174.5t-44 -180.5q-2 -8 -4.5 -18.5t-2.5 -24.5q0 -3 -0.5 -8.5t-3 -11.5t-7 -10t-12.5 -4q-5 0 -9.5 -1t-9.5 -1q-24 0 -40 14q-4 4 -4 15q0 8 1.5 15.5t2.5 10.5q2 14 6.5 22.5t7.5 19.5z
M799 634q0 -19 -1.5 -23.5t-7.5 -6.5q-2 -1 -5.5 -2.5t-9.5 -8.5q-13 -15 -21.5 -19.5t-15.5 -13.5q-44 -58 -83 -117t-77 -120.5t-76.5 -125.5t-82.5 -131q-29 -45 -50.5 -70.5t-26.5 -25.5q-12 0 -18.5 1t-14.5 7t-12 10.5t-4 15.5q0 25 3 30.5t8 7.5q3 1 6.5 3.5t9 8.5
t13.5 18l22 33l305 470q9 14 20 28t21 26t18 20.5t12 11.5q19 14 32 14t27 -12q5 -4 7 -9t2 -20zM761 293q-26 -30 -55 -64.5t-53 -63.5q-3 -5 -3 -6q0 -4 10 -6q8 -2 19 -2h22q3 0 11.5 0.5t16.5 1.5q5 1 6 2t2 6q5 27 12.5 54t17.5 61q7 24 7 25q0 3 -1 3q-2 0 -12 -11z
M722 91q0 3 -5 3q-29 0 -55 2.5t-51 12.5q-8 3 -15.5 11.5t-13.5 18t-9.5 17.5t-3.5 10q0 8 1.5 13t6.5 11q42 47 93.5 106t114.5 113q12 10 15 15q4 6 10 11.5t18 5.5q9 0 20 -4q16 -6 22 -13.5t6 -16.5q0 -12 -6 -24.5t-6 -20.5q0 -15 -6 -36q-1 -4 -4.5 -16t-8.5 -27.5
t-10.5 -34t-9.5 -34.5q-8 -29 -9 -36t-1 -9q0 -3 3 -3q2 0 15 3t31 3q11 0 20.5 -2t16.5 -9q3 -3 7 -11t5 -12.5t1 -7.5q0 -13 -18 -13.5t-41 -3.5q-11 -2 -24.5 -4t-24.5 -5q-11 -26 -13 -54t-7 -55q-1 -5 -3 -10.5t-11 -5.5q-19 0 -30 6.5t-22 13.5q-8 5 -9 10t-1 10
q0 9 6 41q1 5 1.5 8.5t2.5 11.5q2 10 2 11z" />
    <glyph glyph-name="onehalf" unicode="&#xbd;" horiz-adv-x="950" 
d="M277 269q14 51 26 96t24 98q0 2 -2 2q-1 0 -7 -7q-45 -56 -73 -87t-43.5 -46.5t-22 -20.5t-8.5 -9q-2 -3 -8 -5t-14 -2q-6 0 -12 1.5t-10 5.5t-8.5 6t-7.5 6q-11 12 -11 18q0 5 13 18q16 16 25.5 23t17.5 12q5 4 13 10.5t18 17.5q32 35 67.5 76t70.5 83q16 19 29 39
t25 40q4 6 18 6q8 0 18 -2.5t18.5 -7t14 -11t5.5 -14.5q0 -3 -2 -9q-34 -85 -55 -174.5t-44 -180.5q-2 -8 -4.5 -18.5t-2.5 -24.5q0 -3 -0.5 -8.5t-3 -11.5t-7 -10t-12.5 -4q-5 0 -9.5 -1t-9.5 -1q-24 0 -40 14q-4 4 -4 15q0 8 1.5 15.5t2.5 10.5q2 14 6.5 22.5t7.5 19.5z
M787 634q0 -19 -1.5 -23.5t-7.5 -6.5q-2 -1 -5.5 -2.5t-9.5 -8.5q-13 -15 -21.5 -19.5t-15.5 -13.5q-44 -58 -83 -117t-77 -120.5t-76.5 -125.5t-82.5 -131q-29 -45 -50.5 -70.5t-26.5 -25.5q-12 0 -18.5 1t-14.5 7t-12 10.5t-4 15.5q0 25 3 30.5t8 7.5q3 1 6.5 3.5t9 8.5
t13.5 18l22 33l305 470q9 14 20 28t21 26t18 20.5t12 11.5q19 14 32 14t27 -12q5 -4 7 -9t2 -20zM822 406q-14 0 -26.5 -7t-22.5 -17t-17.5 -19.5t-10.5 -13.5q-5 -6 -10.5 -11t-8.5 -12q-4 -9 -8.5 -11.5t-11.5 -3.5t-11 -2t-6 -1q-11 0 -17.5 2.5t-11.5 7.5q-13 13 -13 32
q0 11 7 20.5t12 15.5q11 16 27.5 28t36.5 24q25 15 43.5 18.5t47.5 3.5q13 0 27.5 -7t26.5 -17.5t20 -21.5t8 -19q0 -53 -29 -102.5t-66 -88.5l-41.5 -41.5t-47.5 -48t-39.5 -41.5t-16.5 -22q0 -2 5 -3q7 -2 21 -2h20q23 0 38 2t24 6.5t14 11.5t10 18q4 9 7 15.5t5 8.5
q4 4 12.5 7.5t19.5 3.5q6 0 15 -2.5t20 -14.5q5 -5 5 -15t-3 -22.5t-7.5 -24t-8.5 -20t-6 -10.5q-11 -14 -39.5 -18.5t-91.5 -4.5q-40 0 -77.5 2.5t-52.5 14.5q-16 13 -22.5 25t-6.5 23q0 4 6 14t18 23q11 12 29 30l47 47l15 15t31.5 33t39.5 44t39 49t29.5 47.5t11.5 39.5
q0 4 -1 8t-7 4z" />
    <glyph glyph-name="threequarters" unicode="&#xbe;" horiz-adv-x="950" 
d="M332 581q-9 -5 -19.5 -11.5t-19.5 -13t-14.5 -12t-5.5 -9.5q0 -11 -6.5 -13t-12.5 -10q-2 -3 -11.5 -4.5t-14.5 -1.5q-16 0 -22 6q-5 5 -11 15.5t-6 14.5q0 21 15 32.5t31 26.5q4 4 13 5.5t14 4.5q6 3 15.5 9t21.5 11t25.5 9t27.5 4q10 0 19.5 -2t17.5 -8q3 -2 9 -4
q12 -4 18.5 -10.5t8.5 -11.5q4 -8 4 -16q0 -7 -2 -12.5t-5 -12.5q-2 -5 -3.5 -9t-3.5 -8q-19 -33 -38.5 -58.5t-34.5 -41.5q24 -5 37 -15.5t20 -23.5t8.5 -25.5t1.5 -20.5q0 -20 -7.5 -44t-18.5 -46q-9 -20 -21 -39t-27.5 -34t-36 -24.5t-47.5 -9.5q-22 0 -43 9.5t-38.5 23
t-31 28t-21.5 23.5q-5 5 -8 12t-3 13q0 8 4.5 12.5t18.5 4.5q13 0 18 1t11 1q13 0 21 -9q7 -8 15.5 -15.5t8.5 -15.5q0 -3 4 -7.5t10 -9.5t13 -8.5t14 -3.5q3 0 5 0.5t7 3.5q20 14 33.5 31t26.5 46q7 15 13 34t6 24q0 9 -2.5 15t-5.5 11q-4 6 -12 6q-5 0 -15 -4
q-5 -2 -10.5 -3t-10.5 -4q-10 -5 -27.5 -15t-37.5 -10q-10 0 -19 3t-14.5 13t-5.5 18q0 6 3 9q7 6 14.5 10.5t15.5 9.5q9 5 12.5 9t5.5 6q49 33 74.5 70.5t37.5 61.5q3 6 3 9q0 2 -2 2q-3 0 -7 -2zM797 634q0 -19 -1.5 -23.5t-7.5 -6.5q-2 -1 -5.5 -2.5t-9.5 -8.5
q-13 -15 -21.5 -19.5t-15.5 -13.5q-44 -58 -83 -117t-77 -120.5t-76.5 -125.5t-82.5 -131q-29 -45 -50.5 -70.5t-26.5 -25.5q-12 0 -18.5 1t-14.5 7t-12 10.5t-4 15.5q0 25 3 30.5t8 7.5q3 1 6.5 3.5t9 8.5t13.5 18l22 33l305 470q9 14 20 28t21 26t18 20.5t12 11.5
q19 14 32 14t27 -12q5 -4 7 -9t2 -20zM761 293q-26 -30 -55 -64.5t-53 -63.5q-3 -5 -3 -6q0 -4 10 -6q8 -2 19 -2h22q3 0 11.5 0.5t16.5 1.5q5 1 6 2t2 6q5 27 12.5 54t17.5 61q7 24 7 25q0 3 -1 3q-2 0 -12 -11zM722 91q0 3 -5 3q-29 0 -55 2.5t-51 12.5q-8 3 -15.5 11.5
t-13.5 18t-9.5 17.5t-3.5 10q0 8 1.5 13t6.5 11q42 47 93.5 106t114.5 113q12 10 15 15q4 6 10 11.5t18 5.5q9 0 20 -4q16 -6 22 -13.5t6 -16.5q0 -12 -6 -24.5t-6 -20.5q0 -15 -6 -36q-1 -4 -4.5 -16t-8.5 -27.5t-10.5 -34t-9.5 -34.5q-8 -29 -9 -36t-1 -9q0 -3 3 -3
q2 0 15 3t31 3q11 0 20.5 -2t16.5 -9q3 -3 7 -11t5 -12.5t1 -7.5q0 -13 -18 -13.5t-41 -3.5q-11 -2 -24.5 -4t-24.5 -5q-11 -26 -13 -54t-7 -55q-1 -5 -3 -10.5t-11 -5.5q-19 0 -30 6.5t-22 13.5q-8 5 -9 10t-1 10q0 9 6 41q1 5 1.5 8.5t2.5 11.5q2 10 2 11z" />
    <glyph glyph-name="questiondown" unicode="&#xbf;" horiz-adv-x="360" 
d="M364 594q0 -25 -9 -34q-10 -10 -22.5 -17.5t-25.5 -7.5q-11 0 -21 4.5t-14 9.5q-5 7 -12.5 14t-7.5 14q0 8 1.5 15t3.5 12q8 28 18 34.5t20 6.5q5 0 16.5 -5.5t23 -13.5t20.5 -17t9 -15zM50 75q0 19 2.5 32t13.5 29.5t33 40t60 63.5q28 29 46 47.5t28 30.5t13.5 20
t3.5 16q0 11 -13.5 17t-26.5 6q-9 0 -20.5 -1.5t-18.5 -6.5q-17 -11 -29 -11q-4 0 -13.5 2.5t-12.5 10.5q-2 6 -5.5 11t-3.5 9q0 6 5 15.5t10 13.5q11 8 32 14.5t43 6.5q25 0 44.5 -3.5t43.5 -16.5q20 -11 32 -26t12 -36q0 -16 -2.5 -28t-15 -30t-39.5 -46t-75 -76
q-21 -21 -35 -36t-21.5 -26t-10.5 -19.5t-3 -15.5q0 -6 4.5 -11.5t10.5 -10t13 -7.5t13 -3q19 0 34 9t15 30q0 3 -1 10t-1 12q0 8 4.5 14.5t18.5 6.5q12 0 19 -2t17 -13q5 -5 9 -16t4 -19q0 -20 -9 -37.5t-19 -26.5q-17 -16 -35.5 -22t-43.5 -6q-26 0 -44.5 4.5t-37.5 15.5
q-16 9 -32 26t-16 39z" />
    <glyph glyph-name="Agrave" unicode="&#xc0;" 
d="M460 -73q0 -9 -7 -14.5t-13 -10.5q-4 -3 -6 -3.5t-5 -0.5q-12 0 -26.5 4t-24.5 14q-5 5 -8.5 18.5t-6 31.5t-3.5 38.5t-1 38.5q0 34 2 66.5t2 67.5q0 4 -6 4q-21 -8 -50 -17.5t-58 -18.5t-54.5 -16t-40.5 -9q-5 -1 -8 -3.5t-7 -10.5q-9 -20 -12.5 -38t-3.5 -32
q0 -33 1.5 -41.5t1.5 -14.5q0 -3 -5 -6q-10 -7 -18.5 -14.5t-19.5 -7.5q-2 0 -8 3t-11 6q-8 5 -13.5 10.5t-8.5 13t-4.5 18t-1.5 26.5q0 15 2 30t4.5 27t4.5 20.5t2 9.5q0 4 -6 7q-17 9 -24.5 14.5t-7.5 16.5q0 17 6.5 35t8.5 20q5 4 11 4q12 0 22.5 -8.5t20.5 -8.5
q2 0 4.5 2t7.5 12q29 54 60 108t64 109.5t70 113.5t78 120q12 18 15.5 21.5t6.5 3.5q8 0 27.5 6t36.5 6q10 0 21 -2.5t13 -6.5q2 -8 5 -9t3 -7q0 -3 -2.5 -17.5t-5 -31t-5 -30.5t-2.5 -16q0 -14 -3 -33q-5 -29 -9 -70t-7 -79.5t-4.5 -66.5t-1.5 -29q0 -2 0.5 -4t5.5 -2
t17.5 2t34.5 2q20 0 36.5 -5t24.5 -14q6 -7 6 -11q0 -6 -4 -13q-9 -15 -26 -20.5t-46 -5.5q-12 0 -24 -2.5t-20 -7.5q-7 -5 -8.5 -7.5t-2.5 -12.5l-5 -100q0 -5 -0.5 -13.5t-0.5 -17.5v-18v-14q0 -30 3 -50.5t7 -32.5t7 -18t3 -8zM365 267q14 106 19 170t5 98
q0 11 -0.5 13.5t-2.5 2.5t-3.5 -1t-5.5 -7q-29 -46 -53.5 -86.5t-46.5 -78t-41.5 -73t-38.5 -71.5q-8 -14 -10 -19t-2 -7q0 -4 6 -4q4 0 15.5 2.5t26.5 7t30.5 9t27.5 9.5q28 11 46 16.5t21 7.5q4 2 5 3.5t2 7.5zM425 773q-10 7 -29.5 16.5t-36.5 16.5q-8 3 -10 11t-2 22
q0 9 2.5 14.5t8.5 11.5q12 12 24 12q5 0 8 -1.5t6 -1.5q2 0 4.5 -1.5t8 -5.5t15.5 -11.5t27 -19.5l102 -70q26 -18 26 -25q0 -5 -1.5 -8.5t-3.5 -8.5t-2 -9t-1 -7q-3 -10 -13 -10t-16 1.5t-15 7.5l-102 66v0z" />
    <glyph glyph-name="Aacute" unicode="&#xc1;" 
d="M460 -73q0 -9 -7 -14.5t-13 -10.5q-4 -3 -6 -3.5t-5 -0.5q-12 0 -26.5 4t-24.5 14q-5 5 -8.5 18.5t-6 31.5t-3.5 38.5t-1 38.5q0 34 2 66.5t2 67.5q0 4 -6 4q-21 -8 -50 -17.5t-58 -18.5t-54.5 -16t-40.5 -9q-5 -1 -8 -3.5t-7 -10.5q-9 -20 -12.5 -38t-3.5 -32
q0 -33 1.5 -41.5t1.5 -14.5q0 -3 -5 -6q-10 -7 -18.5 -14.5t-19.5 -7.5q-2 0 -8 3t-11 6q-8 5 -13.5 10.5t-8.5 13t-4.5 18t-1.5 26.5q0 15 2 30t4.5 27t4.5 20.5t2 9.5q0 4 -6 7q-17 9 -24.5 14.5t-7.5 16.5q0 17 6.5 35t8.5 20q5 4 11 4q12 0 22.5 -8.5t20.5 -8.5
q2 0 4.5 2t7.5 12q29 54 60 108t64 109.5t70 113.5t78 120q12 18 15.5 21.5t6.5 3.5q8 0 27.5 6t36.5 6q10 0 21 -2.5t13 -6.5q2 -8 5 -9t3 -7q0 -3 -2.5 -17.5t-5 -31t-5 -30.5t-2.5 -16q0 -14 -3 -33q-5 -29 -9 -70t-7 -79.5t-4.5 -66.5t-1.5 -29q0 -2 0.5 -4t5.5 -2
t17.5 2t34.5 2q20 0 36.5 -5t24.5 -14q6 -7 6 -11q0 -6 -4 -13q-9 -15 -26 -20.5t-46 -5.5q-12 0 -24 -2.5t-20 -7.5q-7 -5 -8.5 -7.5t-2.5 -12.5l-5 -100q0 -5 -0.5 -13.5t-0.5 -17.5v-18v-14q0 -30 3 -50.5t7 -32.5t7 -18t3 -8zM365 267q14 106 19 170t5 98
q0 11 -0.5 13.5t-2.5 2.5t-3.5 -1t-5.5 -7q-29 -46 -53.5 -86.5t-46.5 -78t-41.5 -73t-38.5 -71.5q-8 -14 -10 -19t-2 -7q0 -4 6 -4q4 0 15.5 2.5t26.5 7t30.5 9t27.5 9.5q28 11 46 16.5t21 7.5q4 2 5 3.5t2 7.5zM438 832q6 2 16 6t21.5 9t22 10t17.5 10q2 2 6.5 2.5
t7.5 0.5q11 0 19 -8q7 -7 9 -12.5t2 -15.5q0 -12 -1 -17t-4 -9q-7 -8 -21.5 -14.5t-50.5 -17.5l-118 -37q-11 -3 -20 -3q-7 0 -11 2q-10 7 -15 14q-3 5 -5 7l-4 4q-3 3 -3 8q0 8 5 14q2 3 6.5 4t6.5 1q4 0 25 8l89 34v0z" />
    <glyph glyph-name="Acircumflex" unicode="&#xc2;" 
d="M460 -73q0 -9 -7 -14.5t-13 -10.5q-4 -3 -6 -3.5t-5 -0.5q-12 0 -26.5 4t-24.5 14q-5 5 -8.5 18.5t-6 31.5t-3.5 38.5t-1 38.5q0 34 2 66.5t2 67.5q0 4 -6 4q-21 -8 -50 -17.5t-58 -18.5t-54.5 -16t-40.5 -9q-5 -1 -8 -3.5t-7 -10.5q-9 -20 -12.5 -38t-3.5 -32
q0 -33 1.5 -41.5t1.5 -14.5q0 -3 -5 -6q-10 -7 -18.5 -14.5t-19.5 -7.5q-2 0 -8 3t-11 6q-8 5 -13.5 10.5t-8.5 13t-4.5 18t-1.5 26.5q0 15 2 30t4.5 27t4.5 20.5t2 9.5q0 4 -6 7q-17 9 -24.5 14.5t-7.5 16.5q0 17 6.5 35t8.5 20q5 4 11 4q12 0 22.5 -8.5t20.5 -8.5
q2 0 4.5 2t7.5 12q29 54 60 108t64 109.5t70 113.5t78 120q12 18 15.5 21.5t6.5 3.5q8 0 27.5 6t36.5 6q10 0 21 -2.5t13 -6.5q2 -8 5 -9t3 -7q0 -3 -2.5 -17.5t-5 -31t-5 -30.5t-2.5 -16q0 -14 -3 -33q-5 -29 -9 -70t-7 -79.5t-4.5 -66.5t-1.5 -29q0 -2 0.5 -4t5.5 -2
t17.5 2t34.5 2q20 0 36.5 -5t24.5 -14q6 -7 6 -11q0 -6 -4 -13q-9 -15 -26 -20.5t-46 -5.5q-12 0 -24 -2.5t-20 -7.5q-7 -5 -8.5 -7.5t-2.5 -12.5l-5 -100q0 -5 -0.5 -13.5t-0.5 -17.5v-18v-14q0 -30 3 -50.5t7 -32.5t7 -18t3 -8zM365 267q14 106 19 170t5 98
q0 11 -0.5 13.5t-2.5 2.5t-3.5 -1t-5.5 -7q-29 -46 -53.5 -86.5t-46.5 -78t-41.5 -73t-38.5 -71.5q-8 -14 -10 -19t-2 -7q0 -4 6 -4q4 0 15.5 2.5t26.5 7t30.5 9t27.5 9.5q28 11 46 16.5t21 7.5q4 2 5 3.5t2 7.5zM587 738q7 -11 9 -16t2 -9q0 -8 -5 -11t-9 -8q-5 -7 -7.5 -9
t-10.5 -2q-2 0 -8 4t-10 10l-63 86q-4 6 -8 6q-2 0 -3.5 -0.5t-6.5 -2.5q-30 -12 -49 -20.5t-30.5 -14.5t-17 -9.5t-8.5 -6.5q-1 -1 -5 -1q-9 0 -14 5t-10 7q-4 2 -4.5 7.5t-0.5 16.5q0 17 2 21q3 6 5 7.5t4 3.5q2 3 11 8t44 17l89 31q9 3 13 3q15 0 19 -7q2 -5 4 -5
q3 0 8 -8z" />
    <glyph glyph-name="Atilde" unicode="&#xc3;" 
d="M460 -73q0 -9 -7 -14.5t-13 -10.5q-4 -3 -6 -3.5t-5 -0.5q-12 0 -26.5 4t-24.5 14q-5 5 -8.5 18.5t-6 31.5t-3.5 38.5t-1 38.5q0 34 2 66.5t2 67.5q0 4 -6 4q-21 -8 -50 -17.5t-58 -18.5t-54.5 -16t-40.5 -9q-5 -1 -8 -3.5t-7 -10.5q-9 -20 -12.5 -38t-3.5 -32
q0 -33 1.5 -41.5t1.5 -14.5q0 -3 -5 -6q-10 -7 -18.5 -14.5t-19.5 -7.5q-2 0 -8 3t-11 6q-8 5 -13.5 10.5t-8.5 13t-4.5 18t-1.5 26.5q0 15 2 30t4.5 27t4.5 20.5t2 9.5q0 4 -6 7q-17 9 -24.5 14.5t-7.5 16.5q0 17 6.5 35t8.5 20q5 4 11 4q12 0 22.5 -8.5t20.5 -8.5
q2 0 4.5 2t7.5 12q29 54 60 108t64 109.5t70 113.5t78 120q12 18 15.5 21.5t6.5 3.5q8 0 27.5 6t36.5 6q10 0 21 -2.5t13 -6.5q2 -8 5 -9t3 -7q0 -3 -2.5 -17.5t-5 -31t-5 -30.5t-2.5 -16q0 -14 -3 -33q-5 -29 -9 -70t-7 -79.5t-4.5 -66.5t-1.5 -29q0 -2 0.5 -4t5.5 -2
t17.5 2t34.5 2q20 0 36.5 -5t24.5 -14q6 -7 6 -11q0 -6 -4 -13q-9 -15 -26 -20.5t-46 -5.5q-12 0 -24 -2.5t-20 -7.5q-7 -5 -8.5 -7.5t-2.5 -12.5l-5 -100q0 -5 -0.5 -13.5t-0.5 -17.5v-18v-14q0 -30 3 -50.5t7 -32.5t7 -18t3 -8zM365 267q14 106 19 170t5 98
q0 11 -0.5 13.5t-2.5 2.5t-3.5 -1t-5.5 -7q-29 -46 -53.5 -86.5t-46.5 -78t-41.5 -73t-38.5 -71.5q-8 -14 -10 -19t-2 -7q0 -4 6 -4q4 0 15.5 2.5t26.5 7t30.5 9t27.5 9.5q28 11 46 16.5t21 7.5q4 2 5 3.5t2 7.5zM333 785q0 8 -4 18.5t-4 18.5q0 2 2 7t7 7l63 23q18 7 26 8
t19 1q14 0 24 -11t24 -31q14 -21 20.5 -28t20.5 -7q2 0 14 3.5t25.5 8l25.5 8.5t15 4q9 0 14 -6t6 -13q1 -6 2.5 -9.5t1.5 -11.5q0 -5 -8 -10q-11 -7 -23.5 -15t-26 -14.5t-26 -11t-22.5 -4.5q-16 0 -27.5 3.5t-25.5 14.5q-7 6 -13 14t-11 16t-9.5 14.5t-7.5 8.5q-5 3 -9 3
q-6 0 -17 -4t-32 -17q-4 -2 -6 -2.5t-4 -0.5q-12 0 -23 3.5t-11 11.5z" />
    <glyph glyph-name="Adieresis" unicode="&#xc4;" 
d="M460 -73q0 -9 -7 -14.5t-13 -10.5q-4 -3 -6 -3.5t-5 -0.5q-12 0 -26.5 4t-24.5 14q-5 5 -8.5 18.5t-6 31.5t-3.5 38.5t-1 38.5q0 34 2 66.5t2 67.5q0 4 -6 4q-21 -8 -50 -17.5t-58 -18.5t-54.5 -16t-40.5 -9q-5 -1 -8 -3.5t-7 -10.5q-9 -20 -12.5 -38t-3.5 -32
q0 -33 1.5 -41.5t1.5 -14.5q0 -3 -5 -6q-10 -7 -18.5 -14.5t-19.5 -7.5q-2 0 -8 3t-11 6q-8 5 -13.5 10.5t-8.5 13t-4.5 18t-1.5 26.5q0 15 2 30t4.5 27t4.5 20.5t2 9.5q0 4 -6 7q-17 9 -24.5 14.5t-7.5 16.5q0 17 6.5 35t8.5 20q5 4 11 4q12 0 22.5 -8.5t20.5 -8.5
q2 0 4.5 2t7.5 12q29 54 60 108t64 109.5t70 113.5t78 120q12 18 15.5 21.5t6.5 3.5q8 0 27.5 6t36.5 6q10 0 21 -2.5t13 -6.5q2 -8 5 -9t3 -7q0 -3 -2.5 -17.5t-5 -31t-5 -30.5t-2.5 -16q0 -14 -3 -33q-5 -29 -9 -70t-7 -79.5t-4.5 -66.5t-1.5 -29q0 -2 0.5 -4t5.5 -2
t17.5 2t34.5 2q20 0 36.5 -5t24.5 -14q6 -7 6 -11q0 -6 -4 -13q-9 -15 -26 -20.5t-46 -5.5q-12 0 -24 -2.5t-20 -7.5q-7 -5 -8.5 -7.5t-2.5 -12.5l-5 -100q0 -5 -0.5 -13.5t-0.5 -17.5v-18v-14q0 -30 3 -50.5t7 -32.5t7 -18t3 -8zM365 267q14 106 19 170t5 98
q0 11 -0.5 13.5t-2.5 2.5t-3.5 -1t-5.5 -7q-29 -46 -53.5 -86.5t-46.5 -78t-41.5 -73t-38.5 -71.5q-8 -14 -10 -19t-2 -7q0 -4 6 -4q4 0 15.5 2.5t26.5 7t30.5 9t27.5 9.5q28 11 46 16.5t21 7.5q4 2 5 3.5t2 7.5zM603 780q2 -7 6.5 -15.5t4.5 -16.5v-9q0 -2 -2 -7
q-4 -11 -11 -21.5t-14 -14.5q-5 -2 -14.5 -3t-14.5 -1q-17 0 -24 15q-5 11 -13 19.5t-8 23.5q0 3 2 11t6 16.5t9.5 15t13.5 6.5q2 0 8.5 -0.5t11.5 -0.5q13 0 25 -4.5t14 -13.5zM388 826q5 -8 8 -17.5t3 -14.5q0 -9 -3.5 -17t-7.5 -14t-8 -10.5t-4 -7.5q0 -4 -5 -7t-11 -5.5
t-12.5 -3.5t-10.5 -1h-8q-5 0 -7 2q-9 6 -12 12t-8 11q-2 2 -2 29q0 5 4.5 19t8.5 22q5 10 14 13t21 3q8 0 21.5 -2t18.5 -11z" />
    <glyph glyph-name="Aring" unicode="&#xc5;" 
d="M488 817q-3 5 -6.5 7t-5.5 2q-7 0 -10 -1.5t-6 -5.5q-11 -15 -19 -30.5t-8 -32.5q0 -15 7 -25t16 -10q10 0 14 6q9 16 18 31t9 31q0 14 -9 28zM552 818q1 -6 1.5 -12t0.5 -12q0 -44 -26 -83q-7 -10 -21 -19.5t-37 -9.5q-15 0 -35 4t-28 9q-20 14 -28 28.5t-8 28.5
q0 11 5.5 27.5t14.5 32.5t20.5 29t22.5 17q19 7 37 7q14 0 26 -3q23 -6 38 -20.5t17 -23.5zM460 -73q0 -9 -7 -14.5t-13 -10.5q-4 -3 -6 -3.5t-5 -0.5q-12 0 -26.5 4t-24.5 14q-5 5 -8.5 18.5t-6 31.5t-3.5 38.5t-1 38.5q0 34 2 66.5t2 67.5q0 4 -6 4q-21 -8 -50 -17.5
t-58 -18.5t-54.5 -16t-40.5 -9q-5 -1 -8 -3.5t-7 -10.5q-9 -20 -12.5 -38t-3.5 -32q0 -33 1.5 -41.5t1.5 -14.5q0 -3 -5 -6q-10 -7 -18.5 -14.5t-19.5 -7.5q-2 0 -8 3t-11 6q-8 5 -13.5 10.5t-8.5 13t-4.5 18t-1.5 26.5q0 15 2 30t4.5 27t4.5 20.5t2 9.5q0 4 -6 7
q-17 9 -24.5 14.5t-7.5 16.5q0 17 6.5 35t8.5 20q5 4 11 4q12 0 22.5 -8.5t20.5 -8.5q2 0 4.5 2t7.5 12q29 54 58 103t60 98.5t64.5 102.5t71.5 117q11 19 15 22.5t7 3.5q8 0 25.5 5.5t46.5 5.5q10 0 23.5 -2t15.5 -7t5.5 -7.5t3.5 -8.5q0 -3 -2 -17t-5 -29.5t-5 -29
t-2 -15.5v-14q0 -5 -2 -16q-4 -29 -7.5 -66.5t-6.5 -71.5t-4.5 -58.5t-1.5 -25.5q0 -2 0.5 -4t5.5 -2t17.5 2t34.5 2q20 0 36.5 -5t24.5 -14q6 -7 6 -11q0 -6 -4 -13q-9 -15 -26 -20.5t-46 -5.5q-12 0 -24 -2.5t-20 -7.5q-7 -5 -8.5 -7.5t-2.5 -12.5l-5 -100
q0 -5 -0.5 -13.5t-0.5 -17.5v-18v-14q0 -30 3 -50.5t7 -32.5t7 -18t3 -8zM365 267q5 43 8.5 81t6 69.5t3.5 54t1 34.5q0 11 -0.5 13.5t-2.5 2.5t-4.5 -3t-10.5 -16q-12 -20 -33 -51t-45 -67.5t-48 -75.5t-43 -75q-8 -14 -10 -19t-2 -7q0 -4 6 -4q4 0 15.5 2.5t26.5 7t30.5 9
t27.5 9.5q28 11 46 16.5t21 7.5q4 2 5 3.5t2 7.5z" />
    <glyph glyph-name="AE" unicode="&#xc6;" horiz-adv-x="736" 
d="M405 325q11 60 25 117t24 97q5 20 5 23t-2 3t-5 -3.5t-11 -13.5q-54 -70 -110.5 -137t-101.5 -139q-5 -8 -6.5 -11t-1.5 -5q0 -3 3 -3q1 0 6 1t25 6q63 17 125 40q17 6 20 9.5t5 15.5zM366 210q-46 -17 -98 -28t-94 -21q-10 -2 -12.5 -4t-7.5 -13q-8 -17 -16 -36.5
t-14 -39t-10 -37t-4 -29.5q0 -7 -5.5 -8.5t-8.5 -10.5q-3 -8 -5.5 -11t-10.5 -3q-10 0 -25 1.5t-17 3.5q-8 8 -15 16t-7 20q0 29 12.5 62t25.5 62q5 12 5 14q0 4 -11 4q-8 0 -18.5 3t-10.5 11q0 18 2 30t8 23q8 15 11.5 17.5t15.5 2.5q5 0 16 -0.5t21 -0.5q12 0 16 3t12 16
q38 58 84 116.5t91 111.5t84 98.5t64 77.5q8 10 10.5 12.5t6.5 2.5q3 0 10.5 2t17.5 4l20 4t18 2q9 0 20 -2.5t13 -5.5l6 -7.5t2 -7.5q0 -10 -4.5 -23t-4.5 -17q0 -6 8 -6q9 0 21 3l35 8q34 8 74 13.5t87 5.5q6 0 16 -2t15 -2q11 0 26 -14.5t29 -34.5q3 -5 3.5 -9t0.5 -7
q0 -7 -3.5 -11t-9.5 -9q-3 -2 -7 -3.5t-15 -1.5q-6 0 -13.5 5.5t-17.5 5.5q-13 0 -16.5 2t-15.5 2q-69 0 -123.5 -14.5t-106.5 -28.5q-8 -2 -11 -5t-5 -15q-4 -20 -9 -43t-9.5 -44.5t-8.5 -41t-6 -32.5q2 -5 5 -5t16 5q6 3 22 7t36.5 7.5t42.5 6.5t42 3q13 0 28.5 -3
t24.5 -10q8 -7 15 -19.5t7 -26.5q0 -7 -6.5 -11t-15.5 -4q-6 0 -12.5 -1.5t-11.5 -1.5q-8 0 -12 1.5t-15 1.5q-5 0 -15 -1.5t-21 -3.5t-21.5 -4.5t-16.5 -4.5q-20 -6 -32.5 -10.5t-21.5 -7.5t-16 -6t-16 -6q-14 -5 -17 -7.5t-5 -10.5q-4 -19 -8.5 -47t-8.5 -57.5t-7 -56
t-3 -41.5q0 -11 5.5 -18.5t10.5 -7.5q22 0 38.5 4t31 10t29 13.5t32.5 14.5q26 11 52.5 31t58.5 31q14 5 19.5 6t8.5 1q6 0 18 -5q18 -8 29 -13.5t11 -12.5q0 -9 -1 -13q0 -2 -5.5 -6t-13 -9.5t-16 -11t-15.5 -9.5q-29 -17 -61 -34.5t-69.5 -32t-82 -23.5t-98.5 -9
q-20 0 -37 9.5t-27 23.5q-5 8 -7 19t-2 32q0 12 1 31t3.5 41.5t5.5 47.5t6 49q1 6 1.5 10t0.5 7q0 5 -4 5t-11 -3z" />
    <glyph glyph-name="Ccedilla" unicode="&#xc7;" horiz-adv-x="472" 
d="M214 -29q5 -5 7 -12t2 -21q0 -10 -4.5 -23t-12.5 -24q-24 -35 -46.5 -47.5t-44.5 -12.5q-15 0 -28.5 3.5t-30.5 9.5q-25 9 -34.5 18t-14.5 17q-7 10 -7 16q0 8 15 23q4 4 8 4q3 0 5.5 -1.5t5.5 -1.5q5 0 11.5 -4.5t7.5 -9.5q1 -7 11.5 -13.5t24.5 -6.5q23 0 36.5 17
t27.5 46q4 8 4.5 12t0.5 7q0 14 -6 19l-43 28q-15 10 -27 25t-15 29q-4 17 -4.5 32t-0.5 29q0 11 1.5 26.5t3.5 30.5t4 27t4 16q21 60 50.5 123t67.5 120.5t86.5 106.5t107.5 82q3 2 11.5 4t19.5 4t23 3.5t22 1.5q19 0 34.5 -5t18.5 -9q7 -9 16 -17.5t17 -17t13 -16.5t5 -17
v-12t-1 -11q-2 -5 -7.5 -17t-11.5 -27t-12.5 -31t-9.5 -27q-2 -8 -10 -13.5t-21 -5.5q-7 0 -15.5 1.5t-13.5 2.5q-8 2 -20.5 12t-12.5 19q0 13 5 23.5t11 19.5t11.5 17.5t7.5 19.5q1 6 6.5 13t5.5 18q0 3 -2 8t-7 5q-26 0 -50 -13.5t-48 -37.5t-48.5 -55.5t-50.5 -67.5
q-45 -61 -74 -128.5t-52 -138.5q-2 -5 -4 -18t-2 -40q0 -3 1 -8.5t2.5 -11.5t4 -11t4.5 -7q11 -9 21.5 -20t24.5 -11q4 0 11.5 2t16 4.5t17 6t14.5 6.5q44 22 79.5 55t72.5 65q4 3 8 5.5t12 2.5h19q10 0 18 -3.5t16 -15.5q5 -7 6 -10.5t1 -5.5q0 -1 -0.5 -2t-4 -4.5
t-11 -10.5t-20.5 -20q-25 -24 -50.5 -48.5t-53 -44t-58 -32t-66.5 -12.5q-9 0 -10.5 -0.5t-1.5 -5.5z" />
    <glyph glyph-name="Egrave" unicode="&#xc8;" horiz-adv-x="508" 
d="M679 608q0 -11 -3.5 -15t-11.5 -4q-7 0 -12.5 -3t-12.5 -3q-6 0 -14 5t-22 5q-71 0 -134.5 -14.5t-117.5 -32.5q-5 -2 -7.5 -4t-4.5 -8q-14 -37 -27.5 -70.5t-27.5 -70.5q0 -4 4 -4q34 12 71.5 25.5t75.5 13.5t75 -20q8 -5 10.5 -14.5t2.5 -17.5q0 -5 -6.5 -8.5t-14.5 -6
t-16 -4t-11 -1.5q-9 0 -17.5 1.5t-15.5 1.5q-23 0 -45.5 -5t-44 -12.5t-42 -15t-39.5 -12.5l-16.5 -5.5t-13.5 -10.5q-12 -28 -25.5 -58t-25 -59.5t-18.5 -56.5t-7 -48q0 -12 8.5 -23t16.5 -11q14 0 37 5t44 14q23 10 39.5 16.5t28.5 11.5q20 9 39.5 21t39 23.5t40 19.5
t43.5 8q8 0 10 -3q1 -2 6.5 -5.5t10.5 -7.5t9.5 -9t4.5 -9q0 -12 -6 -13q-11 -3 -22 -13q-16 -14 -27 -20q-34 -18 -70 -36.5t-75.5 -32.5t-83.5 -23t-95 -9q-3 0 -12.5 2.5t-21.5 7.5t-24 12.5t-19 18.5q-5 8 -6.5 24.5t-1.5 26.5q0 31 6 60t15.5 56.5t20.5 55t21 54.5
q-2 2 -7.5 10t-5.5 21v6q0 4 2 6q2 4 7 5.5t22 6.5q6 2 8.5 4t6.5 10q21 47 32.5 75t17.5 51q0 5 -4 5q-5 0 -15.5 -4t-21.5 -4t-19 4q-5 3 -10 9.5t-8.5 14t-5.5 14.5t-2 12t6 7q48 12 92 28.5t89 33.5q15 6 45 14.5t68 16.5t79 14t79 6q8 0 18.5 -2t15.5 -4
q18 -9 33.5 -22.5t15.5 -27.5zM336 767q-10 7 -29.5 16.5t-36.5 16.5q-8 3 -10 11t-2 22q0 9 2.5 14.5t8.5 11.5q12 12 24 12q5 0 8 -1.5t6 -1.5q2 0 4.5 -1.5t8 -5.5t15.5 -11.5t27 -19.5l102 -70q26 -18 26 -25q0 -5 -1.5 -8.5t-3.5 -8.5t-2 -9t-1 -7q-3 -10 -13 -10
t-16 1.5t-15 7.5l-102 66v0z" />
    <glyph glyph-name="Eacute" unicode="&#xc9;" horiz-adv-x="508" 
d="M679 608q0 -11 -3.5 -15t-11.5 -4q-7 0 -12.5 -3t-12.5 -3q-6 0 -14 5t-22 5q-71 0 -134.5 -14.5t-117.5 -32.5q-5 -2 -7.5 -4t-4.5 -8q-14 -37 -27.5 -70.5t-27.5 -70.5q0 -4 4 -4q34 12 71.5 25.5t75.5 13.5t75 -20q8 -5 10.5 -14.5t2.5 -17.5q0 -5 -6.5 -8.5t-14.5 -6
t-16 -4t-11 -1.5q-9 0 -17.5 1.5t-15.5 1.5q-23 0 -45.5 -5t-44 -12.5t-42 -15t-39.5 -12.5l-16.5 -5.5t-13.5 -10.5q-12 -28 -25.5 -58t-25 -59.5t-18.5 -56.5t-7 -48q0 -12 8.5 -23t16.5 -11q14 0 37 5t44 14q23 10 39.5 16.5t28.5 11.5q20 9 39.5 21t39 23.5t40 19.5
t43.5 8q8 0 10 -3q1 -2 6.5 -5.5t10.5 -7.5t9.5 -9t4.5 -9q0 -12 -6 -13q-11 -3 -22 -13q-16 -14 -27 -20q-34 -18 -70 -36.5t-75.5 -32.5t-83.5 -23t-95 -9q-3 0 -12.5 2.5t-21.5 7.5t-24 12.5t-19 18.5q-5 8 -6.5 24.5t-1.5 26.5q0 31 6 60t15.5 56.5t20.5 55t21 54.5
q-2 2 -7.5 10t-5.5 21v6q0 4 2 6q2 4 7 5.5t22 6.5q6 2 8.5 4t6.5 10q21 47 32.5 75t17.5 51q0 5 -4 5q-5 0 -15.5 -4t-21.5 -4t-19 4q-5 3 -10 9.5t-8.5 14t-5.5 14.5t-2 12t6 7q48 12 92 28.5t89 33.5q15 6 45 14.5t68 16.5t79 14t79 6q8 0 18.5 -2t15.5 -4
q18 -9 33.5 -22.5t15.5 -27.5zM423 773q18 13 35 25.5t31 26.5q2 2 6 4.5t15 2.5q5 0 12 -4q8 -5 12 -10t6 -14q3 -15 3 -19q0 -3 -1.5 -8t-9.5 -12q-7 -6 -19.5 -14.5t-33.5 -21.5l-105 -65q-8 -5 -16.5 -7t-10.5 -2t-8.5 2.5t-12.5 8.5q-5 5 -7 5.5t-5 2.5q-2 2 -3.5 4.5
t-1.5 3.5v7t2 7q3 5 11 8l7 3.5t16 10.5l78 55v0z" />
    <glyph glyph-name="Ecircumflex" unicode="&#xca;" horiz-adv-x="508" 
d="M679 608q0 -11 -3.5 -15t-11.5 -4q-7 0 -12.5 -3t-12.5 -3q-6 0 -14 5t-22 5q-71 0 -134.5 -14.5t-117.5 -32.5q-5 -2 -7.5 -4t-4.5 -8q-14 -37 -27.5 -70.5t-27.5 -70.5q0 -4 4 -4q34 12 71.5 25.5t75.5 13.5t75 -20q8 -5 10.5 -14.5t2.5 -17.5q0 -5 -6.5 -8.5t-14.5 -6
t-16 -4t-11 -1.5q-9 0 -17.5 1.5t-15.5 1.5q-23 0 -45.5 -5t-44 -12.5t-42 -15t-39.5 -12.5l-16.5 -5.5t-13.5 -10.5q-12 -28 -25.5 -58t-25 -59.5t-18.5 -56.5t-7 -48q0 -12 8.5 -23t16.5 -11q14 0 37 5t44 14q23 10 39.5 16.5t28.5 11.5q20 9 39.5 21t39 23.5t40 19.5
t43.5 8q8 0 10 -3q1 -2 6.5 -5.5t10.5 -7.5t9.5 -9t4.5 -9q0 -12 -6 -13q-11 -3 -22 -13q-16 -14 -27 -20q-34 -18 -70 -36.5t-75.5 -32.5t-83.5 -23t-95 -9q-3 0 -12.5 2.5t-21.5 7.5t-24 12.5t-19 18.5q-5 8 -6.5 24.5t-1.5 26.5q0 31 6 60t15.5 56.5t20.5 55t21 54.5
q-2 2 -7.5 10t-5.5 21v6q0 4 2 6q2 4 7 5.5t22 6.5q6 2 8.5 4t6.5 10q21 47 32.5 75t17.5 51q0 5 -4 5q-5 0 -15.5 -4t-21.5 -4t-19 4q-5 3 -10 9.5t-8.5 14t-5.5 14.5t-2 12t6 7q48 12 92 28.5t89 33.5q15 6 45 14.5t68 16.5t79 14t79 6q8 0 18.5 -2t15.5 -4
q18 -9 33.5 -22.5t15.5 -27.5zM526 758q8 -11 9.5 -15t1.5 -7q0 -8 -3.5 -12t-6.5 -9q-5 -8 -7 -9.5t-9 -1.5q-3 0 -8 2t-10 7l-55 58q-4 5 -10 5q-3 0 -11 -5q-36 -26 -54.5 -40t-27 -21t-11.5 -10l-7 -7q-8 -8 -14 -8q-11 0 -12.5 3t-6.5 4q-4 1 -10.5 8.5t-6.5 18.5
q0 17 2 22q3 7 5 8.5t4 4.5q1 2 3 4.5t8 7t16.5 11.5t27.5 18l89 57q5 3 9 5t12 2q10 0 12 -2t4.5 -3t6.5 -7z" />
    <glyph glyph-name="Edieresis" unicode="&#xcb;" horiz-adv-x="508" 
d="M679 608q0 -11 -3.5 -15t-11.5 -4q-7 0 -12.5 -3t-12.5 -3q-6 0 -14 5t-22 5q-71 0 -134.5 -14.5t-117.5 -32.5q-5 -2 -7.5 -4t-4.5 -8q-14 -37 -27.5 -70.5t-27.5 -70.5q0 -4 4 -4q34 12 71.5 25.5t75.5 13.5t75 -20q8 -5 10.5 -14.5t2.5 -17.5q0 -5 -6.5 -8.5t-14.5 -6
t-16 -4t-11 -1.5q-9 0 -17.5 1.5t-15.5 1.5q-23 0 -45.5 -5t-44 -12.5t-42 -15t-39.5 -12.5l-16.5 -5.5t-13.5 -10.5q-12 -28 -25.5 -58t-25 -59.5t-18.5 -56.5t-7 -48q0 -12 8.5 -23t16.5 -11q14 0 37 5t44 14q23 10 39.5 16.5t28.5 11.5q20 9 39.5 21t39 23.5t40 19.5
t43.5 8q8 0 10 -3q1 -2 6.5 -5.5t10.5 -7.5t9.5 -9t4.5 -9q0 -12 -6 -13q-11 -3 -22 -13q-16 -14 -27 -20q-34 -18 -70 -36.5t-75.5 -32.5t-83.5 -23t-95 -9q-3 0 -12.5 2.5t-21.5 7.5t-24 12.5t-19 18.5q-5 8 -6.5 24.5t-1.5 26.5q0 31 6 60t15.5 56.5t20.5 55t21 54.5
q-2 2 -7.5 10t-5.5 21v6q0 4 2 6q2 4 7 5.5t22 6.5q6 2 8.5 4t6.5 10q21 47 32.5 75t17.5 51q0 5 -4 5q-5 0 -15.5 -4t-21.5 -4t-19 4q-5 3 -10 9.5t-8.5 14t-5.5 14.5t-2 12t6 7q48 12 92 28.5t89 33.5q15 6 45 14.5t68 16.5t79 14t79 6q8 0 18.5 -2t15.5 -4
q18 -9 33.5 -22.5t15.5 -27.5zM351 820q5 -8 8 -17.5t3 -14.5q0 -9 -3.5 -17t-7.5 -14t-8 -10.5t-4 -7.5q0 -4 -5 -7t-11 -5.5t-12.5 -3.5t-10.5 -1h-8q-5 0 -7 2q-9 6 -12 12t-8 11q-2 2 -2 29q0 5 4.5 19t8.5 22q5 10 14 13t21 3q8 0 21.5 -2t18.5 -11zM552 805
q2 -7 6.5 -15.5t4.5 -16.5q0 -6 -0.5 -9t-1.5 -7q-5 -10 -11 -20.5t-14 -15.5q-5 -2 -14.5 -3t-14.5 -1q-17 0 -24 15q-5 11 -13 19.5t-8 23.5q0 3 2 11t6 16.5t9.5 15t13.5 6.5q2 0 8.5 -0.5t11.5 -0.5q13 0 25 -4.5t14 -13.5z" />
    <glyph glyph-name="Igrave" unicode="&#xcc;" horiz-adv-x="254" 
d="M352 609q0 -13 -1.5 -22t-4.5 -16.5t-9 -14.5t-15 -16q-3 -3 -5.5 -6.5t-7.5 -17.5q-43 -110 -80 -222.5t-76 -230.5q-2 -6 -2 -10t1 -7t1 -8q0 -12 -4 -26t-15 -35q-2 -3 -6 -3.5t-7 -0.5q-4 0 -7 -3t-5 -7q-5 -8 -9 -8q-6 0 -8 5t-9 5q-9 0 -18 7.5t-13 7.5q-6 0 -6 6
q0 2 1.5 11.5t4.5 21.5t6.5 24t6.5 18q3 5 5 10t4 14q15 59 32 114t35 109t37 108.5t37 111.5q3 10 7 17.5t9 16.5t10.5 23.5t13.5 40.5q2 8 12.5 10t27.5 2q7 0 17 -2.5t19 -6t15 -9t6 -11.5zM266 743q-10 7 -29.5 16.5t-36.5 16.5q-8 3 -10 11t-2 22q0 9 2.5 14.5
t8.5 11.5q12 12 24 12q5 0 8 -1.5t6 -1.5q2 0 4.5 -1.5t8 -5.5t15.5 -11.5t27 -19.5l102 -70q26 -18 26 -25q0 -5 -1.5 -8.5t-3.5 -8.5t-2 -9t-1 -7q-3 -10 -13 -10t-16 1.5t-15 7.5l-102 66v0z" />
    <glyph glyph-name="Iacute" unicode="&#xcd;" horiz-adv-x="254" 
d="M352 609q0 -13 -1.5 -22t-4.5 -16.5t-9 -14.5t-15 -16q-3 -3 -5.5 -6.5t-7.5 -17.5q-43 -110 -80 -222.5t-76 -230.5q-2 -6 -2 -10t1 -7t1 -8q0 -12 -4 -26t-15 -35q-2 -3 -6 -3.5t-7 -0.5q-4 0 -7 -3t-5 -7q-5 -8 -9 -8q-6 0 -8 5t-9 5q-9 0 -18 7.5t-13 7.5q-6 0 -6 6
q0 2 1.5 11.5t4.5 21.5t6.5 24t6.5 18q3 5 5 10t4 14q15 59 32 114t35 109t37 108.5t37 111.5q3 10 7 17.5t9 16.5t10.5 23.5t13.5 40.5q2 8 12.5 10t27.5 2q7 0 17 -2.5t19 -6t15 -9t6 -11.5zM402 789q6 2 16 6t21.5 9t22 10t17.5 10q2 2 6.5 2.5t7.5 0.5q11 0 19 -8
q7 -7 9 -12.5t2 -15.5q0 -12 -1 -17t-4 -9q-7 -8 -21.5 -14.5t-50.5 -17.5l-118 -37q-11 -3 -20 -3q-7 0 -11 2q-10 7 -15 14q-3 5 -5 7l-4 4q-3 3 -3 8q0 8 5 14q2 3 6.5 4t6.5 1q4 0 25 8l89 34v0z" />
    <glyph glyph-name="Icircumflex" unicode="&#xce;" horiz-adv-x="254" 
d="M352 609q0 -13 -1.5 -22t-4.5 -16.5t-9 -14.5t-15 -16q-3 -3 -5.5 -6.5t-7.5 -17.5q-43 -110 -80 -222.5t-76 -230.5q-2 -6 -2 -10t1 -7t1 -8q0 -12 -4 -26t-15 -35q-2 -3 -6 -3.5t-7 -0.5q-4 0 -7 -3t-5 -7q-5 -8 -9 -8q-6 0 -8 5t-9 5q-9 0 -18 7.5t-13 7.5q-6 0 -6 6
q0 2 1.5 11.5t4.5 21.5t6.5 24t6.5 18q3 5 5 10t4 14q15 59 32 114t35 109t37 108.5t37 111.5q3 10 7 17.5t9 16.5t10.5 23.5t13.5 40.5q2 8 12.5 10t27.5 2q7 0 17 -2.5t19 -6t15 -9t6 -11.5zM533 721q7 -11 9 -16t2 -9q0 -8 -5 -11t-9 -8q-5 -7 -7.5 -9t-10.5 -2
q-2 0 -8 4t-10 10l-63 86q-4 6 -8 6q-2 0 -3.5 -0.5t-6.5 -2.5q-30 -12 -49 -20.5t-30.5 -14.5t-17 -9.5t-8.5 -6.5q-1 -1 -5 -1q-9 0 -14 5t-10 7q-4 2 -4.5 7.5t-0.5 16.5q0 17 2 21q3 6 5 7.5t4 3.5q2 3 11 8t44 17l89 31q9 3 13 3q15 0 19 -7q2 -5 4 -5q3 0 8 -8z" />
    <glyph glyph-name="Idieresis" unicode="&#xcf;" horiz-adv-x="254" 
d="M352 609q0 -13 -1.5 -22t-4.5 -16.5t-9 -14.5t-15 -16q-3 -3 -5.5 -6.5t-7.5 -17.5q-43 -110 -80 -222.5t-76 -230.5q-2 -6 -2 -10t1 -7t1 -8q0 -12 -4 -26t-15 -35q-2 -3 -6 -3.5t-7 -0.5q-4 0 -7 -3t-5 -7q-5 -8 -9 -8q-6 0 -8 5t-9 5q-9 0 -18 7.5t-13 7.5q-6 0 -6 6
q0 2 1.5 11.5t4.5 21.5t6.5 24t6.5 18q3 5 5 10t4 14q15 59 32 114t35 109t37 108.5t37 111.5q3 10 7 17.5t9 16.5t10.5 23.5t13.5 40.5q2 8 12.5 10t27.5 2q7 0 17 -2.5t19 -6t15 -9t6 -11.5zM543 761q2 -7 6.5 -15.5t4.5 -16.5q0 -12 -2 -16q-8 -17 -13.5 -25t-11.5 -11
q-5 -2 -14.5 -3t-14.5 -1q-17 0 -24 15q-5 11 -13 19.5t-8 23.5q0 3 2 11t6 16.5t9.5 15t13.5 6.5q2 0 8.5 -0.5t11.5 -0.5q13 0 25 -4.5t14 -13.5zM358 819q5 -8 8 -17.5t3 -14.5q0 -9 -3.5 -17t-7.5 -14t-8 -10.5t-4 -7.5q0 -4 -5 -7t-11 -5.5t-12.5 -3.5t-10.5 -1h-8
q-5 0 -7 2q-9 6 -12 12t-8 11q-2 2 -2 29q0 5 4.5 19t8.5 22q5 10 14 13t21 3q8 0 21.5 -2t18.5 -11z" />
    <glyph glyph-name="Eth" unicode="&#xd0;" horiz-adv-x="562" 
d="M281 347q7 0 18 1.5t22.5 4t21.5 4t16 1.5q10 0 12 -3q3 -5 6 -13t3 -17q0 -8 -3 -15q-5 -12 -9.5 -17t-7.5 -12q-2 -5 -11 -6.5t-19 -3.5q-3 0 -14 -1t-23.5 -2t-23 -2t-13.5 -1q-8 0 -12 -10q-19 -51 -32.5 -101t-21.5 -103q0 -5 0.5 -6t5.5 -3t14 -2.5t17 -0.5
q28 0 53 12t43 30q72 72 121 153.5t86 172.5q7 17 15 40t8 41q0 2 -1 8.5t-2.5 15t-3.5 16t-5 12.5q-14 20 -31 27.5t-36 7.5q-29 0 -56.5 -11.5t-49.5 -16.5q4 -4 4 -7q0 -7 -2 -10t-4.5 -6t-6 -6t-6.5 -10q-18 -40 -36.5 -80t-35.5 -81zM234 457q0 5 -4 5q-3 0 -8.5 -3.5
t-12 -8t-14 -8t-13.5 -3.5q-7 0 -13.5 6t-6.5 16q0 18 1 29t8 20.5t21.5 21t40.5 29.5q21 14 46.5 27.5t53 24t56 16.5t55.5 6q22 0 49 -4.5t47 -18.5t40.5 -27t39.5 -38q10 -13 15 -29t5 -53q0 -22 -7 -46.5t-20 -48.5q-6 -11 -8 -19t-10 -23q-27 -56 -57 -110.5
t-65.5 -101.5t-79 -83t-97.5 -56q-8 -3 -16 -3.5t-16 -0.5q-20 0 -39 4t-36 9q-1 -7 -8.5 -8t-18.5 -1q-13 0 -30 11.5t-25 25.5l-21 9t-28.5 15t-25 21t-10.5 26q0 10 6 13.5t14 3.5q7 0 16 -1.5t21 -1.5q9 0 15 -5.5t12 -5.5q5 0 6 3q9 40 21 80t24 77q0 4 -4 4
q-16 0 -25 -3t-23 -3q-13 0 -13 12q0 29 9 43t16 20q8 7 19.5 9t43.5 7q8 1 11 8q11 28 21.5 56.5t21.5 55.5z" />
    <glyph glyph-name="Ntilde" unicode="&#xd1;" horiz-adv-x="598" 
d="M426 -22q-7 0 -13.5 1.5t-22.5 9.5q-28 14 -37 26.5t-15 32.5q-14 44 -23.5 98.5t-17.5 108t-15 101t-14 77.5q-2 9 -3.5 11.5t-4.5 2.5q-4 0 -8 -14q-8 -28 -23 -75.5t-31.5 -104t-30.5 -116t-19 -110.5q-3 -32 -3 -36q0 -8 -10.5 -13t-26.5 -5q-12 0 -17.5 1t-9 2.5
t-6 4t-6.5 4.5q-6 3 -10.5 6.5t-4.5 8.5q0 11 7.5 42.5t19.5 73.5t25.5 88.5t26 87t21 69.5t10.5 36l9 34q13 49 22 85t19 77q1 6 4.5 8t7 3t6 2t2.5 5q0 8 -7.5 19.5t-7.5 37.5q0 3 1.5 5.5t8.5 5.5q8 3 24.5 6t35.5 3q9 0 14 -14q24 -73 36 -145t20 -144t17.5 -145
t29.5 -146q4 -15 8 -15q2 0 3 2.5t6 12.5q41 88 69.5 180.5t57.5 188.5q5 17 9 27t9 28q7 26 8 54t9 54q4 14 7 17.5t14 3.5t22 -3t19 -3q5 0 11.5 -4.5t12 -10t9 -11t3.5 -7.5q0 -10 -2 -18t-9 -20q-5 -8 -7 -16.5t-7 -23.5q-18 -51 -35.5 -106.5t-37.5 -117.5
t-43.5 -130.5t-54.5 -145.5q-6 -15 -8 -18.5t-6 -7.5q-15 -15 -25 -20.5t-22 -5.5zM265 752q0 8 -4 18.5t-4 18.5q0 2 2 7t7 7l63 23q18 7 26 8t19 1q14 0 24 -11t24 -31q14 -21 20.5 -28t20.5 -7q2 0 14 3.5t25.5 8l25.5 8.5t15 4q9 0 14 -6t6 -13q1 -6 2.5 -9.5t1.5 -11.5
q0 -5 -8 -10q-11 -7 -23.5 -15t-26 -14.5t-26 -11t-22.5 -4.5q-16 0 -27.5 3.5t-25.5 14.5q-7 6 -13 14t-11 16t-9.5 14.5t-7.5 8.5q-5 3 -9 3q-6 0 -17 -4t-32 -17q-4 -2 -6 -2.5t-4 -0.5q-12 0 -23 3.5t-11 11.5z" />
    <glyph glyph-name="Ograve" unicode="&#xd2;" horiz-adv-x="490" 
d="M381 546q0 10 -7 10q-2 0 -11 -4t-30 -26q-49 -51 -87 -114t-60 -133l-7.5 -25t-4.5 -37q0 -3 -1 -11t-1.5 -18t-1.5 -21t-1 -19q0 -32 9 -56t25 -40q3 -3 13.5 -6t19.5 -3q19 0 38.5 10.5t30.5 26.5q39 60 63.5 119.5t38 109.5t18.5 85.5t5 46.5v21t-1 12
q-4 23 -13.5 40.5t-28.5 23.5q-6 2 -6 8zM448 601q29 -26 50 -68.5t21 -106.5v-15q0 -6 -1 -14t-3 -18t-6 -25q-22 -90 -52.5 -172t-80.5 -145q-24 -30 -60.5 -45.5t-78.5 -15.5q-16 0 -29.5 2t-30.5 7q-12 4 -29 17.5t-28 30.5q-17 26 -24.5 51t-7.5 63q0 103 32.5 186.5
t88.5 164.5q27 40 54.5 70.5t62.5 51.5q18 11 26 11t22 -6q4 -2 11 -4.5t15 -5t15 -4.5t11 -2q5 0 10.5 -1.5t11.5 -6.5zM363 730q-10 7 -29.5 16.5t-36.5 16.5q-8 3 -10 11t-2 22q0 9 2.5 14.5t8.5 11.5q12 12 24 12q5 0 8 -1.5t6 -1.5q2 0 4.5 -1.5t8 -5.5t15.5 -11.5
t27 -19.5l102 -70q26 -18 26 -25q0 -5 -1.5 -8.5t-3.5 -8.5t-2 -9t-1 -7q-3 -10 -13 -10t-16 1.5t-15 7.5l-102 66v0z" />
    <glyph glyph-name="Oacute" unicode="&#xd3;" horiz-adv-x="490" 
d="M381 546q0 10 -7 10q-2 0 -11 -4t-30 -26q-49 -51 -87 -114t-60 -133l-7.5 -25t-4.5 -37q0 -3 -1 -11t-1.5 -18t-1.5 -21t-1 -19q0 -32 9 -56t25 -40q3 -3 13.5 -6t19.5 -3q19 0 38.5 10.5t30.5 26.5q39 60 63.5 119.5t38 109.5t18.5 85.5t5 46.5v21t-1 12
q-4 23 -13.5 40.5t-28.5 23.5q-6 2 -6 8zM448 601q29 -26 50 -68.5t21 -106.5v-15q0 -6 -1 -14t-3 -18t-6 -25q-22 -90 -52.5 -172t-80.5 -145q-24 -30 -60.5 -45.5t-78.5 -15.5q-16 0 -29.5 2t-30.5 7q-12 4 -29 17.5t-28 30.5q-17 26 -24.5 51t-7.5 63q0 103 32.5 186.5
t88.5 164.5q27 40 54.5 70.5t62.5 51.5q18 11 26 11t22 -6q4 -2 11 -4.5t15 -5t15 -4.5t11 -2q5 0 10.5 -1.5t11.5 -6.5zM402 779q6 2 16 6t21.5 9t22 10t17.5 10q2 2 6.5 2.5t7.5 0.5q11 0 19 -8q7 -7 9 -12.5t2 -15.5q0 -12 -1 -17t-4 -9q-7 -8 -21.5 -14.5t-50.5 -17.5
l-118 -37q-11 -3 -20 -3q-7 0 -11 2q-10 7 -15 14q-3 5 -5 7l-4 4q-3 3 -3 8q0 8 5 14q2 3 6.5 4t6.5 1q4 0 25 8l89 34v0z" />
    <glyph glyph-name="Ocircumflex" unicode="&#xd4;" horiz-adv-x="490" 
d="M381 546q0 10 -7 10q-2 0 -11 -4t-30 -26q-49 -51 -87 -114t-60 -133l-7.5 -25t-4.5 -37q0 -3 -1 -11t-1.5 -18t-1.5 -21t-1 -19q0 -32 9 -56t25 -40q3 -3 13.5 -6t19.5 -3q19 0 38.5 10.5t30.5 26.5q39 60 63.5 119.5t38 109.5t18.5 85.5t5 46.5v21t-1 12
q-4 23 -13.5 40.5t-28.5 23.5q-6 2 -6 8zM448 601q29 -26 50 -68.5t21 -106.5v-15q0 -6 -1 -14t-3 -18t-6 -25q-22 -90 -52.5 -172t-80.5 -145q-24 -30 -60.5 -45.5t-78.5 -15.5q-16 0 -29.5 2t-30.5 7q-12 4 -29 17.5t-28 30.5q-17 26 -24.5 51t-7.5 63q0 103 32.5 186.5
t88.5 164.5q27 40 54.5 70.5t62.5 51.5q18 11 26 11t22 -6q4 -2 11 -4.5t15 -5t15 -4.5t11 -2q5 0 10.5 -1.5t11.5 -6.5zM533 701q7 -11 9 -16t2 -9q0 -8 -5 -11t-9 -8q-5 -7 -7.5 -9t-10.5 -2q-2 0 -8 4t-10 10l-63 86q-4 6 -8 6q-2 0 -3.5 -0.5t-6.5 -2.5
q-30 -12 -49 -20.5t-30.5 -14.5t-17 -9.5t-8.5 -6.5q-1 -1 -5 -1q-9 0 -14 5t-10 7q-4 2 -4.5 7.5t-0.5 16.5q0 17 2 21q3 6 5 7.5t4 3.5q2 3 11 8t44 17l89 31q9 3 13 3q15 0 19 -7q2 -5 4 -5q3 0 8 -8z" />
    <glyph glyph-name="Otilde" unicode="&#xd5;" horiz-adv-x="490" 
d="M381 546q0 10 -7 10q-2 0 -11 -4t-30 -26q-49 -51 -87 -114t-60 -133l-7.5 -25t-4.5 -37q0 -3 -1 -11t-1.5 -18t-1.5 -21t-1 -19q0 -32 9 -56t25 -40q3 -3 13.5 -6t19.5 -3q19 0 38.5 10.5t30.5 26.5q39 60 63.5 119.5t38 109.5t18.5 85.5t5 46.5v21t-1 12
q-4 23 -13.5 40.5t-28.5 23.5q-6 2 -6 8zM448 601q29 -26 50 -68.5t21 -106.5v-15q0 -6 -1 -14t-3 -18t-6 -25q-22 -90 -52.5 -172t-80.5 -145q-24 -30 -60.5 -45.5t-78.5 -15.5q-16 0 -29.5 2t-30.5 7q-12 4 -29 17.5t-28 30.5q-17 26 -24.5 51t-7.5 63q0 103 32.5 186.5
t88.5 164.5q27 40 54.5 70.5t62.5 51.5q18 11 26 11t22 -6q4 -2 11 -4.5t15 -5t15 -4.5t11 -2q5 0 10.5 -1.5t11.5 -6.5zM265 730q0 8 -4 18.5t-4 18.5q0 2 2 7t7 7l63 23q18 7 26 8t19 1q14 0 24 -11t24 -31q14 -21 20.5 -28t20.5 -7q2 0 14 3.5t25.5 8l25.5 8.5t15 4
q9 0 14 -6t6 -13q1 -6 2.5 -9.5t1.5 -11.5q0 -5 -8 -10q-11 -7 -23.5 -15t-26 -14.5t-26 -11t-22.5 -4.5q-16 0 -27.5 3.5t-25.5 14.5q-7 6 -13 14t-11 16t-9.5 14.5t-7.5 8.5q-5 3 -9 3q-6 0 -17 -4t-32 -17q-4 -2 -6 -2.5t-4 -0.5q-12 0 -23 3.5t-11 11.5z" />
    <glyph glyph-name="Odieresis" unicode="&#xd6;" horiz-adv-x="490" 
d="M543 726q2 -7 6.5 -15.5t4.5 -16.5q0 -12 -2 -16q-8 -17 -13.5 -25t-11.5 -11q-5 -2 -14.5 -3t-14.5 -1q-17 0 -24 15q-5 11 -13 19.5t-8 23.5q0 3 2 11t6 16.5t9.5 15t13.5 6.5q2 0 8.5 -0.5t11.5 -0.5q13 0 25 -4.5t14 -13.5zM358 784q5 -8 8 -17.5t3 -14.5
q0 -9 -3.5 -17t-7.5 -14t-8 -10.5t-4 -7.5q0 -4 -5 -7t-11 -5.5t-12.5 -3.5t-10.5 -1h-8q-5 0 -7 2q-9 6 -12 12t-8 11q-2 2 -2 29q0 5 4.5 19t8.5 22q5 10 14 13t21 3q8 0 21.5 -2t18.5 -11zM381 546q0 10 -7 10q-2 0 -11 -4t-30 -26q-49 -51 -87 -114t-60 -133l-7.5 -25
t-4.5 -37q0 -3 -1 -11t-1.5 -18t-1.5 -21t-1 -19q0 -32 9 -56t25 -40q3 -3 13.5 -6t19.5 -3q19 0 38.5 10.5t30.5 26.5q39 60 63.5 119.5t38 109.5t18.5 85.5t5 46.5v21t-1 12q-4 23 -13.5 40.5t-28.5 23.5q-6 2 -6 8zM448 601q29 -26 50 -68.5t21 -106.5v-15q0 -6 -1 -14
t-3 -18t-6 -25q-22 -90 -52.5 -172t-80.5 -145q-24 -30 -60.5 -45.5t-78.5 -15.5q-16 0 -29.5 2t-30.5 7q-12 4 -29 17.5t-28 30.5q-17 26 -24.5 51t-7.5 63q0 103 32.5 186.5t88.5 164.5q27 40 54.5 70.5t62.5 51.5q18 11 26 11t22 -6q4 -2 11 -4.5t15 -5t15 -4.5t11 -2
q5 0 10.5 -1.5t11.5 -6.5z" />
    <glyph glyph-name="multiply" unicode="&#xd7;" horiz-adv-x="590" 
d="M558 462q13 0 20 -11t8 -18q0 -5 -2 -8q-14 -17 -34.5 -32.5t-48.5 -33.5q-35 -23 -68.5 -52t-71.5 -61q-6 -5 -6 -9q0 -2 1 -5t3 -8q18 -47 37.5 -83.5t26.5 -47.5q3 -5 7.5 -11t9 -12.5t7.5 -11.5t3 -8q0 -5 -3.5 -8.5t-6.5 -5.5l-10 -7.5t-11 -4.5q-14 0 -18.5 1
t-10.5 5q-8 4 -14.5 2.5t-11.5 6.5q-13 20 -22 37t-17 33.5t-15 34l-15 37.5q-2 7 -5 7q-2 0 -3.5 -0.5t-6.5 -5.5q-36 -33 -68 -60.5t-50 -65.5q-5 -11 -11 -15t-14 -4q-5 0 -7 1t-11 1q-11 0 -15.5 7t-9.5 12l-12 12t-4 8q0 27 44 66q25 23 55.5 49.5t71.5 62.5
q13 12 13 17t-4 14q-5 11 -8 22t-8 28q-10 33 -16.5 53t-11 32t-6.5 18.5t-2 13.5q0 6 1 9t2 5q3 4 10 8q5 2 10 2.5t13 0.5h13q5 0 7 -0.5l4 -1t5 -1.5q5 -2 6 -5t6 -5q7 -2 10 -8t3 -11q0 -7 1 -15.5t4 -22.5t9 -35t16 -53q2 -2 3 -2q2 0 3.5 1t7.5 6q26 22 47.5 39
t40.5 31.5t36 29.5t34 34q2 2 8 4.5t17 2.5q6 0 15 -2.5t20 -2.5z" />
    <glyph glyph-name="Oslash" unicode="&#xd8;" horiz-adv-x="540" 
d="M464 410q-66 -75 -129 -152t-129 -155q-5 -5 -6 -7.5t-1 -4.5q0 -4 4 -11q13 -25 28 -33q4 -2 9.5 -5t11.5 -3q33 0 54 8t37 32q19 29 37 61.5t34.5 66.5t29.5 69t22 68q2 8 7 31t5 43q0 3 -2 3t-4 -2t-8 -9zM465 515q-8 14 -21 23.5t-21 10.5q-6 1 -14 1q-7 0 -9 3
q-6 8 -10 9t-7 1q-5 0 -12 -6t-12 -11q-55 -56 -94.5 -118t-62.5 -131q-4 -11 -7 -20.5t-5.5 -21t-4 -26t-1.5 -35.5q0 -11 3 -11t23 24l243 284q14 17 14 18q0 2 -2 6zM533 576q14 14 27 14q3 0 13.5 -3.5t14.5 -12.5q2 -5 6.5 -9.5t4.5 -15.5q0 -7 -2 -11.5t-13 -12.5
q-3 -2 -8.5 -6t-14.5 -11q-6 -5 -7.5 -6.5t-1.5 -4.5q0 -2 3 -15q1 -8 3.5 -30.5t2.5 -42.5q0 -11 -7 -49t-23 -90t-42.5 -111t-66.5 -111q-24 -32 -59 -53.5t-98 -21.5q-14 0 -30 1.5t-31.5 6t-30 13.5t-26.5 24q-4 5 -6 5q-1 0 -2 -0.5t-4 -4.5q-5 -7 -9.5 -10.5
t-9.5 -5.5q-3 -2 -5 -4t-10 -2q-7 0 -17 3q-2 1 -4.5 5.5t-5.5 8.5q-5 5 -7.5 10t-2.5 13q0 5 11 16.5t25 25.5q6 6 6 9v3t-2 6q-2 7 -4.5 28.5t-2.5 49.5q0 87 30 165t77 152q10 15 26 36.5t35 41.5t39.5 35.5t38.5 20.5q9 2 19.5 4t19.5 2t13 -1.5t7.5 -3.5t8.5 -3.5
t17 -1.5q8 0 11 0.5t4.5 1t3.5 1t8 0.5q9 0 27 -12.5t35 -35.5q5 -7 7 -7t9 7z" />
    <glyph glyph-name="Ugrave" unicode="&#xd9;" horiz-adv-x="600" 
d="M336 624q2 -5 3.5 -13t1.5 -13q0 -3 -3.5 -11.5t-5.5 -13.5q-23 -57 -47.5 -111t-47 -106.5t-40 -105t-25.5 -106.5q-2 -11 -3 -24.5t-1 -30.5q0 -9 1.5 -12t3.5 -3q6 0 16.5 4t22.5 16q69 69 124 131.5t97.5 116.5t72.5 97.5t49 74.5q4 7 6 11t3.5 8t4.5 10t10 17
q5 8 15 18.5t14 10.5q3 0 11 -2t22 -2q6 0 11 -9l14 -22q2 -4 4 -7.5t2 -6.5q0 -5 -7 -22q-12 -32 -31 -61.5t-31 -61.5q-37 -100 -54.5 -196.5t-17.5 -200.5q0 -17 0.5 -22.5t0.5 -7.5q0 -10 -14 -10q-11 0 -13 2.5t-10 4.5t-16 7t-19 12q-6 4 -12 6.5t-6 12.5q0 5 1 10.5
t4 10.5q4 6 5 16q6 52 9.5 101.5t14.5 94.5q3 12 3 16q0 5 -5 5q-3 0 -8 -5q-57 -66 -114 -130t-119 -118q-7 -6 -20 -11t-26 -5q-9 0 -21.5 4t-19.5 11t-14.5 9.5t-15 4.5t-14 5.5t-11.5 12.5q-2 5 -3.5 23.5t-1.5 39.5q0 47 9 88t18 70q28 88 63.5 173t67.5 173
q3 8 6 12.5t5 9.5q5 10 12 18.5t18 8.5q4 0 8.5 -3t19.5 -9q6 -2 13 -5.5t10 -9.5zM363 736q-10 7 -29.5 16.5t-36.5 16.5q-8 3 -10 11t-2 22q0 9 2.5 14.5t8.5 11.5q12 12 24 12q5 0 8 -1.5t6 -1.5q2 0 4.5 -1.5t8 -5.5t15.5 -11.5t27 -19.5l102 -70q26 -18 26 -25
q0 -5 -1.5 -8.5t-3.5 -8.5t-2 -9t-1 -7q-3 -10 -13 -10t-16 1.5t-15 7.5l-102 66v0z" />
    <glyph glyph-name="Uacute" unicode="&#xda;" horiz-adv-x="600" 
d="M336 624q2 -5 3.5 -13t1.5 -13q0 -3 -3.5 -11.5t-5.5 -13.5q-23 -57 -47.5 -111t-47 -106.5t-40 -105t-25.5 -106.5q-2 -11 -3 -24.5t-1 -30.5q0 -9 1.5 -12t3.5 -3q6 0 16.5 4t22.5 16q69 69 124 131.5t97.5 116.5t72.5 97.5t49 74.5q4 7 6 11t3.5 8t4.5 10t10 17
q5 8 15 18.5t14 10.5q3 0 11 -2t22 -2q6 0 11 -9l14 -22q2 -4 4 -7.5t2 -6.5q0 -5 -7 -22q-12 -32 -31 -61.5t-31 -61.5q-37 -100 -54.5 -196.5t-17.5 -200.5q0 -17 0.5 -22.5t0.5 -7.5q0 -10 -14 -10q-11 0 -13 2.5t-10 4.5t-16 7t-19 12q-6 4 -12 6.5t-6 12.5q0 5 1 10.5
t4 10.5q4 6 5 16q6 52 9.5 101.5t14.5 94.5q3 12 3 16q0 5 -5 5q-3 0 -8 -5q-57 -66 -114 -130t-119 -118q-7 -6 -20 -11t-26 -5q-9 0 -21.5 4t-19.5 11t-14.5 9.5t-15 4.5t-14 5.5t-11.5 12.5q-2 5 -3.5 23.5t-1.5 39.5q0 47 9 88t18 70q28 88 63.5 173t67.5 173
q3 8 6 12.5t5 9.5q5 10 12 18.5t18 8.5q4 0 8.5 -3t19.5 -9q6 -2 13 -5.5t10 -9.5zM552 771q6 2 16 6t21.5 9t22 10t17.5 10q2 2 6.5 2.5t7.5 0.5q11 0 19 -8q7 -7 9 -12.5t2 -15.5q0 -12 -1 -17t-4 -9q-7 -8 -21.5 -14.5t-50.5 -17.5l-118 -37q-11 -3 -20 -3q-7 0 -11 2
q-10 7 -15 14q-3 5 -5 7l-4 4q-3 3 -3 8q0 8 5 14q2 3 6.5 4t6.5 1q4 0 25 8l89 34v0z" />
    <glyph glyph-name="Ucircumflex" unicode="&#xdb;" horiz-adv-x="600" 
d="M336 624q2 -5 3.5 -13t1.5 -13q0 -3 -3.5 -11.5t-5.5 -13.5q-23 -57 -47.5 -111t-47 -106.5t-40 -105t-25.5 -106.5q-2 -11 -3 -24.5t-1 -30.5q0 -9 1.5 -12t3.5 -3q6 0 16.5 4t22.5 16q69 69 124 131.5t97.5 116.5t72.5 97.5t49 74.5q4 7 6 11t3.5 8t4.5 10t10 17
q5 8 15 18.5t14 10.5q3 0 11 -2t22 -2q6 0 11 -9l14 -22q2 -4 4 -7.5t2 -6.5q0 -5 -7 -22q-12 -32 -31 -61.5t-31 -61.5q-37 -100 -54.5 -196.5t-17.5 -200.5q0 -17 0.5 -22.5t0.5 -7.5q0 -10 -14 -10q-11 0 -13 2.5t-10 4.5t-16 7t-19 12q-6 4 -12 6.5t-6 12.5q0 5 1 10.5
t4 10.5q4 6 5 16q6 52 9.5 101.5t14.5 94.5q3 12 3 16q0 5 -5 5q-3 0 -8 -5q-57 -66 -114 -130t-119 -118q-7 -6 -20 -11t-26 -5q-9 0 -21.5 4t-19.5 11t-14.5 9.5t-15 4.5t-14 5.5t-11.5 12.5q-2 5 -3.5 23.5t-1.5 39.5q0 47 9 88t18 70q28 88 63.5 173t67.5 173
q3 8 6 12.5t5 9.5q5 10 12 18.5t18 8.5q4 0 8.5 -3t19.5 -9q6 -2 13 -5.5t10 -9.5zM533 719q7 -11 9 -16t2 -9q0 -8 -5 -11t-9 -8q-5 -7 -7.5 -9t-10.5 -2q-2 0 -8 4t-10 10l-63 86q-4 6 -8 6q-2 0 -3.5 -0.5t-6.5 -2.5q-30 -12 -49 -20.5t-30.5 -14.5t-17 -9.5t-8.5 -6.5
q-1 -1 -5 -1q-9 0 -14 5t-10 7q-4 2 -4.5 7.5t-0.5 16.5q0 17 2 21q3 6 5 7.5t4 3.5q2 3 11 8t44 17l89 31q9 3 13 3q15 0 19 -7q2 -5 4 -5q3 0 8 -8z" />
    <glyph glyph-name="Udieresis" unicode="&#xdc;" horiz-adv-x="600" 
d="M336 624q2 -5 3.5 -13t1.5 -13q0 -3 -3.5 -11.5t-5.5 -13.5q-23 -57 -47.5 -111t-47 -106.5t-40 -105t-25.5 -106.5q-2 -11 -3 -24.5t-1 -30.5q0 -9 1.5 -12t3.5 -3q6 0 16.5 4t22.5 16q69 69 124 131.5t97.5 116.5t72.5 97.5t49 74.5q4 7 6 11t3.5 8t4.5 10t10 17
q5 8 15 18.5t14 10.5q3 0 11 -2t22 -2q6 0 11 -9l14 -22q2 -4 4 -7.5t2 -6.5q0 -5 -7 -22q-12 -32 -31 -61.5t-31 -61.5q-37 -100 -54.5 -196.5t-17.5 -200.5q0 -17 0.5 -22.5t0.5 -7.5q0 -10 -14 -10q-11 0 -13 2.5t-10 4.5t-16 7t-19 12q-6 4 -12 6.5t-6 12.5q0 5 1 10.5
t4 10.5q4 6 5 16q6 52 9.5 101.5t14.5 94.5q3 12 3 16q0 5 -5 5q-3 0 -8 -5q-57 -66 -114 -130t-119 -118q-7 -6 -20 -11t-26 -5q-9 0 -21.5 4t-19.5 11t-14.5 9.5t-15 4.5t-14 5.5t-11.5 12.5q-2 5 -3.5 23.5t-1.5 39.5q0 47 9 88t18 70q28 88 63.5 173t67.5 173
q3 8 6 12.5t5 9.5q5 10 12 18.5t18 8.5q4 0 8.5 -3t19.5 -9q6 -2 13 -5.5t10 -9.5zM543 751q2 -7 6.5 -15.5t4.5 -16.5q0 -12 -2 -16q-8 -17 -13.5 -25t-11.5 -11q-5 -2 -14.5 -3t-14.5 -1q-17 0 -24 15q-5 11 -13 19.5t-8 23.5q0 3 2 11t6 16.5t9.5 15t13.5 6.5
q2 0 8.5 -0.5t11.5 -0.5q13 0 25 -4.5t14 -13.5zM358 809q5 -8 8 -17.5t3 -14.5q0 -9 -3.5 -17t-7.5 -14t-8 -10.5t-4 -7.5q0 -4 -5 -7t-11 -5.5t-12.5 -3.5t-10.5 -1h-8q-5 0 -7 2q-9 6 -12 12t-8 11q-2 2 -2 29q0 5 4.5 19t8.5 22q5 10 14 13t21 3q8 0 21.5 -2t18.5 -11z
" />
    <glyph glyph-name="Yacute" unicode="&#xdd;" horiz-adv-x="502" 
d="M257 668q5 -1 9 -11t4 -18q0 -11 -2.5 -18t-6 -14.5t-7.5 -16.5t-7 -23q-8 -40 -16 -83t-14.5 -85t-10.5 -81t-4 -71q0 -3 4.5 -6.5t14.5 -3.5q6 0 14 1.5t16 6.5q36 23 63.5 44.5t49.5 43.5q16 16 44 54.5t65 110.5q23 46 41 74.5t23 35.5q7 10 11 10q10 0 28.5 -4.5
t31.5 -17.5q3 -3 7 -14t4 -15q0 -2 -1 -5.5t-5 -8.5q-106 -149 -174.5 -362.5t-107.5 -501.5q-2 -15 -4 -20t-2 -10q0 -8 -6 -8q-5 0 -10.5 1.5t-15.5 3.5q-20 3 -32.5 9.5t-14.5 16.5q-1 4 -1.5 13t-0.5 17q0 33 8 61.5t14 56.5q3 13 5.5 28t5.5 32q16 85 41 174.5
t51 177.5l-8 -9q-7 -8 -19.5 -19t-29.5 -21.5t-38.5 -17.5t-45.5 -7q-3 0 -10 3t-17 8.5t-20.5 12.5t-20.5 16q-19 17 -29.5 33t-10.5 25q0 1 0.5 12t1 27t1.5 34t2 34q1 10 3 16t2 20q0 16 3.5 23.5t5.5 21.5q9 56 20.5 108.5t26.5 105.5q3 9 8 9q19 0 34 -3.5t29 -5.5z
M402 765q6 2 16 6t21.5 9t22 10t17.5 10q2 2 6.5 2.5t7.5 0.5q11 0 19 -8q7 -7 9 -12.5t2 -15.5q0 -12 -1 -17t-4 -9q-7 -8 -21.5 -14.5t-50.5 -17.5l-118 -37q-11 -3 -20 -3q-7 0 -11 2q-10 7 -15 14q-3 5 -5 7l-4 4q-3 3 -3 8q0 8 5 14q2 3 6.5 4t6.5 1q4 0 25 8l89 34v0z
" />
    <glyph glyph-name="Thorn" unicode="&#xde;" horiz-adv-x="500" 
d="M514 511q0 5 -3 7.5t-22 2.5h-16q-4 0 -11 -2q-45 -10 -86.5 -27t-79.5 -46q-17 -44 -40.5 -98t-39.5 -108q14 -13 23 -20.5t15 -12t10.5 -6t9.5 -1.5t8 0.5t10 5.5q50 33 91 78t74 94q9 13 19 30.5t18.5 35.5t14 35.5t5.5 31.5zM345 562q0 -5 3 -5t6.5 1.5t9.5 3.5
q34 12 67.5 21t68.5 9q28 0 41.5 -2.5t27.5 -15.5q14 -12 20.5 -31t6.5 -60q0 -12 -5 -28t-12.5 -33t-17 -34.5t-18.5 -32.5q-18 -29 -36 -54t-39.5 -49t-48.5 -48.5t-63 -52.5q-11 -8 -41 -13.5t-61 -5.5q-15 0 -24.5 2.5t-16 6t-12 9t-13.5 11.5q-7 -25 -14.5 -50.5
t-14 -48.5t-10.5 -40.5t-4 -26.5t-9 -15q-13 -8 -24 -8q-4 0 -11 1t-9 3q-5 6 -9 8.5t-8.5 4t-8.5 3.5t-9 8q-2 2 -2 9q0 1 3 13.5t8.5 33t13.5 46t19 54.5q18 46 18 67q-6 6 -13.5 12t-7.5 15q0 10 4 11t8.5 6t10.5 10.5t13 9.5t15 4q5 15 9.5 25.5t8 20.5l7 20t6.5 22
q-12 5 -19.5 13t-11.5 16q-2 3 -4 5t-2 6q0 9 8 18.5t19 17.5q13 10 27 17.5t28 16.5q20 45 37 89t39 88q5 11 13.5 13t17.5 2q7 0 10.5 -3.5t19.5 -5.5q9 -1 16.5 -5.5t7.5 -12.5q0 -20 -6 -27.5t-8 -18.5q0 -7 -6 -17q-6 -9 -12.5 -17t-6.5 -12z" />
    <glyph glyph-name="germandbls" unicode="&#xdf;" horiz-adv-x="434" 
d="M309 286q-10 -9 -15 -13t-8.5 -6t-7.5 -5t-11 -10q-22 -21 -41 -33t-33 -12q-9 0 -13.5 6.5t-8.5 6.5q-3 0 -6 -9q-7 -20 -15 -40.5t-16 -40.5q-4 -10 -8 -22.5t-4 -13.5q0 -3 3 -3t6 1.5t15 1.5q7 0 12 -2.5t19 -19.5q5 -6 7 -11.5t7 -10.5q5 -4 9.5 -6t12.5 -2t17.5 3
t17.5 11q27 25 46 54t36 71q14 34 18.5 53t4.5 27q0 14 -2 20.5t-6 11.5q-5 6 -12 6q-11 0 -24 -13zM210 298q5 5 9 8.5t7 6.5q41 33 73.5 74.5t56 80.5t38 70.5t19.5 43.5q3 7 3 12q0 3 -4 3q-1 0 -7 -2t-16.5 -8t-24.5 -17.5t-29 -29.5q-24 -28 -40 -53t-30 -60
q-5 -12 -10 -19.5t-11 -7.5q-3 0 -5 -3.5t-11 -23.5q-5 -12 -11.5 -30t-12.5 -34l-4 -12t-1 -4q0 -2 2 -2t9 7zM370 360q2 0 6.5 0.5t9.5 0.5q26 0 39 -23t13 -55q0 -23 -10.5 -56t-26.5 -68q-14 -31 -29.5 -59t-35 -50.5t-44 -39.5t-56.5 -26q-15 -4 -30 -4q-19 0 -42.5 8
t-52.5 34q-6 6 -7.5 7t-3.5 1t-4.5 -7.5t-8.5 -26.5q-11 -31 -23.5 -71t-24 -81.5t-20 -79t-10.5 -64.5q-1 -8 -9 -16.5t-19 -10.5q-10 -3 -18 -7t-11 -4q-9 0 -14 3.5t-11 8.5q-4 2 -4.5 12t-0.5 25q0 26 11 51t18 50q2 9 5.5 17t7.5 24q3 12 11.5 40t21 63.5t27 77t29 81
t27.5 74t22 58.5q10 26 21.5 55.5t23.5 58t22.5 54.5t18.5 46q2 5 5 7.5t6.5 5.5t7 7t8.5 12q9 19 31.5 49.5t50.5 57.5q30 29 55.5 44t55.5 15q22 0 34 -8t23 -12q3 -1 9.5 -3t12.5 -6t10.5 -10t4.5 -15q0 -11 -3 -18.5t-8 -17.5q-2 -6 -3 -10.5t-4.5 -13.5t-11 -24
t-22.5 -41q-23 -41 -42 -67t-30 -37q-11 -14 -11 -15t3 -1z" />
    <glyph glyph-name="agrave" unicode="&#xe0;" horiz-adv-x="468" 
d="M428 422q-2 0 -11.5 -2.5t-19.5 -7.5q-71 -38 -126.5 -80t-98.5 -94q-16 -19 -29.5 -39t-23.5 -38.5t-16 -34.5t-6 -27q0 -9 4 -18t18 -9q6 0 20.5 7.5t28.5 20.5q35 33 71 62.5t69 59t61.5 60.5t47.5 67q5 10 13 20t16 18q5 5 5 15q0 5 -5 12.5t-18 7.5zM492 435
q3 -8 9.5 -13.5t14.5 -5.5q4 0 13 -2t15 -11q2 -3 2 -6q0 -5 -4 -11q-17 -23 -34.5 -48t-33 -52t-28.5 -55t-20 -57q-5 -21 -9.5 -43.5t-4.5 -45.5q0 -20 5 -39t16 -36q2 -4 2 -6t-4 -7t-17 -7q-5 -1 -9.5 -2.5t-9.5 -1.5q-11 0 -24.5 5t-18.5 15q-10 22 -13.5 43.5
t-3.5 42.5q0 23 2 35.5t2 14.5q0 5 -4 5q-6 0 -24 -18l-54 -50q-20 -18 -36 -30.5t-30 -21t-27 -14t-26 -9.5q-5 -2 -9 -3t-7 -1q-4 0 -9 1.5t-12.5 6.5t-19 14t-29.5 23q-4 3 -13 16.5t-9 42.5q0 25 11.5 59t48.5 89q45 66 83 99.5t61 50.5q74 54 160 79q10 3 22 3
q17 0 32 -7.5t29 -21.5q4 -4 8.5 -9.5t6.5 -10.5zM447 566q-10 7 -29.5 16.5t-36.5 16.5q-8 3 -10 11t-2 22q0 9 2.5 14.5t8.5 11.5q12 12 24 12q5 0 8 -1.5t6 -1.5q2 0 4.5 -1.5t8 -5.5t15.5 -11.5t27 -19.5l102 -70q26 -18 26 -25q0 -5 -1.5 -8.5t-3.5 -8.5t-2 -9t-1 -7
q-3 -10 -13 -10t-16 1.5t-15 7.5l-102 66v0z" />
    <glyph glyph-name="aacute" unicode="&#xe1;" horiz-adv-x="468" 
d="M428 422q-2 0 -11.5 -2.5t-19.5 -7.5q-71 -38 -126.5 -80t-98.5 -94q-16 -19 -29.5 -39t-23.5 -38.5t-16 -34.5t-6 -27q0 -9 4 -18t18 -9q6 0 20.5 7.5t28.5 20.5q35 33 71 62.5t69 59t61.5 60.5t47.5 67q5 10 13 20t16 18q5 5 5 15q0 5 -5 12.5t-18 7.5zM492 435
q3 -8 9.5 -13.5t14.5 -5.5q4 0 13 -2t15 -11q2 -3 2 -6q0 -5 -4 -11q-17 -23 -34.5 -48t-33 -52t-28.5 -55t-20 -57q-5 -21 -9.5 -43.5t-4.5 -45.5q0 -20 5 -39t16 -36q2 -4 2 -6t-4 -7t-17 -7q-5 -1 -9.5 -2.5t-9.5 -1.5q-11 0 -24.5 5t-18.5 15q-10 22 -13.5 43.5
t-3.5 42.5q0 23 2 35.5t2 14.5q0 5 -4 5q-6 0 -24 -18l-54 -50q-20 -18 -36 -30.5t-30 -21t-27 -14t-26 -9.5q-5 -2 -9 -3t-7 -1q-4 0 -9 1.5t-12.5 6.5t-19 14t-29.5 23q-4 3 -13 16.5t-9 42.5q0 25 11.5 59t48.5 89q45 66 83 99.5t61 50.5q74 54 160 79q10 3 22 3
q17 0 32 -7.5t29 -21.5q4 -4 8.5 -9.5t6.5 -10.5zM506 633q6 2 16 6t21.5 9t22 10t17.5 10q2 2 6.5 2.5t7.5 0.5q11 0 19 -8q7 -7 9 -12.5t2 -15.5q0 -12 -1 -17t-4 -9q-7 -8 -21.5 -14.5t-50.5 -17.5l-118 -37q-11 -3 -20 -3q-7 0 -11 2q-10 7 -15 14q-3 5 -5 7l-4 4
q-3 3 -3 8q0 8 5 14q2 3 6.5 4t6.5 1q4 0 25 8l89 34v0z" />
    <glyph glyph-name="acircumflex" unicode="&#xe2;" horiz-adv-x="468" 
d="M428 422q-2 0 -11.5 -2.5t-19.5 -7.5q-71 -38 -126.5 -80t-98.5 -94q-16 -19 -29.5 -39t-23.5 -38.5t-16 -34.5t-6 -27q0 -9 4 -18t18 -9q6 0 20.5 7.5t28.5 20.5q35 33 71 62.5t69 59t61.5 60.5t47.5 67q5 10 13 20t16 18q5 5 5 15q0 5 -5 12.5t-18 7.5zM492 435
q3 -8 9.5 -13.5t14.5 -5.5q4 0 13 -2t15 -11q2 -3 2 -6q0 -5 -4 -11q-17 -23 -34.5 -48t-33 -52t-28.5 -55t-20 -57q-5 -21 -9.5 -43.5t-4.5 -45.5q0 -20 5 -39t16 -36q2 -4 2 -6t-4 -7t-17 -7q-5 -1 -9.5 -2.5t-9.5 -1.5q-11 0 -24.5 5t-18.5 15q-10 22 -13.5 43.5
t-3.5 42.5q0 23 2 35.5t2 14.5q0 5 -4 5q-6 0 -24 -18l-54 -50q-20 -18 -36 -30.5t-30 -21t-27 -14t-26 -9.5q-5 -2 -9 -3t-7 -1q-4 0 -9 1.5t-12.5 6.5t-19 14t-29.5 23q-4 3 -13 16.5t-9 42.5q0 25 11.5 59t48.5 89q45 66 83 99.5t61 50.5q74 54 160 79q10 3 22 3
q17 0 32 -7.5t29 -21.5q4 -4 8.5 -9.5t6.5 -10.5zM611 549q7 -11 9 -16t2 -9q0 -8 -5 -11t-9 -8q-5 -7 -7.5 -9t-10.5 -2q-2 0 -8 4t-10 10l-63 86q-4 6 -8 6q-2 0 -3.5 -0.5t-6.5 -2.5q-30 -12 -49 -20.5t-30.5 -14.5t-17 -9.5t-8.5 -6.5q-1 -1 -5 -1q-9 0 -14 5t-10 7
q-4 2 -4.5 7.5t-0.5 16.5q0 17 2 21q3 6 5 7.5t4 3.5q2 3 11 8t44 17l89 31q9 3 13 3q15 0 19 -7q2 -5 4 -5q3 0 8 -8z" />
    <glyph glyph-name="atilde" unicode="&#xe3;" horiz-adv-x="468" 
d="M428 422q-2 0 -11.5 -2.5t-19.5 -7.5q-71 -38 -126.5 -80t-98.5 -94q-16 -19 -29.5 -39t-23.5 -38.5t-16 -34.5t-6 -27q0 -9 4 -18t18 -9q6 0 20.5 7.5t28.5 20.5q35 33 71 62.5t69 59t61.5 60.5t47.5 67q5 10 13 20t16 18q5 5 5 15q0 5 -5 12.5t-18 7.5zM492 435
q3 -8 9.5 -13.5t14.5 -5.5q4 0 13 -2t15 -11q2 -3 2 -6q0 -5 -4 -11q-17 -23 -34.5 -48t-33 -52t-28.5 -55t-20 -57q-5 -21 -9.5 -43.5t-4.5 -45.5q0 -20 5 -39t16 -36q2 -4 2 -6t-4 -7t-17 -7q-5 -1 -9.5 -2.5t-9.5 -1.5q-11 0 -24.5 5t-18.5 15q-10 22 -13.5 43.5
t-3.5 42.5q0 23 2 35.5t2 14.5q0 5 -4 5q-6 0 -24 -18l-54 -50q-20 -18 -36 -30.5t-30 -21t-27 -14t-26 -9.5q-5 -2 -9 -3t-7 -1q-4 0 -9 1.5t-12.5 6.5t-19 14t-29.5 23q-4 3 -13 16.5t-9 42.5q0 25 11.5 59t48.5 89q45 66 83 99.5t61 50.5q74 54 160 79q10 3 22 3
q17 0 32 -7.5t29 -21.5q4 -4 8.5 -9.5t6.5 -10.5zM373 584q0 8 -4 18.5t-4 18.5q0 2 2 7t7 7l63 23q18 7 26 8t19 1q14 0 24 -11t24 -31q14 -21 20.5 -28t20.5 -7q2 0 14 3.5t25.5 8l25.5 8.5t15 4q9 0 14 -6t6 -13q1 -6 2.5 -9.5t1.5 -11.5q0 -5 -8 -10q-11 -7 -23.5 -15
t-26 -14.5t-26 -11t-22.5 -4.5q-16 0 -27.5 3.5t-25.5 14.5q-7 6 -13 14t-11 16t-9.5 14.5t-7.5 8.5q-5 3 -9 3q-6 0 -17 -4t-32 -17q-4 -2 -6 -2.5t-4 -0.5q-12 0 -23 3.5t-11 11.5z" />
    <glyph glyph-name="adieresis" unicode="&#xe4;" horiz-adv-x="468" 
d="M428 422q-2 0 -11.5 -2.5t-19.5 -7.5q-71 -38 -126.5 -80t-98.5 -94q-16 -19 -29.5 -39t-23.5 -38.5t-16 -34.5t-6 -27q0 -9 4 -18t18 -9q6 0 20.5 7.5t28.5 20.5q35 33 71 62.5t69 59t61.5 60.5t47.5 67q5 10 13 20t16 18q5 5 5 15q0 5 -5 12.5t-18 7.5zM492 435
q3 -8 9.5 -13.5t14.5 -5.5q4 0 13 -2t15 -11q2 -3 2 -6q0 -5 -4 -11q-17 -23 -34.5 -48t-33 -52t-28.5 -55t-20 -57q-5 -21 -9.5 -43.5t-4.5 -45.5q0 -20 5 -39t16 -36q2 -4 2 -6t-4 -7t-17 -7q-5 -1 -9.5 -2.5t-9.5 -1.5q-11 0 -24.5 5t-18.5 15q-10 22 -13.5 43.5
t-3.5 42.5q0 23 2 35.5t2 14.5q0 5 -4 5q-6 0 -24 -18l-54 -50q-20 -18 -36 -30.5t-30 -21t-27 -14t-26 -9.5q-5 -2 -9 -3t-7 -1q-4 0 -9 1.5t-12.5 6.5t-19 14t-29.5 23q-4 3 -13 16.5t-9 42.5q0 25 11.5 59t48.5 89q45 66 83 99.5t61 50.5q74 54 160 79q10 3 22 3
q17 0 32 -7.5t29 -21.5q4 -4 8.5 -9.5t6.5 -10.5zM621 603q2 -7 6.5 -15.5t4.5 -16.5q0 -12 -2 -16q-8 -17 -13.5 -25t-11.5 -11q-5 -2 -14.5 -3t-14.5 -1q-17 0 -24 15q-5 11 -13 19.5t-8 23.5q0 3 2 11t6 16.5t9.5 15t13.5 6.5q2 0 8.5 -0.5t11.5 -0.5q13 0 25 -4.5
t14 -13.5zM436 661q5 -8 8 -17.5t3 -14.5q0 -9 -3.5 -17t-7.5 -14t-8 -10.5t-4 -7.5q0 -4 -5 -7t-11 -5.5t-12.5 -3.5t-10.5 -1h-8q-5 0 -7 2q-9 6 -12 12t-8 11q-2 2 -2 29q0 5 4.5 19t8.5 22q5 10 14 13t21 3q8 0 21.5 -2t18.5 -11z" />
    <glyph glyph-name="aring" unicode="&#xe5;" horiz-adv-x="468" 
d="M428 422q-2 0 -11.5 -2.5t-19.5 -7.5q-71 -38 -126.5 -80t-98.5 -94q-16 -19 -29.5 -39t-23.5 -38.5t-16 -34.5t-6 -27q0 -9 4 -18t18 -9q6 0 20.5 7.5t28.5 20.5q35 33 71 62.5t69 59t61.5 60.5t47.5 67q5 10 13 20t16 18q5 5 5 15q0 5 -5 12.5t-18 7.5zM492 435
q3 -8 9.5 -13.5t14.5 -5.5q4 0 13 -2t15 -11q2 -3 2 -6q0 -5 -4 -11q-17 -23 -34.5 -48t-33 -52t-28.5 -55t-20 -57q-5 -21 -9.5 -43.5t-4.5 -45.5q0 -20 5 -39t16 -36q2 -4 2 -6t-4 -7t-17 -7q-5 -1 -9.5 -2.5t-9.5 -1.5q-11 0 -24.5 5t-18.5 15q-10 22 -13.5 43.5
t-3.5 42.5q0 23 2 35.5t2 14.5q0 5 -4 5q-6 0 -24 -18l-54 -50q-20 -18 -36 -30.5t-30 -21t-27 -14t-26 -9.5q-5 -2 -9 -3t-7 -1q-4 0 -9 1.5t-12.5 6.5t-19 14t-29.5 23q-4 3 -13 16.5t-9 42.5q0 25 11.5 59t48.5 89q45 66 83 99.5t61 50.5q74 54 160 79q10 3 22 3
q17 0 32 -7.5t29 -21.5q4 -4 8.5 -9.5t6.5 -10.5zM552 638q-3 5 -6.5 7t-5.5 2q-7 0 -10 -1.5t-6 -5.5q-11 -15 -19 -30.5t-8 -32.5q0 -15 7 -25t16 -10q10 0 14 6q9 16 18 31t9 31q0 14 -9 28zM616 639q1 -6 1.5 -12t0.5 -12q0 -44 -26 -83q-7 -10 -21 -19.5t-37 -9.5
q-15 0 -35 4t-28 9q-20 14 -28 28.5t-8 28.5q0 11 5.5 27.5t14.5 32.5t20.5 29t22.5 17q19 7 37 7q14 0 26 -3q23 -6 38 -20.5t17 -23.5z" />
    <glyph glyph-name="ae" unicode="&#xe6;" horiz-adv-x="607" 
d="M554 367q11 16 19.5 34.5t8.5 32.5q0 22 -11 22q-14 0 -31 -17q-22 -21 -43.5 -50t-41 -60.5t-36.5 -63t-29 -58.5q-5 -12 -5 -14t2 -2t4 1.5l10 7.5q21 17 43 38t42 43.5t37.5 44.5t30.5 41zM413 403q6 11 8 17t2 10q0 5 -3 11t-13 6q-3 0 -8 -0.5t-10 -3.5
q-43 -24 -84.5 -53.5t-77.5 -64t-65 -75t-47 -87.5q-10 -26 -15 -43.5t-5 -28.5q0 -6 4 -15.5t19 -9.5q11 0 26 5.5t20 10.5q27 27 56 55t49 47q16 15 32 35.5t31 43t28.5 44.5t22.5 40l30 56v0zM635 103q-26 -23 -58 -44t-81 -47q-19 -10 -43.5 -15t-49.5 -5q-31 0 -58 8
q-32 10 -46.5 28.5t-14.5 47.5q0 13 1.5 20t1.5 9q0 3 -2 3t-5 -4t-8 -9q-13 -14 -29.5 -31.5t-33.5 -30.5q-13 -10 -27.5 -16.5t-27 -10.5t-21.5 -6t-12 -2q-7 0 -21.5 7t-49.5 32q-5 4 -15.5 21.5t-10.5 46.5q0 24 10.5 58.5t37.5 82.5q15 26 29.5 47.5t31 41t34.5 37.5
t41 38q16 14 39 30.5t47.5 30t48.5 22.5t44 9q15 0 28.5 -4t24.5 -12q5 -4 8 -4q2 0 5.5 2t8.5 10l7 11q3 5 5.5 7.5t10.5 2.5q5 0 19 -6t22 -6q3 0 11 2q15 4 28 7.5t27 3.5q11 0 26 -3t23 -13q8 -9 14.5 -21.5t6.5 -34.5q0 -14 -4.5 -30t-10.5 -30.5t-12 -25.5t-9 -15
q-21 -30 -53 -66.5t-67.5 -70.5t-71.5 -61.5t-64 -38.5q-4 -2 -5 -4t-1 -10q0 -16 11.5 -26.5t23.5 -10.5q13 0 28 4t30 9.5t28 12.5t22 13q40 26 72 52t69 54q12 9 22 14.5t21 10.5q16 7 20 7q5 0 12.5 -6t7.5 -14q0 -7 -0.5 -9t-0.5 -4q0 -3 -2 -7.5t-6 -7.5
q-18 -15 -37.5 -35t-49.5 -46z" />
    <glyph glyph-name="ccedilla" unicode="&#xe7;" horiz-adv-x="346" 
d="M130 -4q-12 2 -24 8t-22.5 13t-18 13.5t-9.5 11.5q-12 24 -12 47q0 18 5.5 37t10.5 38q2 5 4.5 16.5t7.5 22.5q19 39 42.5 80t49.5 77.5t55 65.5t61 45q5 2 7.5 2.5t8.5 0.5q26 0 55 -11t49 -31q3 -3 3.5 -5.5t0.5 -8.5q0 -8 1 -10.5t1 -4.5q0 -3 -1 -7q-1 -5 -6.5 -15
t-11.5 -23.5t-11 -28t-5 -27.5q0 -6 -4.5 -10.5t-14.5 -4.5q-12 0 -20 7l-26 19q-11 8 -11 22q0 7 3.5 15.5t7.5 16t7.5 15t3.5 13.5q0 3 -2 6.5t-6 3.5q-5 0 -7.5 -2t-8.5 -8q-32 -32 -64 -74t-58 -87q-26 -47 -42 -90.5t-16 -62.5q0 -10 5 -15.5t12 -5.5q35 0 70 17.5
t72 45.5q16 12 33.5 24.5t33.5 22t30 15.5t25 6q5 0 11 -3.5t11 -8t8 -9t3 -5.5q0 -3 -2 -5t-2 -5q0 -5 -1.5 -7.5t-6.5 -4.5q-23 -10 -50.5 -30t-59.5 -46q-29 -24 -56.5 -41.5t-51.5 -25.5q-4 -1 -4 -4t3 -4q15 -8 15 -30q0 -10 -7 -26.5t-15 -26.5q-38 -47 -89 -47
q-8 0 -25 3t-39 15q-34 19 -34 35q0 8 16 23q5 5 11 5t9 -5q2 -3 7 -6t10 -8q2 -3 9.5 -7.5t15.5 -4.5q23 0 36 13t31 44q5 9 5 14q0 3 -3 6.5t-19 6.5z" />
    <glyph glyph-name="egrave" unicode="&#xe8;" horiz-adv-x="366" 
d="M328 398q7 11 12.5 21.5t5.5 24.5q0 6 -0.5 9t-5.5 3q-6 0 -11 -3l-10 -6q-8 -5 -10.5 -5.5t-9.5 -7.5q-24 -22 -48.5 -48t-46 -55t-38 -61t-24.5 -65q0 -5 2 -5t7 3q45 34 82 73.5t71 80.5q6 7 8.5 11.5t4.5 8.5t4 8.5t7 12.5zM253 -3q-14 -8 -20 -9t-16 -1
q-9 0 -17.5 1t-20.5 6q-8 3 -18 7t-19.5 8.5t-16.5 7.5t-10 5q-15 8 -28.5 26t-21.5 43q-5 15 -8.5 39t-3.5 38q0 7 1 14.5t4 18.5q21 77 68 143.5t104 127.5q13 14 41.5 29.5t65.5 15.5q20 0 33 -3t28 -8q8 -3 20 -17.5t12 -44.5q0 -20 -7 -37t-16 -35q-8 -15 -14.5 -25
t-17.5 -22q-26 -29 -53.5 -59.5t-56.5 -58.5t-59.5 -52t-62.5 -42q-6 -4 -6 -8q0 -12 8.5 -25t15.5 -17q15 -8 31 -8q13 0 28 5t49 23q26 14 47.5 30.5t41.5 33.5t39.5 34t42.5 31q8 5 12.5 6t7.5 1q5 0 12.5 -6t7.5 -14q0 -7 -0.5 -9t-0.5 -4q0 -3 -0.5 -7t-4.5 -7
q-18 -15 -33.5 -32.5t-38 -38.5t-57.5 -47t-92 -57zM363 640q-10 7 -29.5 16.5t-36.5 16.5q-8 3 -10 11t-2 22q0 9 2.5 14.5t8.5 11.5q12 12 24 12q5 0 8 -1.5t6 -1.5q2 0 4.5 -1.5t8 -5.5t15.5 -11.5t27 -19.5l102 -70q26 -18 26 -25q0 -5 -1.5 -8.5t-3.5 -8.5t-2 -9t-1 -7
q-3 -10 -13 -10t-16 1.5t-15 7.5l-102 66v0z" />
    <glyph glyph-name="eacute" unicode="&#xe9;" horiz-adv-x="366" 
d="M328 398q7 11 12.5 21.5t5.5 24.5q0 6 -0.5 9t-5.5 3q-6 0 -11 -3l-10 -6q-8 -5 -10.5 -5.5t-9.5 -7.5q-24 -22 -48.5 -48t-46 -55t-38 -61t-24.5 -65q0 -5 2 -5t7 3q45 34 82 73.5t71 80.5q6 7 8.5 11.5t4.5 8.5t4 8.5t7 12.5zM253 -3q-14 -8 -20 -9t-16 -1
q-9 0 -17.5 1t-20.5 6q-8 3 -18 7t-19.5 8.5t-16.5 7.5t-10 5q-15 8 -28.5 26t-21.5 43q-5 15 -8.5 39t-3.5 38q0 7 1 14.5t4 18.5q21 77 68 143.5t104 127.5q13 14 41.5 29.5t65.5 15.5q20 0 33 -3t28 -8q8 -3 20 -17.5t12 -44.5q0 -20 -7 -37t-16 -35q-8 -15 -14.5 -25
t-17.5 -22q-26 -29 -53.5 -59.5t-56.5 -58.5t-59.5 -52t-62.5 -42q-6 -4 -6 -8q0 -12 8.5 -25t15.5 -17q15 -8 31 -8q13 0 28 5t49 23q26 14 47.5 30.5t41.5 33.5t39.5 34t42.5 31q8 5 12.5 6t7.5 1q5 0 12.5 -6t7.5 -14q0 -7 -0.5 -9t-0.5 -4q0 -3 -0.5 -7t-4.5 -7
q-18 -15 -33.5 -32.5t-38 -38.5t-57.5 -47t-92 -57zM402 677q6 2 16 6t21.5 9t22 10t17.5 10q2 2 6.5 2.5t7.5 0.5q11 0 19 -8q7 -7 9 -12.5t2 -15.5q0 -12 -1 -17t-4 -9q-7 -8 -21.5 -14.5t-50.5 -17.5l-118 -37q-11 -3 -20 -3q-7 0 -11 2q-10 7 -15 14q-3 5 -5 7l-4 4
q-3 3 -3 8q0 8 5 14q2 3 6.5 4t6.5 1q4 0 25 8l89 34v0z" />
    <glyph glyph-name="ecircumflex" unicode="&#xea;" horiz-adv-x="366" 
d="M328 398q7 11 12.5 21.5t5.5 24.5q0 6 -0.5 9t-5.5 3q-6 0 -11 -3l-10 -6q-8 -5 -10.5 -5.5t-9.5 -7.5q-24 -22 -48.5 -48t-46 -55t-38 -61t-24.5 -65q0 -5 2 -5t7 3q45 34 82 73.5t71 80.5q6 7 8.5 11.5t4.5 8.5t4 8.5t7 12.5zM253 -3q-14 -8 -20 -9t-16 -1
q-9 0 -17.5 1t-20.5 6q-8 3 -18 7t-19.5 8.5t-16.5 7.5t-10 5q-15 8 -28.5 26t-21.5 43q-5 15 -8.5 39t-3.5 38q0 7 1 14.5t4 18.5q21 77 68 143.5t104 127.5q13 14 41.5 29.5t65.5 15.5q20 0 33 -3t28 -8q8 -3 20 -17.5t12 -44.5q0 -20 -7 -37t-16 -35q-8 -15 -14.5 -25
t-17.5 -22q-26 -29 -53.5 -59.5t-56.5 -58.5t-59.5 -52t-62.5 -42q-6 -4 -6 -8q0 -12 8.5 -25t15.5 -17q15 -8 31 -8q13 0 28 5t49 23q26 14 47.5 30.5t41.5 33.5t39.5 34t42.5 31q8 5 12.5 6t7.5 1q5 0 12.5 -6t7.5 -14q0 -7 -0.5 -9t-0.5 -4q0 -3 -0.5 -7t-4.5 -7
q-18 -15 -33.5 -32.5t-38 -38.5t-57.5 -47t-92 -57zM524 597q7 -11 9 -16t2 -9q0 -8 -5 -11t-9 -8q-5 -7 -7.5 -9t-10.5 -2q-2 0 -8 4t-10 10l-63 86q-4 6 -8 6q-2 0 -3.5 -0.5t-6.5 -2.5q-30 -12 -49 -20.5t-30.5 -14.5t-17 -9.5t-8.5 -6.5q-1 -1 -5 -1q-9 0 -14 5t-10 7
q-4 2 -4.5 7.5t-0.5 16.5q0 17 2 21q3 6 5 7.5t4 3.5q2 3 11 8t44 17l89 31q9 3 13 3q15 0 19 -7q2 -5 4 -5q3 0 8 -8z" />
    <glyph glyph-name="edieresis" unicode="&#xeb;" horiz-adv-x="366" 
d="M328 398q7 11 12.5 21.5t5.5 24.5q0 6 -0.5 9t-5.5 3q-6 0 -11 -3l-10 -6q-8 -5 -10.5 -5.5t-9.5 -7.5q-24 -22 -48.5 -48t-46 -55t-38 -61t-24.5 -65q0 -5 2 -5t7 3q45 34 82 73.5t71 80.5q6 7 8.5 11.5t4.5 8.5t4 8.5t7 12.5zM253 -3q-14 -8 -20 -9t-16 -1
q-9 0 -17.5 1t-20.5 6q-8 3 -18 7t-19.5 8.5t-16.5 7.5t-10 5q-15 8 -28.5 26t-21.5 43q-5 15 -8.5 39t-3.5 38q0 7 1 14.5t4 18.5q21 77 68 143.5t104 127.5q13 14 41.5 29.5t65.5 15.5q20 0 33 -3t28 -8q8 -3 20 -17.5t12 -44.5q0 -20 -7 -37t-16 -35q-8 -15 -14.5 -25
t-17.5 -22q-26 -29 -53.5 -59.5t-56.5 -58.5t-59.5 -52t-62.5 -42q-6 -4 -6 -8q0 -12 8.5 -25t15.5 -17q15 -8 31 -8q13 0 28 5t49 23q26 14 47.5 30.5t41.5 33.5t39.5 34t42.5 31q8 5 12.5 6t7.5 1q5 0 12.5 -6t7.5 -14q0 -7 -0.5 -9t-0.5 -4q0 -3 -0.5 -7t-4.5 -7
q-18 -15 -33.5 -32.5t-38 -38.5t-57.5 -47t-92 -57zM543 655q2 -7 6.5 -15.5t4.5 -16.5q0 -12 -2 -16q-8 -17 -13.5 -25t-11.5 -11q-5 -2 -14.5 -3t-14.5 -1q-17 0 -24 15q-5 11 -13 19.5t-8 23.5q0 3 2 11t6 16.5t9.5 15t13.5 6.5q2 0 8.5 -0.5t11.5 -0.5q13 0 25 -4.5
t14 -13.5zM358 713q5 -8 8 -17.5t3 -14.5q0 -9 -3.5 -17t-7.5 -14t-8 -10.5t-4 -7.5q0 -4 -5 -7t-11 -5.5t-12.5 -3.5t-10.5 -1h-8q-5 0 -7 2q-9 6 -12 12t-8 11q-2 2 -2 29q0 5 4.5 19t8.5 22q5 10 14 13t21 3q8 0 21.5 -2t18.5 -11z" />
    <glyph glyph-name="igrave" unicode="&#xec;" horiz-adv-x="220" 
d="M237 34q-16 -14 -42.5 -31t-60.5 -17q-11 0 -22.5 7t-22 18.5t-18.5 25.5t-12 28q-3 11 -4 21t-1 21q0 19 3.5 37t12.5 44q5 14 8.5 26.5t8.5 23.5q23 55 46 109.5t51 112.5q8 16 22 21.5t28 5.5q8 0 16.5 -1.5t13.5 -6.5q4 -3 6 -6t2 -10q0 -20 -7 -35.5t-16.5 -29.5
t-20.5 -29t-20 -33q-6 -14 -14 -32.5t-16.5 -38.5t-16 -38.5t-12.5 -32.5q-13 -34 -18.5 -60.5t-5.5 -37.5q0 -7 2.5 -19.5t15.5 -12.5q8 0 15 1.5t15 5t18 10t25 17.5q18 13 26.5 17.5t20.5 4.5q6 0 13 -1.5t12 -5.5t5.5 -7.5t0.5 -6.5q0 -9 -5 -15t-11 -12zM228 596
q-10 7 -29.5 16.5t-36.5 16.5q-8 3 -10 11t-2 22q0 9 2.5 14.5t8.5 11.5q12 12 24 12q5 0 8 -1.5t6 -1.5q2 0 4.5 -1.5t8 -5.5t15.5 -11.5t27 -19.5l102 -70q26 -18 26 -25q0 -5 -1.5 -8.5t-3.5 -8.5t-2 -9t-1 -7q-3 -10 -13 -10t-16 1.5t-15 7.5l-102 66v0z" />
    <glyph glyph-name="iacute" unicode="&#xed;" horiz-adv-x="220" 
d="M237 34q-16 -14 -42.5 -31t-60.5 -17q-11 0 -22.5 7t-22 18.5t-18.5 25.5t-12 28q-3 11 -4 21t-1 21q0 19 3.5 37t12.5 44q5 14 8.5 26.5t8.5 23.5q23 55 46 109.5t51 112.5q8 16 22 21.5t28 5.5q8 0 16.5 -1.5t13.5 -6.5q4 -3 6 -6t2 -10q0 -20 -7 -35.5t-16.5 -29.5
t-20.5 -29t-20 -33q-6 -14 -14 -32.5t-16.5 -38.5t-16 -38.5t-12.5 -32.5q-13 -34 -18.5 -60.5t-5.5 -37.5q0 -7 2.5 -19.5t15.5 -12.5q8 0 15 1.5t15 5t18 10t25 17.5q18 13 26.5 17.5t20.5 4.5q6 0 13 -1.5t12 -5.5t5.5 -7.5t0.5 -6.5q0 -9 -5 -15t-11 -12zM347 647
q6 2 16 6t21.5 9t22 10t17.5 10q2 2 6.5 2.5t7.5 0.5q11 0 19 -8q7 -7 9 -12.5t2 -15.5q0 -12 -1 -17t-4 -9q-7 -8 -21.5 -14.5t-50.5 -17.5l-118 -37q-11 -3 -20 -3q-7 0 -11 2q-10 7 -15 14q-3 5 -5 7l-4 4q-3 3 -3 8q0 8 5 14q2 3 6.5 4t6.5 1q4 0 25 8l89 34v0z" />
    <glyph glyph-name="icircumflex" unicode="&#xee;" horiz-adv-x="220" 
d="M237 34q-16 -14 -42.5 -31t-60.5 -17q-11 0 -22.5 7t-22 18.5t-18.5 25.5t-12 28q-3 11 -4 21t-1 21q0 19 3.5 37t12.5 44q5 14 8.5 26.5t8.5 23.5q23 55 46 109.5t51 112.5q8 16 22 21.5t28 5.5q8 0 16.5 -1.5t13.5 -6.5q4 -3 6 -6t2 -10q0 -20 -7 -35.5t-16.5 -29.5
t-20.5 -29t-20 -33q-6 -14 -14 -32.5t-16.5 -38.5t-16 -38.5t-12.5 -32.5q-13 -34 -18.5 -60.5t-5.5 -37.5q0 -7 2.5 -19.5t15.5 -12.5q8 0 15 1.5t15 5t18 10t25 17.5q18 13 26.5 17.5t20.5 4.5q6 0 13 -1.5t12 -5.5t5.5 -7.5t0.5 -6.5q0 -9 -5 -15t-11 -12zM408 563
q7 -11 9 -16t2 -9q0 -8 -5 -11t-9 -8q-5 -7 -7.5 -9t-10.5 -2q-2 0 -8 4t-10 10l-63 86q-4 6 -8 6q-2 0 -3.5 -0.5t-6.5 -2.5q-30 -12 -49 -20.5t-30.5 -14.5t-17 -9.5t-8.5 -6.5q-1 -1 -5 -1q-9 0 -14 5t-10 7q-4 2 -4.5 7.5t-0.5 16.5q0 17 2 21q3 6 5 7.5t4 3.5q2 3 11 8
t44 17l89 31q9 3 13 3q15 0 19 -7q2 -5 4 -5q3 0 8 -8z" />
    <glyph glyph-name="idieresis" unicode="&#xef;" horiz-adv-x="220" 
d="M237 34q-16 -14 -42.5 -31t-60.5 -17q-11 0 -22.5 7t-22 18.5t-18.5 25.5t-12 28q-3 11 -4 21t-1 21q0 19 3.5 37t12.5 44q5 14 8.5 26.5t8.5 23.5q23 55 46 109.5t51 112.5q8 16 22 21.5t28 5.5q8 0 16.5 -1.5t13.5 -6.5q4 -3 6 -6t2 -10q0 -20 -7 -35.5t-16.5 -29.5
t-20.5 -29t-20 -33q-6 -14 -14 -32.5t-16.5 -38.5t-16 -38.5t-12.5 -32.5q-13 -34 -18.5 -60.5t-5.5 -37.5q0 -7 2.5 -19.5t15.5 -12.5q8 0 15 1.5t15 5t18 10t25 17.5q18 13 26.5 17.5t20.5 4.5q6 0 13 -1.5t12 -5.5t5.5 -7.5t0.5 -6.5q0 -9 -5 -15t-11 -12zM426 637
q2 -7 6.5 -15.5t4.5 -16.5q0 -12 -2 -16q-8 -17 -13.5 -25t-11.5 -11q-5 -2 -14.5 -3t-14.5 -1q-17 0 -24 15q-5 11 -13 19.5t-8 23.5q0 3 2 11t6 16.5t9.5 15t13.5 6.5q2 0 8.5 -0.5t11.5 -0.5q13 0 25 -4.5t14 -13.5zM241 695q5 -8 8 -17.5t3 -14.5q0 -9 -3.5 -17
t-7.5 -14t-8 -10.5t-4 -7.5q0 -4 -5 -7t-11 -5.5t-12.5 -3.5t-10.5 -1h-8q-5 0 -7 2q-9 6 -12 12t-8 11q-2 2 -2 29q0 5 4.5 19t8.5 22q5 10 14 13t21 3q8 0 21.5 -2t18.5 -11z" />
    <glyph glyph-name="eth" unicode="&#xf0;" horiz-adv-x="400" 
d="M292 528q-1 0 -10 -4.5t-20.5 -10.5t-22.5 -12.5t-16 -10.5q-3 -2 -15.5 -8.5t-19.5 -6.5q-4 0 -11 10q-8 11 -8 23q0 14 6.5 18.5t9.5 10.5q2 3 9.5 9t18 12t21.5 12t19 10q6 3 6 5q0 3 -6.5 12t-31.5 36l-20 20t-15 14q-9 8 -14 12.5t-8 8.5t-3.5 7.5t-0.5 8.5
q0 9 2 17.5t13 8.5q4 0 13 7t14 7q3 0 5.5 -0.5t6 -2t9 -5t15.5 -10.5q20 -14 23.5 -18.5t3.5 -9.5q0 -3 2.5 -7t11.5 -15q12 -14 24.5 -30t17.5 -22q3 -5 6 -5q2 0 8 3q40 19 58 32.5t28 13.5q4 0 12 -4t15 -12q5 -5 5 -13q0 -11 -9 -19t-9 -13q0 -2 -1.5 -4.5t-7.5 -6.5
t-18 -11t-33 -17q-8 -4 -9.5 -6t-1.5 -4t1.5 -6t9.5 -25q10 -26 16.5 -48.5t10 -45t5 -46.5t1.5 -52q0 -29 -6.5 -66.5t-20.5 -77.5t-36.5 -79.5t-53.5 -70.5q-20 -20 -40.5 -39.5t-49.5 -19.5q-18 0 -28 2t-16 4.5t-10 5t-9 4.5q-26 10 -41 20t-23 30q-11 24 -13.5 48.5
t-2.5 47.5q0 30 8 61t18.5 58.5t22 48.5t19.5 30q12 15 22 28.5t18 24.5q19 26 41 38t43 12q12 0 24 -3.5t26 -13.5q17 -13 20.5 -15t5.5 -2q3 0 3 4q0 12 -7 41.5t-25 66.5q-3 5 -5 5zM327 290q-6 2 -10 4t-6 10q-6 28 -11.5 44t-10.5 24.5t-10 11t-9 2.5q-5 0 -19.5 -6.5
t-27.5 -26.5q-18 -27 -34 -52t-28.5 -52.5t-20 -60t-7.5 -74.5q0 -47 26 -61q9 -5 18 -5q11 0 21 6t23 18q27 26 47 57t32.5 61t19 56.5t7.5 43.5z" />
    <glyph glyph-name="ntilde" unicode="&#xf1;" horiz-adv-x="420" 
d="M91 266q11 26 21.5 48.5t21.5 44t24 44t30 47.5q6 9 7.5 12.5t8.5 9.5q11 10 35 10q33 0 40 -15q2 -4 3.5 -8.5t1.5 -9.5q0 -8 -4 -19t-18 -28q-5 -6 -24.5 -29t-39.5 -61q-11 -20 -28.5 -57t-42.5 -99q-3 -7 -6.5 -18t-6.5 -22.5t-5 -20t-2 -9.5q0 -3 0.5 -6.5t2.5 -3.5
q8 0 17 13q51 72 90 118t67.5 76t47 48.5t26.5 36.5q7 14 11.5 22.5t8 12.5t7 5t8.5 1q11 0 17.5 -4.5t18.5 -5.5q8 -1 14 -9.5t6 -17.5q0 -3 -3 -11.5t-7 -14.5q-27 -44 -43 -77t-27 -71q-2 -8 -4.5 -20t-4 -25t-2.5 -25.5t-1 -19.5q0 -14 3 -24.5t5 -18.5q2 -14 16 -23
t19 -13q6 -5 10.5 -10t4.5 -13q0 -5 -6 -14.5t-20 -9.5q-6 0 -24.5 3t-27.5 11q-11 10 -20 15.5t-19 19.5q-17 23 -17 62q0 44 4.5 60.5t4.5 18.5q0 4 -3 4t-6 -4q-31 -41 -52.5 -68.5t-39.5 -53.5q-8 -11 -13.5 -17.5t-10.5 -10.5t-9.5 -7t-9.5 -9q-6 -7 -18 -9t-19 -2
q-5 0 -14.5 5t-21 12t-21.5 15t-15 14q-3 4 -5 12.5t-2 16.5q0 12 1.5 19.5t3.5 14t4 12.5t3 14q1 11 6.5 28t13 36t15.5 38t14 34zM256 590q0 8 -4 18.5t-4 18.5q0 2 2 7t7 7l63 23q18 7 26 8t19 1q14 0 24 -11t24 -31q14 -21 20.5 -28t20.5 -7q2 0 14 3.5t25.5 8l25.5 8.5
t15 4q9 0 14 -6t6 -13q1 -6 2.5 -9.5t1.5 -11.5q0 -5 -8 -10q-11 -7 -23.5 -15t-26 -14.5t-26 -11t-22.5 -4.5q-16 0 -27.5 3.5t-25.5 14.5q-7 6 -13 14t-11 16t-9.5 14.5t-7.5 8.5q-5 3 -9 3q-6 0 -17 -4t-32 -17q-4 -2 -6 -2.5t-4 -0.5q-12 0 -23 3.5t-11 11.5z" />
    <glyph glyph-name="ograve" unicode="&#xf2;" horiz-adv-x="368" 
d="M293 394q-4 4 -5.5 8t-2.5 7q-2 5 -4 11t-6 6q-7 0 -15 -10q-3 -4 -9 -8t-10 -9q-1 -1 -10.5 -13t-23.5 -32t-30 -47t-29.5 -57.5t-22.5 -64t-9 -66.5q0 -2 0.5 -5.5t2.5 -8.5q2 -6 9.5 -17t14.5 -16q3 -2 9 -2q8 0 12 3t7 5q6 3 8.5 6t8.5 12q20 30 40 61t36 63.5
t26 67.5t10 74v10t-1 11q-1 5 -2.5 7t-3.5 4zM344 460q7 -19 18 -37t33 -18q30 0 49.5 1.5t36.5 1.5q24 0 43 -7t19 -19q0 -5 -4 -8t-9 -5.5t-9.5 -4t-5.5 -3.5l-3.5 -3.5t-7.5 -2.5q-15 -2 -35 -8t-40 -9q-15 -2 -24.5 -2.5t-14.5 -0.5q-10 0 -12 -8q-20 -81 -49 -149
t-77 -119q-21 -23 -42.5 -41t-47.5 -18q-14 0 -24 5q-29 14 -48.5 30t-26.5 33q-8 21 -11.5 42.5t-3.5 40.5q0 62 26 116.5t61 106.5q5 8 8 11.5t5.5 6t4.5 5l6 7.5q12 17 25.5 33.5t28.5 29.5t31 21t33 8q12 0 26 -4t27 -15q6 -5 9 -8t5 -9zM292 590q-10 7 -29.5 16.5
t-36.5 16.5q-8 3 -10 11t-2 22q0 9 2.5 14.5t8.5 11.5q12 12 24 12q5 0 8 -1.5t6 -1.5q2 0 4.5 -1.5t8 -5.5t15.5 -11.5t27 -19.5l102 -70q26 -18 26 -25q0 -5 -1.5 -8.5t-3.5 -8.5t-2 -9t-1 -7q-3 -10 -13 -10t-16 1.5t-15 7.5l-102 66v0z" />
    <glyph glyph-name="oacute" unicode="&#xf3;" horiz-adv-x="368" 
d="M293 394q-4 4 -5.5 8t-2.5 7q-2 5 -4 11t-6 6q-7 0 -15 -10q-3 -4 -9 -8t-10 -9q-1 -1 -10.5 -13t-23.5 -32t-30 -47t-29.5 -57.5t-22.5 -64t-9 -66.5q0 -2 0.5 -5.5t2.5 -8.5q2 -6 9.5 -17t14.5 -16q3 -2 9 -2q8 0 12 3t7 5q6 3 8.5 6t8.5 12q20 30 40 61t36 63.5
t26 67.5t10 74v10t-1 11q-1 5 -2.5 7t-3.5 4zM344 460q7 -19 18 -37t33 -18q30 0 49.5 1.5t36.5 1.5q24 0 43 -7t19 -19q0 -5 -4 -8t-9 -5.5t-9.5 -4t-5.5 -3.5l-3.5 -3.5t-7.5 -2.5q-15 -2 -35 -8t-40 -9q-15 -2 -24.5 -2.5t-14.5 -0.5q-10 0 -12 -8q-20 -81 -49 -149
t-77 -119q-21 -23 -42.5 -41t-47.5 -18q-14 0 -24 5q-29 14 -48.5 30t-26.5 33q-8 21 -11.5 42.5t-3.5 40.5q0 62 26 116.5t61 106.5q5 8 8 11.5t5.5 6t4.5 5l6 7.5q12 17 25.5 33.5t28.5 29.5t31 21t33 8q12 0 26 -4t27 -15q6 -5 9 -8t5 -9zM379 649q6 2 16 6t21.5 9t22 10
t17.5 10q2 2 6.5 2.5t7.5 0.5q11 0 19 -8q7 -7 9 -12.5t2 -15.5q0 -12 -1 -17t-4 -9q-7 -8 -21.5 -14.5t-50.5 -17.5l-118 -37q-11 -3 -20 -3q-7 0 -11 2q-10 7 -15 14q-3 5 -5 7l-4 4q-3 3 -3 8q0 8 5 14q2 3 6.5 4t6.5 1q4 0 25 8l89 34v0z" />
    <glyph glyph-name="ocircumflex" unicode="&#xf4;" horiz-adv-x="368" 
d="M293 394q-4 4 -5.5 8t-2.5 7q-2 5 -4 11t-6 6q-7 0 -15 -10q-3 -4 -9 -8t-10 -9q-1 -1 -10.5 -13t-23.5 -32t-30 -47t-29.5 -57.5t-22.5 -64t-9 -66.5q0 -2 0.5 -5.5t2.5 -8.5q2 -6 9.5 -17t14.5 -16q3 -2 9 -2q8 0 12 3t7 5q6 3 8.5 6t8.5 12q20 30 40 61t36 63.5
t26 67.5t10 74v10t-1 11q-1 5 -2.5 7t-3.5 4zM344 460q7 -19 18 -37t33 -18q30 0 49.5 1.5t36.5 1.5q24 0 43 -7t19 -19q0 -5 -4 -8t-9 -5.5t-9.5 -4t-5.5 -3.5l-3.5 -3.5t-7.5 -2.5q-15 -2 -35 -8t-40 -9q-15 -2 -24.5 -2.5t-14.5 -0.5q-10 0 -12 -8q-20 -81 -49 -149
t-77 -119q-21 -23 -42.5 -41t-47.5 -18q-14 0 -24 5q-29 14 -48.5 30t-26.5 33q-8 21 -11.5 42.5t-3.5 40.5q0 62 26 116.5t61 106.5q5 8 8 11.5t5.5 6t4.5 5l6 7.5q12 17 25.5 33.5t28.5 29.5t31 21t33 8q12 0 26 -4t27 -15q6 -5 9 -8t5 -9zM448 565q7 -11 9 -16t2 -9
q0 -8 -5 -11t-9 -8q-5 -7 -7.5 -9t-10.5 -2q-2 0 -8 4t-10 10l-63 86q-4 6 -8 6q-2 0 -3.5 -0.5t-6.5 -2.5q-30 -12 -49 -20.5t-30.5 -14.5t-17 -9.5t-8.5 -6.5q-1 -1 -5 -1q-9 0 -14 5t-10 7q-4 2 -4.5 7.5t-0.5 16.5q0 17 2 21q3 6 5 7.5t4 3.5q2 3 11 8t44 17l89 31
q9 3 13 3q15 0 19 -7q2 -5 4 -5q3 0 8 -8z" />
    <glyph glyph-name="otilde" unicode="&#xf5;" horiz-adv-x="368" 
d="M293 394q-4 4 -5.5 8t-2.5 7q-2 5 -4 11t-6 6q-7 0 -15 -10q-3 -4 -9 -8t-10 -9q-1 -1 -10.5 -13t-23.5 -32t-30 -47t-29.5 -57.5t-22.5 -64t-9 -66.5q0 -2 0.5 -5.5t2.5 -8.5q2 -6 9.5 -17t14.5 -16q3 -2 9 -2q8 0 12 3t7 5q6 3 8.5 6t8.5 12q20 30 40 61t36 63.5
t26 67.5t10 74v10t-1 11q-1 5 -2.5 7t-3.5 4zM344 460q7 -19 18 -37t33 -18q30 0 49.5 1.5t36.5 1.5q24 0 43 -7t19 -19q0 -5 -4 -8t-9 -5.5t-9.5 -4t-5.5 -3.5l-3.5 -3.5t-7.5 -2.5q-15 -2 -35 -8t-40 -9q-15 -2 -24.5 -2.5t-14.5 -0.5q-10 0 -12 -8q-20 -81 -49 -149
t-77 -119q-21 -23 -42.5 -41t-47.5 -18q-14 0 -24 5q-29 14 -48.5 30t-26.5 33q-8 21 -11.5 42.5t-3.5 40.5q0 62 26 116.5t61 106.5q5 8 8 11.5t5.5 6t4.5 5l6 7.5q12 17 25.5 33.5t28.5 29.5t31 21t33 8q12 0 26 -4t27 -15q6 -5 9 -8t5 -9zM214 602q0 8 -4 18.5t-4 18.5
q0 2 2 7t7 7l63 23q18 7 26 8t19 1q14 0 24 -11t24 -31q14 -21 20.5 -28t20.5 -7q2 0 14 3.5t25.5 8l25.5 8.5t15 4q9 0 14 -6t6 -13q1 -6 2.5 -9.5t1.5 -11.5q0 -5 -8 -10q-11 -7 -23.5 -15t-26 -14.5t-26 -11t-22.5 -4.5q-16 0 -27.5 3.5t-25.5 14.5q-7 6 -13 14t-11 16
t-9.5 14.5t-7.5 8.5q-5 3 -9 3q-6 0 -17 -4t-32 -17q-4 -2 -6 -2.5t-4 -0.5q-12 0 -23 3.5t-11 11.5z" />
    <glyph glyph-name="odieresis" unicode="&#xf6;" horiz-adv-x="368" 
d="M492 635q2 -7 6.5 -15.5t4.5 -16.5q0 -12 -2 -16q-8 -17 -13.5 -25t-11.5 -11q-5 -2 -14.5 -3t-14.5 -1q-17 0 -24 15q-5 11 -13 19.5t-8 23.5q0 3 2 11t6 16.5t9.5 15t13.5 6.5q2 0 8.5 -0.5t11.5 -0.5q13 0 25 -4.5t14 -13.5zM307 693q5 -8 8 -17.5t3 -14.5
q0 -9 -3.5 -17t-7.5 -14t-8 -10.5t-4 -7.5q0 -4 -5 -7t-11 -5.5t-12.5 -3.5t-10.5 -1h-8q-5 0 -7 2q-9 6 -12 12t-8 11q-2 2 -2 29q0 5 4.5 19t8.5 22q5 10 14 13t21 3q8 0 21.5 -2t18.5 -11zM293 394q-4 4 -5.5 8t-2.5 7q-2 5 -4 11t-6 6q-7 0 -15 -10q-3 -4 -9 -8t-10 -9
q-1 -1 -10.5 -13t-23.5 -32t-30 -47t-29.5 -57.5t-22.5 -64t-9 -66.5q0 -2 0.5 -5.5t2.5 -8.5q2 -6 9.5 -17t14.5 -16q3 -2 9 -2q8 0 12 3t7 5q6 3 8.5 6t8.5 12q20 30 40 61t36 63.5t26 67.5t10 74v10t-1 11q-1 5 -2.5 7t-3.5 4zM344 460q7 -19 18 -37t33 -18
q30 0 49.5 1.5t36.5 1.5q24 0 43 -7t19 -19q0 -5 -4 -8t-9 -5.5t-9.5 -4t-5.5 -3.5l-3.5 -3.5t-7.5 -2.5q-15 -2 -35 -8t-40 -9q-15 -2 -24.5 -2.5t-14.5 -0.5q-10 0 -12 -8q-20 -81 -49 -149t-77 -119q-21 -23 -42.5 -41t-47.5 -18q-14 0 -24 5q-29 14 -48.5 30t-26.5 33
q-8 21 -11.5 42.5t-3.5 40.5q0 62 26 116.5t61 106.5q5 8 8 11.5t5.5 6t4.5 5l6 7.5q12 17 25.5 33.5t28.5 29.5t31 21t33 8q12 0 26 -4t27 -15q6 -5 9 -8t5 -9z" />
    <glyph glyph-name="divide" unicode="&#xf7;" horiz-adv-x="590" 
d="M553 287q0 -12 -2 -22t-6 -20q-3 -8 -8 -8q-6 0 -13.5 1t-13.5 1q-14 0 -42 -1.5t-62 -3t-70 -2.5t-66 -1q-20 0 -40 1t-38 2.5t-31.5 2.5t-19.5 1q-5 0 -9 7.5t-6.5 17.5t-4 20.5t-1.5 16.5q0 16 34 16q12 0 51 -4t107 -4q14 0 40.5 1t57 2.5t60.5 3t52 1.5q8 0 13 -2
t15 -12q2 -2 2.5 -6t0.5 -9zM323 150q14 -9 18.5 -24.5t4.5 -25.5q0 -31 -10 -45.5t-44 -14.5q-21 0 -26 6.5t-12 14.5q-10 11 -18 17t-8 20q0 7 2.5 20t8.5 26t14.5 23t20.5 10q11 0 17 -3t13 -8q5 -3 8.5 -7t10.5 -9zM423 460q0 -6 -2 -21t-8 -31.5t-16 -29t-26 -12.5
q-3 0 -14 3t-23 8.5t-22 14t-10 19.5q0 17 3 29t7.5 22t10 18.5t9.5 18.5q3 7 11.5 8t16.5 1q6 0 17 -5.5t21 -13.5t17.5 -16t7.5 -13z" />
    <glyph glyph-name="oslash" unicode="&#xf8;" horiz-adv-x="406" 
d="M148 70q6 -5 14.5 -10t15.5 -5q16 0 30.5 7t20.5 15q21 26 36.5 50t27.5 48t22 49.5t20 55.5q3 9 3.5 11t0.5 4t-2 2t-9 -7q-18 -20 -36 -39t-35 -39q-15 -17 -39.5 -42t-48.5 -54q-4 -5 -9.5 -11t-14.5 -15q-6 -6 -6 -9q0 -2 1.5 -4t7.5 -7zM162 184q18 18 41.5 44
t49 54.5t51.5 57t47 51.5q2 2 2 3q0 2 -3 2q-9 0 -15 5t-11 12q-6 10 -8.5 13t-7.5 3q-12 0 -22.5 -7.5t-15.5 -14.5q-28 -35 -49.5 -63.5t-38 -55t-28 -53t-20.5 -56.5q-2 -5 -3 -11t-1 -8q0 -4 2 -4t7 4.5t23 23.5zM402 446q13 13 21 19.5t19 6.5q9 0 17.5 -13.5
t8.5 -28.5q0 -5 -9 -8.5t-17 -10.5q-14 -11 -17 -15t-3 -7q0 -4 1 -10t1 -16q0 -13 -3 -34q-9 -49 -23 -92t-30.5 -78.5t-33.5 -62.5t-30 -44q-17 -21 -34 -34t-31.5 -19.5t-26 -8.5t-17.5 -2q-5 0 -12.5 1.5t-15.5 4.5q-21 8 -38 17t-27 19q-5 5 -7 5q-4 0 -11 -9
q-6 -8 -21 -17t-21 -9q-3 0 -6.5 0.5t-4.5 5.5q-2 9 -7.5 17.5t-5.5 18.5q0 5 1.5 7t5 4t10 5.5t17.5 12.5q8 7 11 9.5t3 6.5q0 5 -6 21.5t-6 49.5q0 30 8.5 59t21.5 55t27 48t26 39t29 37q11 13 25 30.5t30.5 33.5t35 27.5t38.5 11.5q17 0 33 -8t36 -28q5 -5 13 -8.5
t11 -8.5q4 -5 7 -5q2 0 7 5z" />
    <glyph glyph-name="ugrave" unicode="&#xf9;" horiz-adv-x="420" 
d="M237 451q2 -5 6.5 -11t4.5 -14q0 -6 -4.5 -13.5t-15.5 -15.5q-6 -4 -14.5 -14t-14.5 -33q-9 -33 -20 -67.5t-22 -68.5t-20 -65.5t-13 -58.5q-2 -10 -2 -15v-8t4.5 -9t9.5 -5q2 0 9.5 2.5t12.5 7.5q13 12 21 20t13 14t9 11.5t10 12.5q47 51 86 106t63 118q4 10 6.5 13.5
t11.5 8.5q7 4 12 5t11 1t12.5 -4t11.5 -6q12 -4 16 -8.5t4 -9.5q0 -12 -1.5 -17t-4.5 -12q-26 -55 -45 -110.5t-28 -115.5q-2 -16 -4 -34.5t-2 -39.5q0 -19 9 -34.5t9 -32.5q0 -5 -1.5 -10.5t-4.5 -7.5q-5 -3 -14 -3q-11 0 -20.5 5t-17.5 10q-7 4 -11 5.5t-6.5 2.5t-4 3
t-3.5 8q-6 15 -8 30t-2 30q0 19 1.5 39.5t1.5 28.5q0 6 -4 6q-3 0 -7 -4t-7 -8q-26 -30 -53 -55.5t-59 -41.5q-6 -3 -8 -3.5t-5 -0.5t-22 4t-38 15q-27 17 -30 31q-2 11 -3.5 23t-1.5 20q0 28 7.5 58t15.5 56q3 10 5 17.5t3.5 14.5t3.5 14t5 17q8 22 14.5 45.5t14 47
t17.5 47.5t24 48q8 14 19.5 20t23.5 6q8 0 19 -4t15 -12zM292 550q-10 7 -29.5 16.5t-36.5 16.5q-8 3 -10 11t-2 22q0 9 2.5 14.5t8.5 11.5q12 12 24 12q5 0 8 -1.5t6 -1.5q2 0 4.5 -1.5t8 -5.5t15.5 -11.5t27 -19.5l102 -70q26 -18 26 -25q0 -5 -1.5 -8.5t-3.5 -8.5t-2 -9
t-1 -7q-3 -10 -13 -10t-16 1.5t-15 7.5l-102 66v0z" />
    <glyph glyph-name="uacute" unicode="&#xfa;" horiz-adv-x="420" 
d="M237 451q2 -5 6.5 -11t4.5 -14q0 -6 -4.5 -13.5t-15.5 -15.5q-6 -4 -14.5 -14t-14.5 -33q-9 -33 -20 -67.5t-22 -68.5t-20 -65.5t-13 -58.5q-2 -10 -2 -15v-8t4.5 -9t9.5 -5q2 0 9.5 2.5t12.5 7.5q13 12 21 20t13 14t9 11.5t10 12.5q47 51 86 106t63 118q4 10 6.5 13.5
t11.5 8.5q7 4 12 5t11 1t12.5 -4t11.5 -6q12 -4 16 -8.5t4 -9.5q0 -12 -1.5 -17t-4.5 -12q-26 -55 -45 -110.5t-28 -115.5q-2 -16 -4 -34.5t-2 -39.5q0 -19 9 -34.5t9 -32.5q0 -5 -1.5 -10.5t-4.5 -7.5q-5 -3 -14 -3q-11 0 -20.5 5t-17.5 10q-7 4 -11 5.5t-6.5 2.5t-4 3
t-3.5 8q-6 15 -8 30t-2 30q0 19 1.5 39.5t1.5 28.5q0 6 -4 6q-3 0 -7 -4t-7 -8q-26 -30 -53 -55.5t-59 -41.5q-6 -3 -8 -3.5t-5 -0.5t-22 4t-38 15q-27 17 -30 31q-2 11 -3.5 23t-1.5 20q0 28 7.5 58t15.5 56q3 10 5 17.5t3.5 14.5t3.5 14t5 17q8 22 14.5 45.5t14 47
t17.5 47.5t24 48q8 14 19.5 20t23.5 6q8 0 19 -4t15 -12zM393 613q6 2 16 6t21.5 9t22 10t17.5 10q2 2 6.5 2.5t7.5 0.5q11 0 19 -8q7 -7 9 -12.5t2 -15.5q0 -12 -1 -17t-4 -9q-7 -8 -21.5 -14.5t-50.5 -17.5l-118 -37q-11 -3 -20 -3q-7 0 -11 2q-10 7 -15 14q-3 5 -5 7
l-4 4q-3 3 -3 8q0 8 5 14q2 3 6.5 4t6.5 1q4 0 25 8l89 34v0z" />
    <glyph glyph-name="ucircumflex" unicode="&#xfb;" horiz-adv-x="420" 
d="M237 451q2 -5 6.5 -11t4.5 -14q0 -6 -4.5 -13.5t-15.5 -15.5q-6 -4 -14.5 -14t-14.5 -33q-9 -33 -20 -67.5t-22 -68.5t-20 -65.5t-13 -58.5q-2 -10 -2 -15v-8t4.5 -9t9.5 -5q2 0 9.5 2.5t12.5 7.5q13 12 21 20t13 14t9 11.5t10 12.5q47 51 86 106t63 118q4 10 6.5 13.5
t11.5 8.5q7 4 12 5t11 1t12.5 -4t11.5 -6q12 -4 16 -8.5t4 -9.5q0 -12 -1.5 -17t-4.5 -12q-26 -55 -45 -110.5t-28 -115.5q-2 -16 -4 -34.5t-2 -39.5q0 -19 9 -34.5t9 -32.5q0 -5 -1.5 -10.5t-4.5 -7.5q-5 -3 -14 -3q-11 0 -20.5 5t-17.5 10q-7 4 -11 5.5t-6.5 2.5t-4 3
t-3.5 8q-6 15 -8 30t-2 30q0 19 1.5 39.5t1.5 28.5q0 6 -4 6q-3 0 -7 -4t-7 -8q-26 -30 -53 -55.5t-59 -41.5q-6 -3 -8 -3.5t-5 -0.5t-22 4t-38 15q-27 17 -30 31q-2 11 -3.5 23t-1.5 20q0 28 7.5 58t15.5 56q3 10 5 17.5t3.5 14.5t3.5 14t5 17q8 22 14.5 45.5t14 47
t17.5 47.5t24 48q8 14 19.5 20t23.5 6q8 0 19 -4t15 -12zM484 537q7 -11 9 -16t2 -9q0 -8 -5 -11t-9 -8q-5 -7 -7.5 -9t-10.5 -2q-2 0 -8 4t-10 10l-63 86q-4 6 -8 6q-2 0 -3.5 -0.5t-6.5 -2.5q-30 -12 -49 -20.5t-30.5 -14.5t-17 -9.5t-8.5 -6.5q-1 -1 -5 -1q-9 0 -14 5
t-10 7q-4 2 -4.5 7.5t-0.5 16.5q0 17 2 21q3 6 5 7.5t4 3.5q2 3 11 8t44 17l89 31q9 3 13 3q15 0 19 -7q2 -5 4 -5q3 0 8 -8z" />
    <glyph glyph-name="udieresis" unicode="&#xfc;" horiz-adv-x="420" 
d="M524 606q2 -7 6.5 -15.5t4.5 -16.5q0 -12 -2 -16q-8 -17 -13.5 -25t-11.5 -11q-5 -2 -14.5 -3t-14.5 -1q-17 0 -24 15q-5 11 -13 19.5t-8 23.5q0 3 2 11t6 16.5t9.5 15t13.5 6.5q2 0 8.5 -0.5t11.5 -0.5q13 0 25 -4.5t14 -13.5zM339 664q5 -8 8 -17.5t3 -14.5
q0 -9 -3.5 -17t-7.5 -14t-8 -10.5t-4 -7.5q0 -4 -5 -7t-11 -5.5t-12.5 -3.5t-10.5 -1h-8q-5 0 -7 2q-9 6 -12 12t-8 11q-2 2 -2 29q0 5 4.5 19t8.5 22q5 10 14 13t21 3q8 0 21.5 -2t18.5 -11zM237 451q2 -5 6.5 -11t4.5 -14q0 -6 -4.5 -13.5t-15.5 -15.5q-6 -4 -14.5 -14
t-14.5 -33q-9 -33 -20 -67.5t-22 -68.5t-20 -65.5t-13 -58.5q-2 -10 -2 -15v-8t4.5 -9t9.5 -5q2 0 9.5 2.5t12.5 7.5q13 12 21 20t13 14t9 11.5t10 12.5q47 51 86 106t63 118q4 10 6.5 13.5t11.5 8.5q7 4 12 5t11 1t12.5 -4t11.5 -6q12 -4 16 -8.5t4 -9.5q0 -12 -1.5 -17
t-4.5 -12q-26 -55 -45 -110.5t-28 -115.5q-2 -16 -4 -34.5t-2 -39.5q0 -19 9 -34.5t9 -32.5q0 -5 -1.5 -10.5t-4.5 -7.5q-5 -3 -14 -3q-11 0 -20.5 5t-17.5 10q-7 4 -11 5.5t-6.5 2.5t-4 3t-3.5 8q-6 15 -8 30t-2 30q0 19 1.5 39.5t1.5 28.5q0 6 -4 6q-3 0 -7 -4t-7 -8
q-26 -30 -53 -55.5t-59 -41.5q-6 -3 -8 -3.5t-5 -0.5t-22 4t-38 15q-27 17 -30 31q-2 11 -3.5 23t-1.5 20q0 28 7.5 58t15.5 56q3 10 5 17.5t3.5 14.5t3.5 14t5 17q8 22 14.5 45.5t14 47t17.5 47.5t24 48q8 14 19.5 20t23.5 6q8 0 19 -4t15 -12z" />
    <glyph glyph-name="yacute" unicode="&#xfd;" horiz-adv-x="436" 
d="M252 460q0 -13 -2 -22t-8 -20t-10 -16.5t-6.5 -8.5t-4.5 -5t-5 -8q-13 -28 -22 -52.5t-16.5 -48t-14.5 -48.5t-17 -55q-3 -9 -4.5 -16.5t-3.5 -15.5t-3.5 -16t-1.5 -16q0 -16 5 -16q10 0 22 6q14 7 32.5 20.5t46.5 45.5q6 7 15.5 16t21.5 24q12 14 26.5 28.5t31 36
t34.5 53t36 79.5q2 6 10.5 18t15.5 12q8 0 13.5 -3.5t17.5 -3.5t19 -3.5t10.5 -9t4.5 -12t1 -11.5q0 -14 -7.5 -26.5t-15.5 -24.5q-4 -5 -7.5 -11t-11.5 -19q-19 -29 -34 -61.5t-27 -67.5q-3 -9 -11 -30.5t-17 -45t-16.5 -44.5t-10.5 -30q-7 -21 -9.5 -29t-2.5 -11
q0 -2 4 -2q2 0 4.5 0.5t4.5 0.5q5 0 11.5 -3t6.5 -8q0 -11 -2 -16.5t-4 -8.5q-51 -68 -78.5 -139t-42.5 -143q-3 -15 -5.5 -32.5t-8.5 -33t-17 -27t-31 -14.5q-6 -1 -12 -2.5t-15 -1.5q-6 0 -12.5 1t-12 4.5t-9.5 11t-4 21.5q0 29 21 79q17 39 38.5 83.5t47.5 87.5
q1 7 6.5 27.5t14 49t19 61t20.5 63.5q6 20 10 32t5.5 18.5t2 9t0.5 3.5q0 4 -3 4t-14 -11q-13 -13 -30.5 -26.5t-34 -25t-29 -18.5t-16.5 -7q-62 0 -95 40q-4 5 -5 8.5t-1 15.5q0 52 10.5 97t26.5 88t33.5 86.5t32.5 92.5q5 15 17.5 22t17.5 7q4 0 12 -2.5t16 -2.5t17 -6
t9 -16zM402 601q6 2 16 6t21.5 9t22 10t17.5 10q2 2 6.5 2.5t7.5 0.5q11 0 19 -8q7 -7 9 -12.5t2 -15.5q0 -12 -1 -17t-4 -9q-7 -8 -21.5 -14.5t-50.5 -17.5l-118 -37q-11 -3 -20 -3q-7 0 -11 2q-10 7 -15 14q-3 5 -5 7l-4 4q-3 3 -3 8q0 8 5 14q2 3 6.5 4t6.5 1q4 0 25 8
l89 34v0z" />
    <glyph glyph-name="thorn" unicode="&#xfe;" horiz-adv-x="456" 
d="M389 386q-24 -16 -49 -38t-48 -46.5t-42.5 -50t-32.5 -47.5q-5 -8 -5 -35q0 -12 3.5 -29t10 -32.5t15 -26.5t18.5 -11q5 0 9 4q12 12 25 32t24 40t18.5 36.5t9.5 21.5q5 11 18 43.5t24 74.5q7 26 10 42t3 20q0 6 -3 6q-2 0 -8 -4zM327 665q0 -10 -6.5 -34t-16.5 -55.5
t-22.5 -67.5t-24.5 -69.5t-22.5 -61.5t-15.5 -44q0 -2 3 -2q15 13 31 29t34 33t38 33t44 29q8 5 11 5.5t5 0.5q17 0 36 -7t48 -27q5 -3 10.5 -10.5t5.5 -29.5q0 -21 -3 -38t-7 -32q-2 -6 -2 -12q0 -5 -4 -16q-12 -32 -29 -71t-37.5 -77.5t-45.5 -73t-54 -58.5
q-5 -4 -13 -5.5t-15 -1.5q-9 0 -19 3t-19 7.5t-17 9.5t-12 9q-20 20 -32.5 41t-17.5 47q-33 -50 -67 -130.5t-72 -202.5q-4 -13 -5 -24t-2 -18.5t-4 -11.5t-11 -4q-11 0 -17.5 2t-12.5 2q-14 0 -19.5 1.5t-8.5 5.5q-5 5 -9 8.5t-5 14.5q0 3 1.5 9t7.5 24q28 83 60.5 165
t69.5 176t78 207t85 258q8 27 9.5 39.5t1.5 20.5t5.5 12.5t12.5 4.5q11 0 18.5 3.5t18.5 3.5q23 0 28.5 -6t5.5 -14z" />
    <glyph glyph-name="ydieresis" unicode="&#xff;" horiz-adv-x="436" 
d="M252 460q0 -13 -2 -22t-8 -20t-10 -16.5t-6.5 -8.5t-4.5 -5t-5 -8q-13 -28 -22 -52.5t-16.5 -48t-14.5 -48.5t-17 -55q-3 -9 -4.5 -16.5t-3.5 -15.5t-3.5 -16t-1.5 -16q0 -16 5 -16q10 0 22 6q14 7 32.5 20.5t46.5 45.5q6 7 15.5 16t21.5 24q12 14 26.5 28.5t31 36
t34.5 53t36 79.5q2 6 10.5 18t15.5 12q8 0 13.5 -3.5t17.5 -3.5t19 -3.5t10.5 -9t4.5 -12t1 -11.5q0 -14 -7.5 -26.5t-15.5 -24.5q-4 -5 -7.5 -11t-11.5 -19q-19 -29 -34 -61.5t-27 -67.5q-3 -9 -11 -30.5t-17 -45t-16.5 -44.5t-10.5 -30q-7 -21 -9.5 -29t-2.5 -11
q0 -2 4 -2q2 0 4.5 0.5t4.5 0.5q5 0 11.5 -3t6.5 -8q0 -11 -2 -16.5t-4 -8.5q-51 -68 -78.5 -139t-42.5 -143q-3 -15 -5.5 -32.5t-8.5 -33t-17 -27t-31 -14.5q-6 -1 -12 -2.5t-15 -1.5q-6 0 -12.5 1t-12 4.5t-9.5 11t-4 21.5q0 29 21 79q17 39 38.5 83.5t47.5 87.5
q1 7 6.5 27.5t14 49t19 61t20.5 63.5q6 20 10 32t5.5 18.5t2 9t0.5 3.5q0 4 -3 4t-14 -11q-13 -13 -30.5 -26.5t-34 -25t-29 -18.5t-16.5 -7q-62 0 -95 40q-4 5 -5 8.5t-1 15.5q0 52 10.5 97t26.5 88t33.5 86.5t32.5 92.5q5 15 17.5 22t17.5 7q4 0 12 -2.5t16 -2.5t17 -6
t9 -16zM522 595q2 -7 6.5 -15.5t4.5 -16.5q0 -12 -2 -16q-8 -17 -13.5 -25t-11.5 -11q-5 -2 -14.5 -3t-14.5 -1q-17 0 -24 15q-5 11 -13 19.5t-8 23.5q0 3 2 11t6 16.5t9.5 15t13.5 6.5q2 0 8.5 -0.5t11.5 -0.5q13 0 25 -4.5t14 -13.5zM337 653q5 -8 8 -17.5t3 -14.5
q0 -9 -3.5 -17t-7.5 -14t-8 -10.5t-4 -7.5q0 -4 -5 -7t-11 -5.5t-12.5 -3.5t-10.5 -1h-8q-5 0 -7 2q-9 6 -12 12t-8 11q-2 2 -2 29q0 5 4.5 19t8.5 22q5 10 14 13t21 3q8 0 21.5 -2t18.5 -11z" />
    <glyph glyph-name="dotlessi" unicode="&#x131;" horiz-adv-x="220" 
d="M237 34q-16 -14 -42.5 -31t-60.5 -17q-11 0 -22.5 7t-22 18.5t-18.5 25.5t-12 28q-3 11 -4 21t-1 21q0 19 3.5 37t12.5 44q5 14 8.5 26.5t8.5 23.5q23 55 46 109.5t51 112.5q8 16 22 21.5t28 5.5q8 0 16.5 -1.5t13.5 -6.5q4 -3 6 -6t2 -10q0 -20 -7 -35.5t-16.5 -29.5
t-20.5 -29t-20 -33q-6 -14 -14 -32.5t-16.5 -38.5t-16 -38.5t-12.5 -32.5q-13 -34 -18.5 -60.5t-5.5 -37.5q0 -7 2.5 -19.5t15.5 -12.5q8 0 15 1.5t15 5t18 10t25 17.5q18 13 26.5 17.5t20.5 4.5q6 0 13 -1.5t12 -5.5t5.5 -7.5t0.5 -6.5q0 -9 -5 -15t-11 -12z" />
    <glyph glyph-name="Lslash" unicode="&#x141;" horiz-adv-x="470" 
d="M323 365q9 5 21.5 10.5t24 10.5t21.5 9t15 5q4 1 9 1t8 -3t6 -8.5t3 -10.5q0 -12 -1 -16.5t-2 -8.5q-4 -14 -7 -17t-4 -11q-1 -7 -10.5 -8t-18.5 -7q-7 -5 -24 -12t-35.5 -13.5t-35.5 -12.5t-25 -9t-11.5 -6t-5.5 -9q-17 -44 -30.5 -81.5t-29.5 -82.5q-4 -10 -4 -21
q0 -7 4 -13t11 -6q4 0 14.5 1.5t27.5 6.5q53 14 103.5 32t97.5 37q5 2 18 2q8 0 25 -7t29 -19q2 -2 4.5 -5t2.5 -7q0 -3 3 -6t3 -11q0 -3 -0.5 -6.5t-2.5 -7.5q-3 -5 -11 -7.5t-31 -2.5h-10t-9 -2q-38 -9 -73.5 -22t-71 -24.5t-72 -20t-77.5 -8.5q-15 0 -27 6t-22.5 15
t-18.5 18.5t-14 17.5q-4 5 -4 14q0 11 4.5 24t12.5 32q2 6 2.5 9.5t1.5 8.5t2.5 13t6.5 22q3 7 6 16.5t6 18t5 14.5t2 7q0 4 -4 4q-2 0 -8 -3t-11 -3q-7 0 -12 5t-5 29q0 8 1 12t2.5 6t3 4.5t2.5 7.5q2 9 11.5 13.5t21.5 9.5q22 8 30.5 11.5t13.5 15.5q38 86 77.5 167
t78.5 168q4 8 15 9.5t16 1.5q7 0 10 -4.5t18 -8.5q9 -2 19 -8.5t10 -12.5q0 -20 -7 -30t-7 -21q0 -4 -6 -9q-16 -13 -28 -34.5t-23 -50.5q-6 -15 -12 -25.5t-15 -30.5q-3 -7 -8 -17.5t-9.5 -20.5t-8 -18t-3.5 -10q0 -4 3 -4t7 1.5t15 6.5z" />
    <glyph glyph-name="lslash" unicode="&#x142;" horiz-adv-x="254" 
d="M144 -17q-3 0 -17.5 4.5t-31.5 13t-32 23t-19 35.5q-3 16 -3 34q0 32 13 69q3 9 3.5 12t0.5 8q0 6 -8 6q-5 0 -9 -1.5t-9 -1.5t-9.5 5t-4.5 19t3 21.5t10 17.5q5 7 10 10t9 5q13 5 23 10t18 11.5t14.5 15t12.5 22.5q35 76 78.5 155.5t83.5 158.5q13 26 30 49.5t35 31.5
q11 5 22.5 6t22.5 1q3 0 9 -1t11 -5t9 -13.5t4 -25.5q0 -5 -3.5 -11.5t-8 -13.5t-9.5 -13t-7 -10q-24 -39 -48.5 -75.5t-47 -70t-41 -63.5t-31.5 -55q-5 -9 -5.5 -10.5t-0.5 -2.5q0 -3 3 -3q4 0 15 5q24 11 56 24.5t63 13.5q10 0 11.5 -8t1.5 -19q0 -16 -5.5 -22t-22.5 -19
q-5 -3 -15.5 -7t-23 -8t-25 -8.5t-21.5 -8.5q-23 -11 -41 -17t-43 -25q-5 -4 -9.5 -13t-8.5 -19q-12 -31 -25 -60.5t-13 -62.5q0 -9 1 -18t4 -19q4 -12 20 -12q10 0 17 4q16 10 33.5 29t35 37.5t35.5 32t35 13.5q6 0 20 -5.5t14 -17.5q0 -10 -6 -15t-14 -13q-19 -21 -37 -44
t-37.5 -42.5t-42.5 -31.5t-52 -12z" />
    <glyph glyph-name="OE" unicode="&#x152;" horiz-adv-x="754" 
d="M416 547q-2 10 -10.5 13t-18.5 3q-4 0 -10.5 -2t-19.5 -14q-61 -58 -103 -127t-66 -147q-9 -29 -9 -42q0 -14 -3 -36.5t-3 -46.5q0 -15 2.5 -33.5t10 -34t20.5 -26.5t34 -11q14 0 31.5 8t31.5 24q10 12 19.5 26t20 34t22.5 47.5t26 65.5q4 11 4 14q0 4 -5 12q-6 9 -8 17
t-2 25q0 8 21 11q11 2 14.5 4.5t6.5 10.5q8 21 15 44t12 42.5t8 34t3 18.5q0 11 -5 9.5t-12 3.5q-14 9 -19.5 24t-7.5 29zM550 501q-2 -8 -5 -21.5t-6 -29t-6.5 -32t-6.5 -29.5q-4 -17 -4 -20q0 -5 5 -5q4 0 19 6q6 3 22.5 9t36.5 12t42.5 10.5t40.5 4.5q15 0 29 -3t31 -9
q9 -3 12 -6t3 -14q0 -17 -5 -26.5t-12 -14t-13 -5t-7 -0.5q-8 0 -15.5 1.5t-15.5 1.5q-25 0 -48.5 -6t-47 -14t-46.5 -17t-46 -15q-9 -2 -14 -5.5t-10 -17.5q-14 -35 -30.5 -77t-36.5 -88q-6 -14 -6 -23q0 -3 4 -6.5t12 -3.5t25 2.5t38.5 7.5t46.5 12t50 15q21 7 40.5 18
t39 21t40.5 17.5t45 7.5q6 0 12.5 -3.5t12.5 -9t10 -11.5t4 -11q0 -3 -1.5 -11.5t-10.5 -15.5q-11 -8 -24 -13.5t-24 -11.5q-48 -26 -100 -43.5t-99.5 -28t-84 -15.5t-52.5 -5q-18 0 -31.5 6.5t-21.5 6.5q-10 0 -17.5 -2.5t-17.5 -6t-25 -6t-40 -2.5q-15 0 -34 2.5t-29 7.5
q-27 15 -43.5 34t-26 40t-13 43.5t-3.5 43.5q2 103 33.5 187t87.5 164q51 73 91 103t59 30q42 0 62.5 -5t37.5 -13q20 -10 32 -26q4 -5 10 -5q5 0 24 7t34 12t30 9.5t31.5 9t37.5 9.5q42 10 86 17.5t91 7.5q8 0 14.5 -1.5t14.5 -2.5q22 -2 39 -12t17 -27q0 -38 -16 -38
q-11 0 -19 1t-17 2.5t-21.5 3t-30.5 1.5q-32 0 -65 -5t-65.5 -12.5t-62 -17t-53.5 -19.5q-13 -5 -17 -9.5t-7 -16.5z" />
    <glyph glyph-name="oe" unicode="&#x153;" horiz-adv-x="572" 
d="M527 369q4 4 10 13t11 19.5t9 21.5t4 19q0 12 -9 12q-5 0 -14.5 -3.5t-19.5 -12.5q-51 -48 -94.5 -100t-61.5 -115q-3 -11 -3 -14t2 -3q5 0 18 10q41 33 75.5 72t72.5 81zM309 419q-11 6 -11 18q0 4 -5 4q-14 0 -30 -21q-27 -36 -52.5 -72.5t-45 -74t-31.5 -76t-12 -78.5
q0 -7 3.5 -15t9 -15t12 -12t12.5 -5q9 0 17 7.5t13 12.5q10 9 33 42t47 76.5t42 90t18 82.5q0 16 -3 22t-17 14zM263 62q-6 -8 -15.5 -19t-21.5 -21t-26 -17t-29 -7q-11 0 -24 5q-21 8 -44.5 23t-35.5 39q-17 34 -17 77q0 31 9 64t23.5 65t33.5 63.5t39 60.5q13 19 29 39.5
t35 38t40.5 29t44.5 11.5q30 0 61 -25q12 -10 18.5 -19t15.5 -30q2 -8 4 -13q11 11 19.5 20t23.5 23q22 20 55.5 33.5t64.5 13.5q23 0 41 -9t26 -27q5 -11 5 -24q0 -14 -4 -31t-10 -33t-13.5 -29.5t-13.5 -21.5q-24 -30 -50.5 -60.5t-56 -60t-61.5 -55t-66 -44.5
q-7 -4 -8.5 -6t-1.5 -6q0 -3 2.5 -12.5t14.5 -20.5q11 -10 17.5 -12.5t15.5 -2.5q11 0 29 7.5t50 27.5q26 16 45 30t37 29t38 31.5t48 37.5q7 5 16 5t17 -2.5t10 -4.5q6 -9 6 -16q0 -5 -1.5 -9t-6.5 -9q-45 -45 -80.5 -76.5t-64.5 -52.5t-53.5 -34.5t-46.5 -23.5
q-9 -4 -26 -4q-26 0 -49.5 10t-48.5 27q-14 10 -20.5 20.5t-11.5 23.5q-3 8 -6 8q-2 0 -5.5 -3.5t-15.5 -20.5z" />
    <glyph glyph-name="Scaron" unicode="&#x160;" horiz-adv-x="432" 
d="M451 596q17 -18 25 -40.5t11 -41.5l4 -18t2 -14t-6.5 -9t-14.5 -4q-7 0 -17 3q-14 4 -26.5 16t-17.5 19q-4 6 -6.5 16t-5.5 21t-9 21.5t-17 16.5t-22 6q-5 0 -14.5 -21t-9.5 -58q0 -8 2 -33t12 -66q6 -24 16 -60t20.5 -75t20 -77.5t14.5 -68.5q5 -28 6 -40t1 -26
q0 -31 -17 -54.5t-45 -34.5q-6 -2 -14 -2.5t-25 -0.5q-67 0 -129.5 35.5t-110.5 95.5q-6 7 -14 15t-16 19.5t-15 27t-11 36.5q-2 8 -2 15v15q0 7 7 18t15 11q13 0 27 -4t24 -10q14 -9 24.5 -20t10.5 -15q0 -11 -3.5 -17.5t-3.5 -22.5q0 -3 2 -7t4 -9q10 -18 25 -35t34 -32.5
t40 -27.5t42 -19q12 -4 26 -4q12 0 23 10.5t11 26.5q0 20 -1.5 41t-3.5 36q-6 42 -16 80.5t-21 76t-21.5 76.5t-18.5 81q-1 4 -2.5 14t-3 21.5t-2.5 23t-1 18.5q0 17 1 22q3 12 5.5 28t9 30t17.5 23.5t31 9.5q40 0 78.5 -11t71.5 -47zM424 691q-6 -4 -9 -3.5t-6 -1.5
q-2 -1 -6 -1q-5 0 -9 1t-9 9l-49 70q-14 21 -18 30t-4 14q0 3 0.5 4.5t0.5 6.5q0 4 1 7.5t6 10.5q11 16 16 16q2 0 6.5 1.5t10.5 1.5q7 0 9 -6q0 -2 1.5 -5.5t6 -11.5t14 -23.5t25.5 -42.5q4 -7 10 -7q5 0 19.5 9t27.5 16l64 35q9 5 14 5t8 -3t3 -14q0 -4 1 -7t1 -8
q0 -7 -4 -15q-2 -5 -5.5 -7.5t-14.5 -9.5l-111 -71v0z" />
    <glyph glyph-name="scaron" unicode="&#x161;" horiz-adv-x="296" 
d="M347 464q11 -11 15 -30.5t4 -34.5q0 -29 -9 -49t-20 -34q-6 -8 -8 -9.5t-6 -1.5q-8 0 -19 4t-16 9q-15 12 -15 32q0 3 3 8q7 11 12 22t5 24q0 6 -2 14t-5 13t-9.5 9.5t-12.5 4.5q-3 0 -11.5 -9.5t-18.5 -24.5t-19 -33.5t-12 -35.5q-1 -5 -1.5 -11t-0.5 -15q0 -2 1 -10.5
t2 -19t2 -20t2 -14.5q3 -28 8.5 -61.5t11 -65.5t9 -59t3.5 -42q0 -10 -8 -18q-14 -14 -28.5 -25t-34.5 -11q-15 0 -25 4q-50 20 -85.5 56t-60.5 78q-2 4 -4 8.5t-2 6.5q0 11 10 24t26 13q15 0 23 -2.5t15 -11.5q9 -12 16 -24.5l14 -25t15.5 -24.5t19.5 -22q8 -7 12 -9t8 -2
q10 0 10 8q0 3 -0.5 7.5t-4.5 23.5q-5 25 -11 62t-10.5 73t-7.5 64.5t-3 36.5q0 10 2 25t6.5 32t11.5 34t16 31q22 35 48.5 49.5t40.5 14.5q41 0 61.5 -10t36.5 -26zM358 549q-6 -4 -9 -3.5t-6 -1.5q-2 -1 -6 -1q-5 0 -9 1t-9 9l-49 70q-14 21 -18 30t-4 14q0 3 0.5 4.5
t0.5 6.5q0 4 1 7.5t6 10.5q11 16 16 16q2 0 6.5 1.5t10.5 1.5q7 0 9 -6q0 -2 1.5 -5.5t6 -11.5t14 -23.5t25.5 -42.5q4 -7 10 -7q5 0 19.5 9t27.5 16l64 35q9 5 14 5t8 -3t3 -14q0 -4 1 -7t1 -8q0 -7 -4 -15q-2 -5 -5.5 -7.5t-14.5 -9.5l-111 -71v0z" />
    <glyph glyph-name="Ydieresis" unicode="&#x178;" horiz-adv-x="502" 
d="M257 668q5 -1 9 -11t4 -18q0 -11 -2.5 -18t-6 -14.5t-7.5 -16.5t-7 -23q-8 -40 -16 -83t-14.5 -85t-10.5 -81t-4 -71q0 -3 4.5 -6.5t14.5 -3.5q6 0 14 1.5t16 6.5q36 23 63.5 44.5t49.5 43.5q16 16 44 54.5t65 110.5q23 46 41 74.5t23 35.5q7 10 11 10q10 0 28.5 -4.5
t31.5 -17.5q3 -3 7 -14t4 -15q0 -2 -1 -5.5t-5 -8.5q-106 -149 -174.5 -362.5t-107.5 -501.5q-2 -15 -4 -20t-2 -10q0 -8 -6 -8q-5 0 -10.5 1.5t-15.5 3.5q-20 3 -32.5 9.5t-14.5 16.5q-1 4 -1.5 13t-0.5 17q0 33 8 61.5t14 56.5q3 13 5.5 28t5.5 32q16 85 41 174.5
t51 177.5l-8 -9q-7 -8 -19.5 -19t-29.5 -21.5t-38.5 -17.5t-45.5 -7q-3 0 -10 3t-17 8.5t-20.5 12.5t-20.5 16q-19 17 -29.5 33t-10.5 25q0 1 0.5 12t1 27t1.5 34t2 34q1 10 3 16t2 20q0 16 3.5 23.5t5.5 21.5q9 56 20.5 108.5t26.5 105.5q3 9 8 9q19 0 34 -3.5t29 -5.5z
M577 764q2 -7 6.5 -15.5t4.5 -16.5q0 -12 -2 -16q-8 -17 -13.5 -25t-11.5 -11q-5 -2 -14.5 -3t-14.5 -1q-17 0 -24 15q-5 11 -13 19.5t-8 23.5q0 3 2 11t6 16.5t9.5 15t13.5 6.5q2 0 8.5 -0.5t11.5 -0.5q13 0 25 -4.5t14 -13.5zM392 822q5 -8 8 -17.5t3 -14.5q0 -9 -3.5 -17
t-7.5 -14t-8 -10.5t-4 -7.5q0 -4 -5 -7t-11 -5.5t-12.5 -3.5t-10.5 -1h-8q-5 0 -7 2q-9 6 -12 12t-8 11q-2 2 -2 29q0 5 4.5 19t8.5 22q5 10 14 13t21 3q8 0 21.5 -2t18.5 -11z" />
    <glyph glyph-name="Zcaron" unicode="&#x17d;" horiz-adv-x="560" 
d="M659 555q0 -14 -1.5 -23t-6.5 -18.5t-14.5 -20.5t-25.5 -28q-8 -9 -22 -22.5t-29 -27t-28.5 -25.5t-20.5 -17q-4 -3 -4.5 -4.5t-0.5 -3.5q0 -5 9 -5q32 0 58 -8t40 -26q5 -6 5 -17q0 -10 -5.5 -16t-10.5 -6q-2 0 -4.5 0.5t-7.5 0.5t-14.5 0.5t-25.5 0.5q-31 0 -59 -4
t-55.5 -10t-54.5 -12t-55 -10q-26 -22 -56 -42t-58.5 -41.5t-53 -45.5t-39.5 -54q-2 -5 -4 -9.5t-2 -8.5q0 -3 5.5 -7.5t13.5 -8t17.5 -6.5t18.5 -3q13 0 25.5 -4t30.5 -4q28 0 61.5 7t66.5 16.5t62.5 20t50.5 18.5q11 4 17 6t11 2q2 0 7 -0.5t11 -2t11 -3t7 -4.5
q8 -14 20 -27t12 -26q0 -8 -7 -8q-8 0 -8.5 2t-8.5 2q-6 0 -6.5 -3t-7.5 -6q-63 -28 -134 -45t-135 -17q-52 0 -102 12.5t-98 42.5q-3 2 -10 10.5t-14 19.5t-12.5 22t-5.5 18q0 10 0.5 15t2.5 10q4 10 13 22.5t25 28.5t39.5 36t56.5 47q6 5 6 7q0 4 -7 5q-14 2 -27 7t-18 10
q-3 4 -5.5 10t-2.5 10q0 7 1.5 8.5t1.5 17.5q0 11 9 17t16 6q5 0 11 -1.5t11 -3.5q24 -8 39 -11t21 -3q4 0 15.5 1.5t24 3.5t23 4.5t14.5 4.5q31 19 69 44t76 53.5t71.5 60t54.5 62.5q2 3 4.5 7t2.5 7q0 8 -13.5 13.5t-32.5 8.5t-40 4.5t-37 1.5q-41 0 -80 -12.5t-56 -44.5
q-2 -3 -9 -5t-14 -2q-8 0 -15 2.5t-12 4.5q-15 8 -21 21t-12 39q0 7 0.5 9t3.5 4q39 26 91.5 39t108.5 13q48 0 95.5 -11t88.5 -34q3 -2 11.5 -9t17.5 -16t16.5 -18t7.5 -15zM540 704q-6 -4 -9 -3.5t-6 -1.5q-2 -1 -6 -1q-5 0 -9 1t-9 9l-49 70q-14 21 -18 30t-4 14
q0 3 0.5 4.5t0.5 6.5q0 4 1 7.5t6 10.5q11 16 16 16q2 0 6.5 1.5t10.5 1.5q7 0 9 -6q0 -2 1.5 -5.5t6 -11.5t14 -23.5t25.5 -42.5q4 -7 10 -7q5 0 19.5 9t27.5 16l64 35q9 5 14 5t8 -3t3 -14q0 -4 1 -7t1 -8q0 -7 -4 -15q-2 -5 -5.5 -7.5t-14.5 -9.5l-111 -71v0z" />
    <glyph glyph-name="zcaron" unicode="&#x17e;" horiz-adv-x="384" 
d="M428 410q4 -11 4 -21q0 -12 -4.5 -20.5t-13.5 -17t-22.5 -18.5t-30.5 -24q-6 -5 -6 -8t11 -3q20 0 42.5 -5.5t36.5 -21.5q5 -6 6.5 -8.5t1.5 -6.5q-3 -8 -7.5 -11.5t-15.5 -3.5q-13 0 -32.5 -2t-42.5 -5.5t-47.5 -8.5t-46.5 -12q-20 -6 -26.5 -9.5t-16.5 -12.5
q-12 -11 -25 -25t-25.5 -28.5t-24.5 -27t-21 -20.5q-6 -5 -9 -14.5t-3 -12.5q0 -5 3 -8t11 -7q17 -8 29 -8q15 0 32 6t34 6q16 0 30.5 6t28.5 13.5t28.5 13.5t29.5 6q11 0 22 -3.5t23 -14.5q7 -6 7 -19q0 -2 -1 -4.5t-9 -5.5q-24 -10 -50 -20.5t-52.5 -19.5t-54.5 -15
t-56 -6q-26 0 -55.5 7t-49.5 19q-18 11 -24 28t-6 34q0 5 0.5 13t2.5 12q10 21 25.5 38.5t31.5 34.5q8 8 12.5 14t4.5 9t-1.5 4.5t-11.5 4.5q-9 3 -17.5 7t-13.5 14q-7 12 -9.5 18.5t-2.5 14.5q0 7 8 13t18 6q17 0 33 -7t41 -7t43.5 10.5t34 25t30 30t31.5 24.5
q20 11 33.5 26t13.5 24q0 4 -5.5 5.5t-10.5 1.5q-12 0 -20 -4t-30 -6q-29 -3 -52.5 -16.5t-40.5 -33.5q-1 -1 -2.5 -1.5t-6.5 -0.5t-15 9t-14 20q-5 15 -5 24q0 25 20 30q37 9 78.5 21t81.5 12q29 0 55 -8t32 -16q5 -5 13.5 -11t12.5 -16zM391 513q-6 -4 -9 -3.5t-6 -1.5
q-2 -1 -6 -1q-5 0 -9 1t-9 9l-49 70q-14 21 -18 30t-4 14q0 3 0.5 4.5t0.5 6.5q0 4 1 7.5t6 10.5q11 16 16 16q2 0 6.5 1.5t10.5 1.5q7 0 9 -6q0 -2 1.5 -5.5t6 -11.5t14 -23.5t25.5 -42.5q4 -7 10 -7q5 0 19.5 9t27.5 16l64 35q9 5 14 5t8 -3t3 -14q0 -4 1 -7t1 -8
q0 -7 -4 -15q-2 -5 -5.5 -7.5t-14.5 -9.5l-111 -71v0z" />
    <glyph glyph-name="florin" unicode="&#x192;" horiz-adv-x="420" 
d="M276 271q-39 -102 -63 -161t-37.5 -92t-20 -46.5t-11.5 -23.5q-23 -47 -54 -75t-61.5 -42.5t-56.5 -18.5t-38 -4q-11 0 -23 2t-23 2q-33 0 -45.5 2t-12.5 12q0 17 6.5 25t9.5 20q8 23 50 23q27 0 37 -1t13 -2t3.5 -2t8.5 -1q40 0 69 29q9 9 23.5 33t31.5 67
q29 72 51 129.5t39 104.5q5 13 5 15q0 5 -1.5 7t-3.5 4q-5 4 -14.5 7t-18.5 7.5t-16 11t-7 17.5q0 4 -1.5 9t-1.5 10q0 8 5 15t9 7q6 0 15 -1t19.5 -2t20.5 -2t17 -1q3 0 9 2.5t9 11.5q10 28 14 38t7.5 18t9.5 22.5t21 52.5q18 48 43 81.5t54.5 55t63 31t69.5 9.5
q14 0 28 -1.5t28 -3.5q7 -1 14 -3t7 -13q0 -5 1.5 -5.5t1.5 -5.5q0 -8 -3 -15q-5 -14 -10 -21t-17 -7q-10 0 -10.5 -4t-10.5 -4q-15 0 -22.5 0.5t-11.5 1.5t-7 1.5t-9 0.5q-11 0 -26 -3t-33 -16.5t-37.5 -42t-38.5 -80.5q-9 -23 -17 -45.5t-16 -42.5q0 -4 0.5 -6.5t5.5 -2.5
t17.5 1t27.5 2.5t30 2.5t24 1h21q8 0 17.5 -7t11.5 -16t5.5 -10.5t3.5 -13.5q0 -19 -8 -19q-28 0 -48 -3t-38.5 -7t-38 -7t-46.5 -3q-14 0 -19 -9z" />
    </font>
</defs>
</svg>
